/* XPM */
static char *b40b903555534c32de876b69fd19e13cPJpuesIWoFiTwdM9[] = {
/* columns rows colors chars-per-pixel */
"64 64 53 1 ",
"  c #C89858",
". c #D2A955",
"X c #DFBF50",
"o c #E0C050",
"O c #DEBD51",
"+ c #D1A755",
"@ c #CFA456",
"# c #DCB951",
"$ c #D5AD54",
"% c #CC9F57",
"& c #D2A855",
"* c #CC9E57",
"= c #CB9D57",
"- c #D0A655",
"; c #CDA056",
": c #D3AA54",
"> c #DCBA51",
", c #D4AC54",
"< c #C99958",
"1 c #C99A58",
"2 c #D0A555",
"3 c #DAB652",
"4 c #D9B452",
"5 c #CDA156",
"6 c #CA9B57",
"7 c #D7B153",
"8 c #D6B053",
"9 c #D7B253",
"0 c #CB9E57",
"q c #D3AB54",
"w c #DAB752",
"e c #CEA256",
"r c #D5AE54",
"t c #DEBC51",
"y c #CFA356",
"u c #D8B253",
"i c #D4AD54",
"p c #CA9C57",
"a c #D9B552",
"s c #D1A655",
"d c #CEA156",
"f c #D6AF53",
"g c #DDBB51",
"h c #D7B053",
"j c #CEA356",
"k c #C89958",
"l c #CB9C57",
"z c #D1A855",
"x c #D4AB54",
"c c #DDBA51",
"v c #DBB852",
"b c #DDBC51",
"n c #DBB752",
/* pixels */
"              .XoO+                        @#oo$                ",
"              .XoO+      %&.+*             @#oo$      =-..;     ",
"              .XoO+      :ooO+             @#oo$      @>oo,     ",
"              .XoO+      :ooO+             @#oo$      @>oo,     ",
"        <%%1  2334@      :ooO+        =56  5733&      @>oo,     ",
"        =89%  60*01      :ooO+        qw@  1=**6      @>oo,     ",
"        *43;             e$r,;        rt-             %:rry     ",
"        0u4;                          i#2                       ",
"        15e6                          %@=                       ",
"                                                                ",
"                                                                ",
"                                                                ",
"===6                         6==6<                        1==p1 ",
"aaa.<                       1:aa$=                        saa7d ",
"ooof1   1de6                67ooa%    %@=                 ,oog2 ",
"ooof1   0ua;                67ooa%    $>2                 ,oog2 ",
"ooof1   *43;                67ooa%    rt-                 ,oog2 ",
"###,<   *43;             6%66$##h*    rt-             10p &##aj ",
"555=    *43;             -wsk055%1    rt-             duq1l55;6 ",
"        p.q=  %+%        :o:          -r5  l2d<       @>81      ",
"              .Xq        :o:               y#h6       @>81      ",
"              .Xq        %z%               @#76       =-e<      ",
"              -w+                          5ux1                 ",
"              6%6                          1*lk                 ",
"                                                                ",
"              k11<k                         <11k                ",
"              y7u8e                        %ruu-                ",
"              .XoO+      =eedp             @#oo$      65ee=     ",
"              .XoO+      +cgv2             @#oo$      j3gg:     ",
"              .XoO+      :ooO+             @#oo$      @>oo,     ",
"        k16k  zbO>-      :ooO+        16<  jwOOq      @>oo,     ",
"        px$*  =@@y=      :ooO+        +7e  pe@@*      @>oo,     ",
"        *43;             @447e        rt-             ;844-     ",
"        *43;             1666<        rt-             <6661     ",
"        62sp                          j.%                       ",
"                                                                ",
"                                                                ",
"                                                                ",
"                                                                ",
"fff2<                       1sff.p                        yff,% ",
"ooof1   <==1                67ooa%    p*6                 ,oog2 ",
"ooof1   =r8%                67ooa%    :4y                 ,oog2 ",
"ooof1   *43;                67ooa%    rt-                 ,oog2 ",
"ooof1   *43;                67ooa%    rt-                 ,ooc2 ",
"+++5k   *43;             yhy<e++y6    rt-             ;$+<;++2= ",
"        =rf%  p5l        :o:          .4y  6;0k       @>81      ",
"        <==<  s#&        :o:          p*1  e4i1       @>81      ",
"              .Xq        ere               @#76       %q2<      ",
"              &O:                          yvf6                 ",
"              02*                          py;<                 ",
"                                                                ",
"                                                                ",
"              ;x,:;                        0&,,e                ",
"              .XoO+      1ppp<             @#oo$      <6pp1     ",
"              .XoO+      244ue             @#oo$      5h44s     ",
"              .XoO+      :ooO+             @#oo$      @>oo,     ",
"              .XoO+      :ooO+             @#oo$      @>oo,     ",
"        6+&=  ;::.%      :ooO+        @x;  =+::e      @>oo,     ",
"        *43;             +>>n2        rt-             ea>>.     ",
"        *43;             lee5p        rt-             6;ee=     ",
"        p:x=                          -f5                       ",
"         kk                           k<                        ",
"                                                                ",
"                                                                "
};
