/* XPM */
static char *result[] = {
/* columns rows colors chars-per-pixel */
"64 64 36 1 ",
"  c black",
". c #242005",
"X c #272305",
"o c #2B2606",
"O c #4F4400",
"+ c #494009",
"@ c #524806",
"# c #554B0B",
"$ c #5F5200",
"% c #665A0D",
"& c #776700",
"* c #807111",
"= c #9E8900",
"- c #AA9616",
"; c #CFB511",
": c #D5BC1C",
"> c #EDCD00",
", c #F3D40B",
"< c #F5D60F",
"1 c #F6D711",
"2 c #F7D812",
"3 c #F9DA16",
"4 c #F9DE35",
"5 c #FFE121",
"6 c #F9E044",
"7 c #FFE64F",
"8 c #F9E363",
"9 c #FFE966",
"0 c #FFEA6E",
"q c #F9E572",
"w c #FFEC7D",
"e c #FCEB8F",
"r c #FEED91",
"t c #FFEE94",
"y c #FFF1AB",
"u c None",
/* pixels */
"uuuuuuuuuuuuuuuuuuuuuuuu                uuuuuuuuuuuuuuuuuuuuuuuu",
"uuuuuuuuuuuuuuuuuuuuuuuu                uuuuuuuuuuuuuuuuuuuuuuuu",
"uuuuuuuuuuuuuuuuuuuuuuuu                uuuuuuuuuuuuuuuuuuuuuuuu",
"uuuuuuuuuuuuuuuuuuuuuuuu.oooooooooooooo.uuuuuuuuuuuuuuuuuuuuuuuu",
"uuuuuuuuuuuuuuuuuuuuu   *55555555555555*   uuuuuuuuuuuuuuuuuuuuu",
"uuuuuuuuuuuuuuuuuuuuu   *55555555555555*   uuuuuuuuuuuuuuuuuuuuu",
"uuuuuuuuuuuuuuuuuuuuu   *55555555555555*   uuuuuuuuuuuuuuuuuuuuu",
"uuuuuuuuuuuuuuuuuuuuu   *55555551113555*   uuuuuuuuuuuuuuuuuuuuu",
"uuuuuuuuuuuuuuuuuuuuu   *5555555>>>,555*   uuuuuuuuuuuuuuuuuuuuu",
"uuuuuuuuuuuuuuuuuuuuu   *5555555>>>,555*   uuuuuuuuuuuuuuuuuuuuu",
"uuuuuuuuuuuuuuuuuuuuu   *5555555>>>,555*   uuuuuuuuuuuuuuuuuuuuu",
"uuuuuuuuuuuuuuuuu   +---:5550www3332,,,;---X   uuuuuuuuuuuuuuuuu",
"uuuuuuuuuuuuuuuuu   #5555555tyyy5553>>>1555o   uuuuuuuuuuuuuuuuu",
"uuuuuuuuuuuuuuuuu   #5555555tyyy5553>>>1555o   uuuuuuuuuuuuuuuuu",
"uuuuuuuuuuuuuuuuu   #5555555tyyy5553>>>1555o   uuuuuuuuuuuuuuuuu",
"uuuuuuuuuuuuuuuuu   #5555555tyyyttt8>>>1555o   uuuuuuuuuuuuuuuuu",
"uuuuuuuuuuuuuuuuu   #5555555tyyyyyyq>>>1555o   uuuuuuuuuuuuuuuuu",
"uuuuuuuuuuuuuuuuu   #5555555tyyyyyyq>>>1555o   uuuuuuuuuuuuuuuuu",
"uuuuuuuuuuuuuuuuu   #5555555tyyyyyyq>>>1555o   uuuuuuuuuuuuuuuuu",
"uuuuuuuuuuuuuuuuu   #5555555tyyy5553>>>1555o   uuuuuuuuuuuuuuuuu",
"uuuuuuuuuuuuuuuuu   #5555555tyyy5553>>>1555o   uuuuuuuuuuuuuuuuu",
"uuuuuuuuuuuuuuuuu   #5555555tyyy5553>>>1555o   uuuuuuuuuuuuuuuuu",
"uuuuuuuuuuuuuuuuu   #5555555tyyy7774>>>1555o   uuuuuuuuuuuuuuuuu",
"uuuuuuuuuuuuuuuuu   #5555555tyyyyyyq>>>1555o   uuuuuuuuuuuuuuuuu",
"uuuuuuuuuuuuuuuuu   #5555555tyyyyyyq>>>1555o   uuuuuuuuuuuuuuuuu",
"uuuuuuuuuuuuuuuuu   #5555555tyyyyyyq>>>1555o   uuuuuuuuuuuuuuuuu",
"uuuuuuuuuuuuuuuuu   @1111111ryyy9996>>>1555o   uuuuuuuuuuuuuuuuu",
"uuuuuuuuuuuuuuuuu   O>>>>>>>eyyy5553>>>1555o   uuuuuuuuuuuuuuuuu",
"uuuuuuuuuuuuuuuuu   O>>>>>>>eyyy5553>>>1555o   uuuuuuuuuuuuuuuuu",
"uuuuuuuuuuuuuuuuu   O>>>>>>>eyyy5553>>>1555o   uuuuuuuuuuuuuuuuu",
"uuuuuuuuuuuuuuuuu   O>>>>>>>eyyy5553>>>1555o   uuuuuuuuuuuuuuuuu",
"uuuuuuuuuuuuuuuuu   O>>>>>>>eyyy5553>>>1555o   uuuuuuuuuuuuuuuuu",
"uuuuuuuuuuuuuuuuu   O>>>>>>>eyyy5553>>>1555o   uuuuuuuuuuuuuuuuu",
"uuuuuuuuuuuuuuuuu   O>>>>>>>eyyy5553>>>1555o   uuuuuuuuuuuuuuuuu",
"uuuuuuuuuuuuuuuuu   O>>>>>>>eyyy5553>>>1555o   uuuuuuuuuuuuuuuuu",
"uuuuuuuuuuuuuuuuu   O>>>>>>>eyyy5553>>>1555o   uuuuuuuuuuuuuuuuu",
"uuuuuuuuuuuuuuuuu   O>>>>>>>eyyy5553>>>1555o   uuuuuuuuuuuuuuuuu",
"uuuuuuuuuuuuuuuuu   O>>>>>>>eyyy5553>>>1555o   uuuuuuuuuuuuuuuuu",
"uuuuuuuuuuuuuuuuu   O>>>>>>>eyyy5553>>>1555o   uuuuuuuuuuuuuuuuu",
"uuuuuuuuuuuuuuuuu   O>>>>>>>eyyy5553>>>1555o   uuuuuuuuuuuuuuuuu",
"uuuuuuuuuuuuuuuuu   O>>>>>>>eyyy5553>>>1555o   uuuuuuuuuuuuuuuuu",
"uuuuuuuuuuuuuuuuu   O>>>>>>>eyyy333<>>>1555o   uuuuuuuuuuuuuuuuu",
"uuuuuuuuuuuuuuuuu   O>>>>>>>eyyy>>>>>>>1555o   uuuuuuuuuuuuuuuuu",
"uuuuuuuuuuuuuuuuu   O>>>>>>>eyyy>>>>>>>1555o   uuuuuuuuuuuuuuuuu",
"uuuuuuuuuuuuuuuuu   O>>>>>>>eyyy>>>>>>>1555o   uuuuuuuuuuuuuuuuu",
"uuuuuuuuuuuuuuuuu   O>>>>>>>eyyy>>>>>>>1555o   uuuuuuuuuuuuuuuuu",
"uuuuuuuuuuuuuuuuu   O>>>>>>>eyyy>>>>>>>1555o   uuuuuuuuuuuuuuuuu",
"uuuuuuuuuuuuuuuuu   O>>>>>>>eyyy>>>>>>>1555o   uuuuuuuuuuuuuuuuu",
"uuuuuuuuuuuuuuuuu   O>>>>>>>eyyy>>>>>>>1555o   uuuuuuuuuuuuuuuuu",
"uuuuuuuuuuuuuuuuu   O>>>>>>>eyyy>>>>>>>1555o   uuuuuuuuuuuuuuuuu",
"uuuuuuuuuuuuuuuuu   O>>>>>>>eyyy>>>>>>>1555o   uuuuuuuuuuuuuuuuu",
"uuuuuuuuuuuuuuuuu   O>>>>>>>eyyy>>>>>>>1555o   uuuuuuuuuuuuuuuuu",
"uuuuuuuuuuuuuuuuu   O>>>>>>>eyyy>>>>>>>1555o   uuuuuuuuuuuuuuuuu",
"uuuuuuuuuuuuuuuuuuuuu   &>>>>>>>yyyw555*   uuuuuuuuuuuuuuuuuuuuu",
"uuuuuuuuuuuuuuuuuuuuu   &>>>>>>>yyyw555*   uuuuuuuuuuuuuuuuuuuuu",
"uuuuuuuuuuuuuuuuuuuuu   &>>>>>>>yyyw555*   uuuuuuuuuuuuuuuuuuuuu",
"uuuuuuuuuuuuuuuuuuuuu   &>>>>>>>ttt0555*   uuuuuuuuuuuuuuuuuuuuu",
"uuuuuuuuuuuuuuuuuuuuu   &>>>>>>>5555555*   uuuuuuuuuuuuuuuuuuuuu",
"uuuuuuuuuuuuuuuuuuuuu   &>>>>>>>5555555*   uuuuuuuuuuuuuuuuuuuuu",
"uuuuuuuuuuuuuuuuuuuuu   &>>>>>>>5555555*   uuuuuuuuuuuuuuuuuuuuu",
"uuuuuuuuuuuuuuuuuuuuu   $=======-------%   uuuuuuuuuuuuuuuuuuuuu",
"uuuuuuuuuuuuuuuuuuuuuuuu                uuuuuuuuuuuuuuuuuuuuuuuu",
"uuuuuuuuuuuuuuuuuuuuuuuu                uuuuuuuuuuuuuuuuuuuuuuuu",
"uuuuuuuuuuuuuuuuuuuuuuuu                uuuuuuuuuuuuuuuuuuuuuuuu"
};
