/* XPM */
static char *result[] = {
/* columns rows colors chars-per-pixel */
"64 64 59 1 ",
"  c black",
". c #231E01",
"X c #292401",
"o c #2B2606",
"O c #2B2608",
"+ c #242212",
"@ c #2B2815",
"# c #665A0D",
"$ c #7B6B03",
"% c #665F33",
"& c #907D03",
"* c #807111",
"= c #807740",
"- c #968413",
"; c #A38E03",
": c #A99513",
"> c #AA9616",
", c #BAA30B",
"< c #BBA728",
"1 c #CCB204",
"2 c #D5BC1C",
"3 c #EDCD00",
"4 c #EECE01",
"5 c #F0D005",
"6 c #F0D006",
"7 c #F5D505",
"8 c #F7D707",
"9 c #F3D40B",
"0 c #F4D50D",
"q c #F8D808",
"w c #FADA0A",
"e c #F9DA0F",
"r c #E3C81D",
"t c #F6D711",
"y c #F7D811",
"u c #FADB13",
"i c #F9DA16",
"p c #FBDC18",
"a c #FCDD18",
"s c #FCDE1C",
"d c #FDDF1C",
"f c #FEE01F",
"g c #DBC538",
"h c #F3D82A",
"j c #FFE120",
"k c #FFE121",
"l c #FEE026",
"z c #FFE32E",
"x c #FFE331",
"c c #FFE53B",
"v c #AA9F55",
"b c #F6DE40",
"n c #FFE540",
"m c #FEE544",
"M c #FFE850",
"N c #FEEB6C",
"B c #FFEC6F",
"V c #FFEE7F",
"C c None",
/* pixels */
"CCCCCCCCCCCCCCCCCCCCCCC                   CCCCCCCCCCCCCCCCCCCCCC",
"CCCCCCCCCCCCCCCCCCCCCCC                   CCCCCCCCCCCCCCCCCCCCCC",
"CCCCCCCCCCCCCCCCCCCCCCC                   CCCCCCCCCCCCCCCCCCCCCC",
"CCCCCCCCCCCCCCCCCCCCCCCoooO@@@@@@@@@@@@@@@CCCCCCCCCCCCCCCCCCCCCC",
"CCCCCCCCCCCCCCCCCCC    kkkxVVVVVVVVVVVVVVV    CCCCCCCCCCCCCCCCCC",
"CCCCCCCCCCCCCCCCCCC    kkkxVVVVVVVVVVVVVVV    CCCCCCCCCCCCCCCCCC",
"CCCCCCCCCCCCCCCCCCC    kkkxVVVVVVVVVVVVVVV    CCCCCCCCCCCCCCCCCC",
"CCCCCCCCCCCCCCCC   #***kkklbbbbbbbbbbbbbbb===%   CCCCCCCCCCCCCCC",
"CCCCCCCCCCCCCCC    >kkkkkks333333333333333VVVv    CCCCCCCCCCCCCC",
"CCCCCCCCCCCCCCC    >kkkkkks333333333333333VVVv    CCCCCCCCCCCCCC",
"CCCCCCCCCCCCCCC    >kkkkkks333333333333333VVVv    CCCCCCCCCCCCCC",
"CCCCCCCCCCCC   #>>>rkkk9990iiiiiiiiiiiiiiihhhgvvv%   CCCCCCCCCCC",
"CCCCCCCCCCCC   *kkkkkkk3336kkkkkkkkkkkkkkk333hVVV=   CCCCCCCCCCC",
"CCCCCCCCCCCC   *kkkkkkk3336kkkkkkkkkkkkkkk333hVVV=   CCCCCCCCCCC",
"CCCCCCCCCCCC   *kkkkkkk3336kkkkkkkkkkkkkkk333hVVV=   CCCCCCCCCCC",
"CCCCCCCCCCCC   *kkkkkkk3336kkkcBBBBBBBzkkk333hVVV=   CCCCCCCCCCC",
"CCCCCCCCCCCC   *kkkkkkk3336kkknVVVVVVVxkkk333hVVV=   CCCCCCCCCCC",
"CCCCCCCCCCCC   *kkkkkkk3336kkknVVVVVVVxkkk333hVVV=   CCCCCCCCCCC",
"CCCCCCCCCCCC   *kkkkkkk3336kkknVVVVVVVxkkk333hVVV=   CCCCCCCCCCC",
"CCCCCCCC   X777ukkk9333kkkd7778wwwwwwwNVVVkkki333bVVV@   CCCCCCC",
"CCCCCCCC   X777ukkk9333kkkd7778wwwwwwwNVVVkkki333bVVV@   CCCCCCC",
"CCCCCCCC   X777ukkk9333kkkd7778wwwwwwwNVVVkkki333bVVV@   CCCCCCC",
"CCCCCCCC   X777ukkk9333kkkd7778wwwwwwwNVVVkkki333bVVV@   CCCCCCC",
"CCCCCCCC   X777ukkk9333kkkd7778wwwwwwwNVVVkkki333bVVV@   CCCCCCC",
"CCCCCCCC   X777ukkk9333kkkd7778wwwwwwwNVVVkkki333bVVV@   CCCCCCC",
"CCCCCCCC   X777ukkk9333kkkd7778wwwwwwwNVVVkkki333bVVV@   CCCCCCC",
"CCCCCCCC   X777ukkk9333kkkd7778wwwwwwwNVVVkkki333bVVV@   CCCCCCC",
"CCCCCCCC   X777ukkk9333kkkd7778wwwwwwwNVVVkkki333bVVV@   CCCCCCC",
"CCCCCCCC   X777ukkk9333kkkd7778wwwwwwwNVVVkkki333bVVV@   CCCCCCC",
"CCCCCCCC   X777ukkk9333kkkd7778wwwwwwwNVVVkkki333bVVV@   CCCCCCC",
"CCCCCCCC   X777ukkk9333kkkd7778wwwwwwwNVVVkkki333bVVV@   CCCCCCC",
"CCCCCCCC   X777ukkk9333kkkd7778wwwwwwwNVVVkkki333bVVV@   CCCCCCC",
"CCCCCCCC   X777ukkk9333kkkd7778wwwwwwwNVVVkkki333bVVV@   CCCCCCC",
"CCCCCCCC   X777ukkk9333kkkd7778wwwwwwwNVVVkkki333bVVV@   CCCCCCC",
"CCCCCCCC   X777ukkk9333kkkd7778wwwwwwwNVVVkkki333bVVV@   CCCCCCC",
"CCCCCCCC   X777ukkk9333kkkd7778wwwwwwwNVVVkkki333bVVV@   CCCCCCC",
"CCCCCCCC   X777ukkk9333kkkd7778wwwwwwwNVVVkkki333bVVV@   CCCCCCC",
"CCCCCCCC   X777ukkk9333kkkd7778wwwwwwwNVVVkkki333bVVV@   CCCCCCC",
"CCCCCCCC   X777ukkk9333kkkd7778wwwwwwwNVVVkkki333bVVV@   CCCCCCC",
"CCCCCCCC   X777ukkk9333kkkd7778wwwwwwwNVVVkkki333bVVV@   CCCCCCC",
"CCCCCCCC   X777ukkk9333kkkd7778wwwwwwwNVVVkkki333bVVV@   CCCCCCC",
"CCCCCCCC   X777ukkk9333kkkd7778wwwwwwwNVVVkkki333bVVV@   CCCCCCC",
"CCCCCCCC   X777ukkk9333kkkd7778wwwwwwwNVVVkkki333bVVV@   CCCCCCC",
"CCCCCCCC   X777ukkk9333kkkd7778wwwwwwwNVVVkkki333bVVV@   CCCCCCC",
"CCCCCCCC   X777ukkk9333kkkd7778wwwwwwwNVVVkkki333bVVV@   CCCCCCC",
"CCCCCCCC   .$$$,uuuyttttttyuuueqqqqqqqmMMMttttttt<===+   CCCCCCC",
"CCCCCCCCCCCC   $777akkk3336kkka7777777dkkk3339kkk*   CCCCCCCCCCC",
"CCCCCCCCCCCC   $777akkk3336kkka7777777dkkk3339kkk*   CCCCCCCCCCC",
"CCCCCCCCCCCC   $777akkk3336kkka7777777dkkk3339kkk*   CCCCCCCCCCC",
"CCCCCCCCCCCC   $777akkk3336kkkfdddddddjkkk3339kkk*   CCCCCCCCCCC",
"CCCCCCCCCCCC   $777akkk3336kkkkkkkkkkkkkkk3339kkk*   CCCCCCCCCCC",
"CCCCCCCCCCCC   $777akkk3336kkkkkkkkkkkkkkk3339kkk*   CCCCCCCCCCC",
"CCCCCCCCCCCC   $777akkk3336kkkkkkkkkkkkkkk3339kkk*   CCCCCCCCCCC",
"CCCCCCCCCCCCCCC    ;777kkks333333333333333kkk>    CCCCCCCCCCCCCC",
"CCCCCCCCCCCCCCC    ;777kkks333333333333333kkk>    CCCCCCCCCCCCCC",
"CCCCCCCCCCCCCCC    ;777kkks333333333333333kkk>    CCCCCCCCCCCCCC",
"CCCCCCCCCCCCCCCC   &111dddp444444444445666222-   CCCCCCCCCCCCCCC",
"CCCCCCCCCCCCCCCCCCC    777777777777777dkkk    CCCCCCCCCCCCCCCCCC",
"CCCCCCCCCCCCCCCCCCC    777777777777777dkkk    CCCCCCCCCCCCCCCCCC",
"CCCCCCCCCCCCCCCCCCC    777777777777777dkkk    CCCCCCCCCCCCCCCCCC",
"CCCCCCCCCCCCCCCCCCCC   ;;;;;;;;;;;;;;;:>>>   CCCCCCCCCCCCCCCCCCC",
"CCCCCCCCCCCCCCCCCCCCCCC                   CCCCCCCCCCCCCCCCCCCCCC",
"CCCCCCCCCCCCCCCCCCCCCCC                   CCCCCCCCCCCCCCCCCCCCCC",
"CCCCCCCCCCCCCCCCCCCCCCC                   CCCCCCCCCCCCCCCCCCCCCC"
};
