/* XPM */
static char *result[] = {
/* columns rows colors chars-per-pixel */
"64 64 103 2 ",
"   c black",
".  c #282200",
"X  c #292300",
"o  c #2A2400",
"O  c #2A2505",
"+  c #2B2606",
"@  c #3F3600",
"#  c #292614",
"$  c #2B2815",
"%  c #483E00",
"&  c #403808",
"*  c #494009",
"=  c #544900",
"-  c #554B0B",
";  c #7E6D00",
":  c #494424",
">  c #504A28",
",  c #554F2A",
"<  c #716729",
"1  c #716935",
"2  c #807111",
"3  c #807740",
"4  c #A89100",
"5  c #A99307",
"6  c #AA9616",
"7  c #C5AB07",
"8  c #CCB100",
"9  c #D2B600",
"0  c #C6AF1A",
"q  c #D5BC1C",
"w  c #EDCD00",
"e  c #E1C409",
"r  c #E5C80E",
"t  c #F5D400",
"y  c #F0D006",
"u  c #F5D505",
"i  c #F7D707",
"p  c #FCDA00",
"a  c #F2D309",
"s  c #F3D40B",
"d  c #F7D70A",
"f  c #F5D60F",
"g  c #FADA0A",
"h  c #FDDC0B",
"j  c #E3C81D",
"k  c #F2D412",
"l  c #F6D711",
"z  c #F2D416",
"x  c #FADB11",
"c  c #FEDE11",
"v  c #F9DA16",
"b  c #FEDF16",
"n  c #FCDD18",
"m  c #FCDE19",
"M  c #F8DB1D",
"N  c #FCDD1C",
"B  c #FCDE1C",
"V  c #FDDE1C",
"C  c #FDDF1C",
"Z  c #FDDF1D",
"A  c #FCDE1F",
"S  c #FEDF1E",
"D  c #FFE01C",
"F  c #FFE01D",
"G  c #FEE01F",
"H  c #FDDF20",
"J  c #F7DC2B",
"K  c #FBDF2F",
"L  c #FFE121",
"P  c #FFE126",
"I  c #FFE226",
"U  c #FCE02C",
"Y  c #FCE02D",
"T  c #FEE22C",
"R  c #FFE32E",
"E  c #FEE231",
"W  c #FFE331",
"Q  c #FDE236",
"!  c #FDE33C",
"~  c #AA9F55",
"^  c #D4C355",
"/  c #EAD445",
"(  c #FCE341",
")  c #FFE540",
"_  c #FFE644",
"`  c #FEE648",
"'  c #FFE74B",
"]  c #FCE54E",
"[  c #FDE756",
"{  c #FFE850",
"}  c #FFE853",
"|  c #FDE758",
" . c #FEE85B",
".. c #D5C66A",
"X. c #FEE960",
"o. c #FFEA60",
"O. c #FEEA69",
"+. c #FEEA6A",
"@. c #FFEC6F",
"#. c #FFEC71",
"$. c #FFEC75",
"%. c #FFEE7F",
"&. c None",
/* pixels */
"&.&.&.&.&.&.&.&.&.&.&.&.&.&.&.&.&.&.&.&.&.&.&.                                      &.&.&.&.&.&.&.&.&.&.&.&.&.&.&.&.&.&.&.&.&.&.",
"&.&.&.&.&.&.&.&.&.&.&.&.&.&.&.&.&.&.&.&.&.&.&.                                      &.&.&.&.&.&.&.&.&.&.&.&.&.&.&.&.&.&.&.&.&.&.",
"&.&.&.&.&.&.&.&.&.&.&.&.&.&.&.&.&.&.&.&.&.&.&.                                      &.&.&.&.&.&.&.&.&.&.&.&.&.&.&.&.&.&.&.&.&.&.",
"&.&.&.&.&.&.&.&.&.&.&.&.&.&.&.&.&.&.&.&.&.&.&.$ $ $ $ $ $ $ $ $ $ $ $ $ $ $ $ $ $ # &.&.&.&.&.&.&.&.&.&.&.&.&.&.&.&.&.&.&.&.&.&.",
"&.&.&.&.&.&.&.&.&.&.&.&.&.&.&.                %.%.%.%.%.%.%.%.%.%.%.%.%.%.%.%.%.%...              &.&.&.&.&.&.&.&.&.&.&.&.&.&.&.",
"&.&.&.&.&.&.&.&.&.&.&.&.&.&.&.                %.%.%.%.%.%.%.%.%.%.%.%.%.%.%.%.%.%...              &.&.&.&.&.&.&.&.&.&.&.&.&.&.&.",
"&.&.&.&.&.&.&.&.&.&.&.&.&.&.&.                %.%.%.%.%.%.%.%.%.%.%.%.%.%.%.%.%.%...              &.&.&.&.&.&.&.&.&.&.&.&.&.&.&.",
"&.&.&.&.&.&.&.&.&.&.&.&.      , 3 3 3 3 3 3 3 X.X.X. .{ { { { { { { { { { { { { { / 2 2 2 2 2 2 2 &       &.&.&.&.&.&.&.&.&.&.&.",
"&.&.&.&.&.&.&.&.&.&.&.&.      3 %.%.%.%.%.%.%.( ( ( Q L L L L L L L L L L L L L L L L L L L L L L -       &.&.&.&.&.&.&.&.&.&.&.",
"&.&.&.&.&.&.&.&.&.&.&.&.      3 %.%.%.%.%.%.%.( ( ( Q L L L L L L L L L L L L L L L L L L L L L L -       &.&.&.&.&.&.&.&.&.&.&.",
"&.&.&.&.&.&.&.&.&.&.&.&.      3 %.%.%.%.%.%.%.( ( ( Q L L L L L L L L L L L L L L L L L L L L L L -       &.&.&.&.&.&.&.&.&.&.&.",
"&.&.&.&.&.&.&.&.      : ~ ~ ~ ^ [ [ [ _ ) ) ) z z z k s s s s s s s s s s s s s s f L L L L L L L 0 6 6 6         &.&.&.&.&.&.&.",
"&.&.&.&.&.&.&.&.      , %.%.%.X.( ( ( P L L L w w w w w w w w w w w w w w w w w w y L L L L L L L L L L L         &.&.&.&.&.&.&.",
"&.&.&.&.&.&.&.&.      , %.%.%.X.( ( ( P L L L w w w w w w w w w w w w w w w w w w y L L L L L L L L L L L         &.&.&.&.&.&.&.",
"&.&.&.&.&.&.&.&.      , %.%.%.X.( ( ( P L L L w w w w w w w w w w w w w w w w w w y L L L L L L L L L L L         &.&.&.&.&.&.&.",
"&.&.&.&.      $ %.%.%.+.( ( ( E L L L y w w w L L L L L L L L L L L L L L L L L L B w w w l L L L L L L L L L L q         &.&.&.",
"&.&.&.&.      $ %.%.%.+.( ( ( E L L L y w w w L L L L L L L L L L L L L L L L L L B w w w l L L L L L L L L L L q         &.&.&.",
"&.&.&.&.      $ %.%.%.+.( ( ( E L L L y w w w L L L L L L L L L L L L L L L L L L B w w w l L L L L L L L L L L q         &.&.&.",
"&.&.&.&.      $ %.%.%.O.! ! ! U B B B a y y y L L L I W W W W W W W W W W W L L L V y y y l B B B G L L L L L L q         &.&.&.",
"&.&.&.&.      $ %.%.%.o.L L L l w w w B L L L L L L ) %.%.%.%.%.%.%.%.%.%.%.L L L L L L L l w w w v L L L L L L q         &.&.&.",
"&.&.&.&.      $ %.%.%.o.L L L l w w w B L L L L L L ) %.%.%.%.%.%.%.%.%.%.%.L L L L L L L l w w w v L L L L L L q         &.&.&.",
"&.&.&.&.      $ %.%.%.o.L L L l w w w B L L L L L L ) %.%.%.%.%.%.%.%.%.%.%.L L L L L L L l w w w v L L L L L L q         &.&.&.",
"&.&.&.&.> , , 1 +.+.+.] v v v l s s s Z L L L ) ) ) ` | | | | | | | | | | | n n n m L L L v s s s K ) ) ) L L L j - - - * &.&.&.",
"        ..%.%.$.( ( ( J w w w l L L L L L L L %.%.%.| g g g g g g g g g g g u u u d L L L L L L L o.%.%.%.L L L L L L L 6       ",
"        ..%.%.$.( ( ( J w w w l L L L L L L L %.%.%.| g g g g g g g g g g g u u u d L L L L L L L o.%.%.%.L L L L L L L 6       ",
"        ..%.%.$.( ( ( J w w w l L L L L L L L %.%.%.| g g g g g g g g g g g u u u d L L L L L L L o.%.%.%.L L L L L L L 6       ",
"        ..%.%.#.T T T M w w w l L L L L L L L %.%.%.| g g g g g g g g g g g u u u d L L L L L L L o.%.%.%.L L L F h h h 5       ",
"        ..%.%.@.L L L v w w w l L L L L L L L %.%.%.| g g g g g g g g g g g u u u d L L L L L L L o.%.%.%.L L L D p p p 4       ",
"        ..%.%.@.L L L v w w w l L L L L L L L %.%.%.| g g g g g g g g g g g u u u d L L L L L L L o.%.%.%.L L L D p p p 4       ",
"        ..%.%.@.L L L v w w w l L L L L L L L %.%.%.| g g g g g g g g g g g u u u d L L L L L L L o.%.%.%.L L L D p p p 4       ",
"        ..%.%.@.L L L v w w w l L L L L L L L %.%.%.| g g g g g g g g g g g u u u d L L L L L L L o.%.%.%.L L L D p p p 4       ",
"        ..%.%.@.L L L v w w w l L L L L L L L %.%.%.| g g g g g g g g g g g u u u d L L L L L L L o.%.%.%.L L L D p p p 4       ",
"        ..%.%.@.L L L v w w w l L L L L L L L %.%.%.| g g g g g g g g g g g u u u d L L L L L L L o.%.%.%.L L L D p p p 4       ",
"        ..%.%.@.L L L v w w w l L L L L L L L %.%.%.| g g g g g g g g g g g u u u d L L L L L L L o.%.%.%.L L L D p p p 4       ",
"        ..%.%.@.L L L v w w w l L L L L L L L %.%.%.| g g g g g g g g g g g u u u d L L L L L L L o.%.%.%.L L L D p p p 4       ",
"        ..%.%.@.L L L v w w w l L L L L L L L %.%.%.| g g g g g g g g g g g u u u d L L L L L L L o.%.%.%.L L L D p p p 4       ",
"        ..%.%.@.L L L v w w w l L L L L L L L %.%.%.| g g g g g g g g g g g u u u d L L L L L L L o.%.%.%.L L L D p p p 4       ",
"        ..%.%.@.L L L v w w w l L L L L L L L %.%.%.| g g g g g g g g g g g u u u d L L L L L L L o.%.%.%.L L L D p p p 4       ",
"        ..%.%.@.L L L v w w w l L L L L L L L %.%.%.| g g g g g g g g g g g u u u d L L L L L L L o.%.%.%.L L L D p p p 4       ",
"        ..%.%.@.L L L v w w w l L L L L L L L %.%.%.| g g g g g g g g g g g u u u d L L L L L L L o.%.%.%.L L L D p p p 4       ",
"        ..%.%.@.L L L v w w w l L L L L L L L %.%.%.| g g g g g g g g g g g u u u d L L L L L L L o.%.%.%.L L L D p p p 4       ",
"&.&.&.&.> , , < H H H N v v v l s s s Z L L L ) ) ) Y i i i i i i i i i i i n n n m L L L ) o.o.o.' ) ) ) h h h e = = = % &.&.&.",
"&.&.&.&.      O A A A H L L L l w w w B L L L L L L n u u u u u u u u u u u L L L L L L L { %.%.%.) L L L p p p 9         &.&.&.",
"&.&.&.&.      O A A A H L L L l w w w B L L L L L L n u u u u u u u u u u u L L L L L L L { %.%.%.) L L L p p p 9         &.&.&.",
"&.&.&.&.      O A A A H L L L l w w w B L L L L L L n u u u u u u u u u u u L L L L L L L { %.%.%.) L L L p p p 9         &.&.&.",
"&.&.&.&.      O L L L L L L L S B B B a y y y L L L G C C C C C C C C C C C L L L R @.@.@.{ W W W I L L L p p p 9         &.&.&.",
"&.&.&.&.      + L L L L L L L L L L L y w w w L L L L L L L L L L L L L L L L L L W %.%.%.{ L L L L L L L p p p 9         &.&.&.",
"&.&.&.&.      + L L L L L L L L L L L y w w w L L L L L L L L L L L L L L L L L L W %.%.%.{ L L L L L L L p p p 9         &.&.&.",
"&.&.&.&.      + L L L L L L L L L L L y w w w L L L L L L L L L L L L L L L L L L W %.%.%.{ L L L L L L L p p p 9         &.&.&.",
"&.&.&.&.&.&.&.&.      - L L L L L L L L L L L %.%.%.%.%.%.%.%.%.%.%.%.%.%.%.%.%.%.@.L L L L L L L h p p p         &.&.&.&.&.&.&.",
"&.&.&.&.&.&.&.&.      - L L L L L L L L L L L %.%.%.%.%.%.%.%.%.%.%.%.%.%.%.%.%.%.@.L L L L L L L h p p p         &.&.&.&.&.&.&.",
"&.&.&.&.&.&.&.&.      - L L L L L L L L L L L %.%.%.%.%.%.%.%.%.%.%.%.%.%.%.%.%.%.@.L L L L L L L h p p p         &.&.&.&.&.&.&.",
"&.&.&.&.&.&.&.&.      * 6 6 6 q L L L L L L L o.o.o.o.o.o.o.o.o.o.o.o.o.o.o.o.o.o.} b b b b b b b 7 4 4 4         &.&.&.&.&.&.&.",
"&.&.&.&.&.&.&.&.&.&.&.&.      2 L L L L L L L L L L L L L L L L L L L L L L L L L D p p p p p p p =       &.&.&.&.&.&.&.&.&.&.&.",
"&.&.&.&.&.&.&.&.&.&.&.&.      2 L L L L L L L L L L L L L L L L L L L L L L L L L D p p p p p p p =       &.&.&.&.&.&.&.&.&.&.&.",
"&.&.&.&.&.&.&.&.&.&.&.&.      2 L L L L L L L L L L L L L L L L L L L L L L L L L D p p p p p p p =       &.&.&.&.&.&.&.&.&.&.&.",
"&.&.&.&.&.&.&.&.&.&.&.&.      - 2 2 2 2 2 2 2 c c c c c c c c c c c c c c c x x x r ; ; ; ; ; ; ; @       &.&.&.&.&.&.&.&.&.&.&.",
"&.&.&.&.&.&.&.&.&.&.&.&.&.&.&.                p p p p p p p p p p p p p p p t t t 8               &.&.&.&.&.&.&.&.&.&.&.&.&.&.&.",
"&.&.&.&.&.&.&.&.&.&.&.&.&.&.&.                p p p p p p p p p p p p p p p t t t 8               &.&.&.&.&.&.&.&.&.&.&.&.&.&.&.",
"&.&.&.&.&.&.&.&.&.&.&.&.&.&.&.                p p p p p p p p p p p p p p p t t t 8               &.&.&.&.&.&.&.&.&.&.&.&.&.&.&.",
"&.&.&.&.&.&.&.&.&.&.&.&.&.&.&.&.&.&.&.&.&.&.&.o o o o o o o o o o o o o o o X X X . &.&.&.&.&.&.&.&.&.&.&.&.&.&.&.&.&.&.&.&.&.&.",
"&.&.&.&.&.&.&.&.&.&.&.&.&.&.&.&.&.&.&.&.&.&.&.                                      &.&.&.&.&.&.&.&.&.&.&.&.&.&.&.&.&.&.&.&.&.&.",
"&.&.&.&.&.&.&.&.&.&.&.&.&.&.&.&.&.&.&.&.&.&.&.                                      &.&.&.&.&.&.&.&.&.&.&.&.&.&.&.&.&.&.&.&.&.&.",
"&.&.&.&.&.&.&.&.&.&.&.&.&.&.&.&.&.&.&.&.&.&.&.                                      &.&.&.&.&.&.&.&.&.&.&.&.&.&.&.&.&.&.&.&.&.&."
};
