/* XPM */
static char *b437ea8d005a47298fb73eb4ece20f8fWH9ZwnnyAIMkbwEV[] = {
/* columns rows colors chars-per-pixel */
"64 64 4 1 ",
"  c None",
". c #202020",
"X c #E45810",
"o c #F4D4B4",
/* pixels */
"                        XXXXXXXXXXXXXXXX                        ",
"                        XXXXXXXXXXXXXXXX                        ",
"                        XXXXXXXXXXXXXXXX                        ",
"                        XXXXXXXXXXXXXXXX                        ",
"                    XXXXXXXXXXXXXXXXXXXXXXXX                    ",
"                    XXXXXXXXXXXXXXXXXXXXXXXX                    ",
"                    XXXXXXXXXXXXXXXXXXXXXXXX                    ",
"                    XXXXXXXXXXXXXXXXXXXXXXXX                    ",
"                XXXXXXXXXXXXXXXXXXXXXXXXXXXXXXXX                ",
"                XXXXXXXXXXXXXXXXXXXXXXXXXXXXXXXX                ",
"                XXXXXXXXXXXXXXXXXXXXXXXXXXXXXXXX                ",
"                XXXXXXXXXXXXXXXXXXXXXXXXXXXXXXXX                ",
"            XXXXXXXXXXXXXXXXXXXXXXXXXXXXXXXXXXXXXXXX            ",
"            XXXXXXXXXXXXXXXXXXXXXXXXXXXXXXXXXXXXXXXX            ",
"            XXXXXXXXXXXXXXXXXXXXXXXXXXXXXXXXXXXXXXXX            ",
"            XXXXXXXXXXXXXXXXXXXXXXXXXXXXXXXXXXXXXXXX            ",
"        XXXX........XXXXXXXXXXXXXXXXXXXXXXXX........XXXX        ",
"        XXXX........XXXXXXXXXXXXXXXXXXXXXXXX........XXXX        ",
"        XXXX........XXXXXXXXXXXXXXXXXXXXXXXX........XXXX        ",
"        XXXX........XXXXXXXXXXXXXXXXXXXXXXXX........XXXX        ",
"    XXXXXXXXXXXXoooo....XXXXXXXXXXXXXXXX....ooooXXXXXXXXXXXX    ",
"    XXXXXXXXXXXXoooo....XXXXXXXXXXXXXXXX....ooooXXXXXXXXXXXX    ",
"    XXXXXXXXXXXXoooo....XXXXXXXXXXXXXXXX....ooooXXXXXXXXXXXX    ",
"    XXXXXXXXXXXXoooo....XXXXXXXXXXXXXXXX....ooooXXXXXXXXXXXX    ",
"    XXXXXXXXXXXXoooo........................ooooXXXXXXXXXXXX    ",
"    XXXXXXXXXXXXoooo........................ooooXXXXXXXXXXXX    ",
"    XXXXXXXXXXXXoooo........................ooooXXXXXXXXXXXX    ",
"    XXXXXXXXXXXXoooo........................ooooXXXXXXXXXXXX    ",
"XXXXXXXXXXXXXXXXoooo....ooooXXXXXXXXoooo....ooooXXXXXXXXXXXXXXXX",
"XXXXXXXXXXXXXXXXoooo....ooooXXXXXXXXoooo....ooooXXXXXXXXXXXXXXXX",
"XXXXXXXXXXXXXXXXoooo....ooooXXXXXXXXoooo....ooooXXXXXXXXXXXXXXXX",
"XXXXXXXXXXXXXXXXoooo....ooooXXXXXXXXoooo....ooooXXXXXXXXXXXXXXXX",
"XXXXXXXXXXXXXXXXooooooooooooXXXXXXXXooooooooooooXXXXXXXXXXXXXXXX",
"XXXXXXXXXXXXXXXXooooooooooooXXXXXXXXooooooooooooXXXXXXXXXXXXXXXX",
"XXXXXXXXXXXXXXXXooooooooooooXXXXXXXXooooooooooooXXXXXXXXXXXXXXXX",
"XXXXXXXXXXXXXXXXooooooooooooXXXXXXXXooooooooooooXXXXXXXXXXXXXXXX",
"XXXXXXXXXXXXXXXXXXXXXXXXXXXXXXXXXXXXXXXXXXXXXXXXXXXXXXXXXXXXXXXX",
"XXXXXXXXXXXXXXXXXXXXXXXXXXXXXXXXXXXXXXXXXXXXXXXXXXXXXXXXXXXXXXXX",
"XXXXXXXXXXXXXXXXXXXXXXXXXXXXXXXXXXXXXXXXXXXXXXXXXXXXXXXXXXXXXXXX",
"XXXXXXXXXXXXXXXXXXXXXXXXXXXXXXXXXXXXXXXXXXXXXXXXXXXXXXXXXXXXXXXX",
"    XXXXXXXXXXXXXXXXooooooooooooooooooooooooXXXXXXXXXXXXXXXX    ",
"    XXXXXXXXXXXXXXXXooooooooooooooooooooooooXXXXXXXXXXXXXXXX    ",
"    XXXXXXXXXXXXXXXXooooooooooooooooooooooooXXXXXXXXXXXXXXXX    ",
"    XXXXXXXXXXXXXXXXooooooooooooooooooooooooXXXXXXXXXXXXXXXX    ",
"                oooooooooooooooooooooooooooooooo                ",
"                oooooooooooooooooooooooooooooooo                ",
"                oooooooooooooooooooooooooooooooo                ",
"                oooooooooooooooooooooooooooooooo                ",
"                oooooooooooooooooooooooooooooooo........        ",
"                oooooooooooooooooooooooooooooooo........        ",
"                oooooooooooooooooooooooooooooooo........        ",
"                oooooooooooooooooooooooooooooooo........        ",
"            ........oooooooooooooooooooo....................    ",
"            ........oooooooooooooooooooo....................    ",
"            ........oooooooooooooooooooo....................    ",
"            ........oooooooooooooooooooo....................    ",
"            ............oooooooooooo........................    ",
"            ............oooooooooooo........................    ",
"            ............oooooooooooo........................    ",
"            ............oooooooooooo........................    ",
"                ............        ....................        ",
"                ............        ....................        ",
"                ............        ....................        ",
"                ............        ....................        "
};
