/* XPM */
static char *_897c7dbd0ed492bc6ee6c6a8866c2beEPXWoMuEs1wwCHer[] = {
/* columns rows colors chars-per-pixel */
"64 64 7 1 ",
"  c white",
". c #FC9838",
"X c #D82800",
"o c gray99",
"O c #C84C0C",
"+ c #FCBCB0",
"@ c black",
/* pixels */
"                          .                                     ",
"                          .                                     ",
"                          Xooooooooo                            ",
"                          XooooXoooo                            ",
"                          XooXXXXXoo                            ",
"                          XoooXXXooo                            ",
"                          XoooXoXXoo                            ",
"                          Xooooooooo                            ",
"                          X                                     ",
"                          X                                     ",
"             OO+      OOOOOO+     +OOOOOO+     +OOO             ",
"             OO+      OOOOOO+     +OOOOOO+     +OOO             ",
"             OO+      OOOOOO+     +OOOOOO+     +OOO             ",
"             OO+      OOOOOO+     +OOOOOO+     +OOO             ",
"             @@+++++++@@@@@@+++++++@@@@@@+++++++@@@             ",
"             OOOOO@OOOOOO@OOOOO@OOOOOOOOOOOO@OOOOO@             ",
"             OOOOO@OOOOOO@OOOOO@OOOOOOOOOOOO@OOOOO@             ",
"             @@@@@@@@@@@@@@@@@@@@@@@@@@@@@@@@@@@@@@             ",
"             OO@OOOOOOOOOOOO@OOOOO@OOOOOO@OOOOO@OOO             ",
"             OO@OOOOOOOOOOOO@OOOOO@OOOOOO@OOOOO@OOO             ",
"             OOOOO@@@@@@@@OOOOO@OOOOOO@@@@@@@OOOOO@             ",
"             OOOOO@@@@@@@@OOOOO@OOOOOO@@@@@@@OOOOO@             ",
"             @@@@@@@@@@@@@@@@@@@@@@@@@@@@@@@@@@@@@@             ",
"             OO@OOO@@@@@@@OO@OOOOO@OOO@@@@@@@OO@OOO             ",
"             OO@OOO@@@@@@@OO@OOOOO@OOO@@@@@@@OO@OOO             ",
"             @@@@@@@@@@@@@@@@@@@@@@@@@@@@@@@@@@@@@@             ",
"             OOOOO@@@@@@@@OOOOO@OOOOOO@@@@@@@OOOOO@             ",
"             OOOOO@@@@@@@@OOOOO@OOOOOO@@@@@@@OOOOO@             ",
"             @@@@@@@@@@@@@@@@@@@@@@@@@@@@@@@@@@@@@@             ",
"             OO@OOO@@@@@@@OO@OOOOO@OOO@@@@@@@OO@OOO             ",
"             OO@OOO@@@@@@@OO@OOOOO@OOO@@@@@@@OO@OOO             ",
"+++      +++++++OO@OOO+++++++OO@OO++++++++OO@OO+++++++      ++++",
"OO+      +OOOOO+OO@OOOOOOOOO+OO@OO+OOOOOO+OO@OO+OOOOOO      +OOO",
"OO+      +OOOOO+@@@@@@OOOOOO+@@@@@+OOOOOO+@@@@@+OOOOOO      +OOO",
"OO+      +OOOOO+OOOOOOOOOOOO+OOOOO+OOOOOO+OOOOO+OOOOOO      +OOO",
"OO+      +OOOOO+OOOOOOOOOOOO+OOOOO+OOOOOO+OOOOO+OOOOOO      +OOO",
"@@++++++++@@@@@+++++++@@@@@@+++++++@@@@@@+++++++@@@@@@+++++++@@@",
"OOOOOOOOOOOO@OOOOO@OOOOOO@OOOOO@OOOOOOOOOOOO@OOOOO@OOOOOO@OOOOO@",
"OOOOOOOOOOOO@OOOOO@OOOOOO@OOOOO@OOOOOOOOOOOO@OOOOO@OOOOOO@OOOOO@",
"OO@OOOOOO@OOOOO@OOOOOOOOOOOO@OOOOO@OOOOOO@OOOOO@OOOOOOOOOOOO@OOO",
"OO@OOOOOO@OOOOO@OOOOOOOOOOOO@OOOOO@OOOOOO@OOOOO@OOOOOOOOOOOO@OOO",
"OO@OOOOOO@OOOOO@OOOOOOOOOOOO@OOOOO@OOOOOO@OOOOO@OOOOOOOOOOOO@OOO",
"OOOOOOOOOOOO@OOOOO@OOOOOO@OOOO@@@@OOOOOOOOOO@OOOOO@OOOOOO@OOOOO@",
"OOOOOOOOOOOO@OOOOO@OOOOOO@OO@@@@@@@@OOOOOOOO@OOOOO@OOOOOO@OOOOO@",
"@@@@@@@@@@@@@@@@@@@@@@@@@@@@@@@@@@@@@@@@@@@@@@@@@@@@@@@@@@@@@@@@",
"OO@OOOOOO@OOOOO@OOOOOOOOOO@@@@@@@@@@@@OOO@OOOOO@OOOOOOOOOOOO@OOO",
"OO@OOOOOO@OOOOO@OOOOOOOOOO@@@@@@@@@@@@OOO@OOOOO@OOOOOOOOOOOO@OOO",
"@@@@@@@@@@@@@@@@@@@@@@@@@@@@@@@@@@@@@@@@@@@@@@@@@@@@@@@@@@@@@@@@",
"OOOOOOOOOOOO@OOOOO@OOOOOO@@@@@@@@@@@@@OOOOOO@OOOOO@OOOOOO@OOOOO@",
"OOOOOOOOOOOO@OOOOO@OOOOOO@@@@@@@@@@@@@OOOOOO@OOOOO@OOOOOO@OOOOO@",
"OO@OOOOOO@OOOOO@OOOOOOOOOO@@@@@@@@@@@@OOO@OOOOO@OOOOOOOOOOOO@OOO",
"OO@OOOOOO@OOOOO@OOOOOOOOOO@@@@@@@@@@@@OOO@OOOOO@OOOOOOOOOOOO@OOO",
"@@@@@@@@@@@@@@@@@@@@@@@@@@@@@@@@@@@@@@@@@@@@@@@@@@@@@@@@@@@@@@@@",
"OOOOOOOOOOOO@OOOOO@OOOOOO@@@@@@@@@@@@@OOOOOO@OOOOO@OOOOOO@OOOOO@",
"OOOOOOOOOOOO@OOOOO@OOOOOO@@@@@@@@@@@@@OOOOOO@OOOOO@OOOOOO@OOOOO@",
"@@@@@@@@@@@@@@@@@@@@@@@@@@@@@@@@@@@@@@@@@@@@@@@@@@@@@@@@@@@@@@@@",
"OO@OOOOOO@OOOOO@OOOOOOOOOO@@@@@@@@@@@@OOO@OOOOO@OOOOOOOOOOOO@OOO",
"OO@OOOOOO@OOOOO@OOOOOOOOOO@@@@@@@@@@@@OOO@OOOOO@OOOOOOOOOOOO@OOO",
"@@@@@@@@@@@@@@@@@@@@@@@@@@@@@@@@@@@@@@@@@@@@@@@@@@@@@@@@@@@@@@@@",
"OOOOOOOOOOOO@OOOOO@OOOOOO@@@@@@@@@@@@@OOOOOO@OOOOO@OOOOOO@OOOOO@",
"OOOOOOOOOOOO@OOOOO@OOOOOO@@@@@@@@@@@@@OOOOOO@OOOOO@OOOOOO@OOOOO@",
"OO@OOOOOO@OOOOO@OOOOOOOOOO@@@@@@@@@@@@OOO@OOOOO@OOOOOOOOOOOO@OOO",
"OO@OOOOOO@OOOOO@OOOOOOOOOO@@@@@@@@@@@@OOO@OOOOO@OOOOOOOOOOOO@OOO",
"@@@@@@@@@@@@@@@@@@@@@@@@@@@@@@@@@@@@@@@@@@@@@@@@@@@@@@@@@@@@@@@@"
};
