/* XPM */
static char *result[] = {
/* columns rows colors chars-per-pixel */
"64 64 14 1 ",
"  c white",
". c #580505",
"X c #F22B5F",
"o c #FFC260",
"O c #A93050",
"+ c #BF773E",
"@ c black",
"# c #E56C52",
"$ c #F6BFA1",
"% c #805819",
"& c #26307C",
"* c #176576",
"= c #52BDAF",
"- c #FFBF58",
/* pixels */
"                             ..............                     ",
"                             ..............                     ",
"                             ..............                     ",
"                        .....XXXXXXoooXXXXX...                  ",
"                        .....XXXXXXoooXXXXX...                  ",
"                     ...XXXXXOOO+++ooo  OOO...                  ",
"                     ...XXXXXOOO+++ooo  OOO...                  ",
"                  ...XXXOOOOO@@@@@@@@@@@@@@@@@@@@               ",
"                  ...XXXOOOOO@@@@@@@@@@@@@@@@@@@@               ",
"               ...XXXOOO@@@@@@@@@@@@@@@@@@@@@@@@@@@@            ",
"               ...XXXOOO@@@@@@@@@@@@@@@@@@@@@@@@@@@@            ",
"               ...XXXOOO@@@@@@@@@@@@@@@@@@@@@@@@@@@@            ",
"            ...OOOOOO@@@@@@@@@@@@@@@@@@@@@@@@@@@@@@@            ",
"            ...OOOOOO@@@@@@@@@@@@@@@@@@@@@@@@@@@@@@@            ",
"            ...OOOOOO@@@@@###      ###     @@@@@@               ",
"            ...OOOOOO@@@@@###      ###     @@@@@@               ",
"            ###$$$@@@@@@#####   @@@$$$@@   @@@                  ",
"            ###$$$@@@@@@#####   @@@$$$@@   @@@                  ",
"            ###$$$@@@@@@#####   @@@$$$@@   @@@                  ",
"            %%%$$$@@@@@@##$$$   @@@$$$@@   $$$%%%               ",
"            %%%$$$@@@@@@##$$$   @@@$$$@@   $$$%%%               ",
"            %%%###@@@@@@@@$$$$$$######$$$$$$$$%%%               ",
"            %%%###@@@@@@@@$$$$$$######$$$$$$$$%%%               ",
"            #########@@@$$$$$@@@%%%###########%%%               ",
"            #########@@@$$$$$@@@%%%###########%%%               ",
"            @@@@@@########@@@@@@@@@@@@@@@@@@@@@@@@@@            ",
"            @@@@@@########@@@@@@@@@@@@@@@@@@@@@@@@@@            ",
"               @@@@@@#####$$$$$$@@@@@@@@@@@@@@@@@               ",
"               @@@@@@#####$$$$$$@@@@@@@@@@@@@@@@@               ",
"               @@@@@@#####$$$$$$@@@@@@@@@@@@@@@@@               ",
"                  @@@######################%%%                  ",
"                  @@@######################%%%                  ",
"                     @@@OOOOO......%%%%%%%%                     ",
"                     @@@OOOOO......%%%%%%%%                     ",
"                  ...XXXXX...OOO%%%        %%%                  ",
"                  ...XXXXX...OOO%%%        %%%                  ",
"               ...OOOXXXXXXXX%%%              %%%               ",
"               ...OOOXXXXXXXX%%%              %%%               ",
"               ...OOOXXXXXXXX%%%              %%%               ",
"               ...OOOOOOXXXXX%%%              %%%               ",
"               ...OOOOOOXXXXX%%%              %%%               ",
"               &&&...OOOOOXXXXXX%%%        %%%                  ",
"               &&&...OOOOOXXXXXX%%%        %%%                  ",
"               &&&&&&...OOOOO......%%%%%%%%                     ",
"               &&&&&&...OOOOO......%%%%%%%%                     ",
"               &&&***&&&........========***&&&                  ",
"               &&&***&&&........========***&&&                  ",
"               &&&***&&&........========***&&&                  ",
"               &&&********==============***&&&                  ",
"               &&&********==============***&&&                  ",
"                  &&&********======&&&**&&&                     ",
"                  &&&********======&&&**&&&                     ",
"                  &&&**************&&&**&&&                     ",
"                  &&&**************&&&**&&&                     ",
"                  &&&**************&&&**&&&                     ",
"                     &&&&&&&&&&&&&&&&&&&                        ",
"                     &&&&&&&&&&&&&&&&&&&                        ",
"                     %%%%%%%%%%%%%%@@@%%@@@                     ",
"                     %%%%%%%%%%%%%%@@@%%@@@                     ",
"                     @@@%%%%%%%%%%%---@@---@@@                  ",
"                     @@@%%%%%%%%%%%---@@---@@@                  ",
"                     @@@@@@@@@@@@@@@@@@@@@@@@@                  ",
"                     @@@@@@@@@@@@@@@@@@@@@@@@@                  ",
"                     @@@@@@@@@@@@@@@@@@@@@@@@@                  "
};
