/* XPM */
static char *result[] = {
/* columns rows colors chars-per-pixel */
"64 64 173 2 ",
"   c black",
".  c #0B0705",
"X  c #140505",
"o  c #1B1205",
"O  c #1D160A",
"+  c #27190D",
"@  c #220A10",
"#  c #2E1610",
"$  c #281E12",
"%  c #291A1E",
"&  c #33230A",
"*  c #2C2510",
"=  c #332612",
"-  c #312620",
";  c #332C20",
":  c gray20",
">  c #580505",
",  c #5E080B",
"<  c #47161C",
"1  c #601609",
"2  c #680E14",
"3  c #770D17",
"4  c #781917",
"5  c #49231A",
"6  c #6E2216",
"7  c #6B2A15",
"8  c #782819",
"9  c #441320",
"0  c #521931",
"q  c #781623",
"w  c #651D30",
"e  c #572A27",
"r  c #5C2B21",
"t  c #522322",
"y  c #483720",
"u  c #503D23",
"i  c #55342A",
"p  c #7B2D26",
"a  c #50451D",
"s  c #6F4715",
"d  c #6A4D2E",
"f  c #785B35",
"g  c #7A493A",
"h  c #7E6533",
"j  c #3A1F4C",
"k  c #372855",
"l  c #1E2663",
"z  c #302764",
"x  c #383868",
"c  c #333467",
"v  c #26307C",
"b  c #233B7B",
"n  c #292D65",
"m  c #1B5777",
"M  c #20457A",
"N  c #234670",
"B  c #176576",
"V  c #20737F",
"C  c #594C46",
"Z  c #624C40",
"A  c #765F54",
"S  c #416051",
"D  c #4F755E",
"F  c #464575",
"G  c #4A4B73",
"H  c #5E5E6E",
"J  c #665C6B",
"K  c #55756C",
"L  c #72666A",
"P  c #831728",
"I  c #891F32",
"U  c #97162B",
"Y  c #B41C3B",
"T  c #832421",
"R  c #972B37",
"E  c #805819",
"W  c #854026",
"Q  c #974F27",
"!  c #90482F",
"~  c #945C24",
"^  c #894131",
"/  c #965633",
"(  c #8E6526",
")  c #87633A",
"_  c #9C7233",
"`  c #996D26",
"'  c #A96434",
"]  c #BF773E",
"[  c #A5793A",
"{  c #B81F40",
"}  c #872640",
"|  c #992741",
" . c #922340",
".. c #B82F53",
"X. c #B42F52",
"o. c #A93050",
"O. c #C6244C",
"+. c #D3234D",
"@. c #C62E56",
"#. c #CF2652",
"$. c #D42D58",
"%. c #E42C5C",
"&. c #F22B5F",
"*. c #B75642",
"=. c #997947",
"-. c #987443",
";. c #A07A46",
":. c #A07D48",
">. c #B27B47",
",. c #B57640",
"<. c #B4705B",
"1. c #876E66",
"2. c #947361",
"3. c #8D7765",
"4. c #A67B68",
"5. c #C95743",
"6. c #F5495F",
"7. c #D4674A",
"8. c #D97E54",
"9. c #CA6C4D",
"0. c #E56C52",
"q. c #E87D62",
"w. c #649573",
"e. c #B9894A",
"r. c #A9845E",
"t. c #AC8B5E",
"y. c #BC8C51",
"u. c #A8804A",
"i. c #C39843",
"p. c #CB9D57",
"a. c #C89858",
"s. c #C59D56",
"d. c #CC8645",
"f. c #CEA256",
"g. c #D1A655",
"h. c #D4AB54",
"j. c #D6B053",
"k. c #D9B552",
"l. c #DDBB51",
"z. c #FFBF58",
"x. c #DD997A",
"c. c #FA8660",
"v. c #EC8D72",
"b. c #EC8F73",
"n. c #E0C050",
"m. c #FFC260",
"M. c #237781",
"N. c #236880",
"B. c #2F888D",
"V. c #3A9A98",
"C. c #48A6A5",
"Z. c #52BDAF",
"A. c gray60",
"S. c #A98F80",
"D. c #ACA19B",
"F. c gray68",
"G. c #CB8396",
"H. c #EF9E81",
"J. c #E19381",
"K. c #DEAA86",
"L. c #EBA594",
"P. c #F3AE91",
"I. c #E6AC8A",
"U. c #CCBCA3",
"Y. c #F6BFA1",
"T. c #D6CAB5",
"R. c #FFDAA0",
"E. c #F8CBB2",
"W. c #E6DED1",
"Q. c #FAE3DC",
"!. c #FDF2EC",
"~. c white",
"^. c #FCECE6",
/* pixels */
"a.a.a.a.a.a.a.a.a.a.a.a.a.a.g.l.n.l.h.a.a.a.a.a.a.a.a.a.a.Q W W W W W W W W W W W W W e.l.n.n.j.a.a.a.a.a.a.a.a.a.a.a.a.a.a.a.a.",
"a.a.a.a.a.a.a.a.a.a.a.a.a.a.h.n.n.l.g.a.a.a.a.a.a.p.g.g.g.7 > > > > > > > > > > > > > e.l.n.l.j.a.a.a.a.a.a.p.g.h.g.f.a.a.a.a.a.",
"a.a.a.a.a.a.a.a.a.a.a.a.a.a.h.l.n.l.h.a.a.a.a.a.>.e.i.i.i.T 3 3 3 3 4 8 8 4 3 3 3 3 3 ' i.i.l.h.a.a.a.a.a.a.g.l.l.n.h.a.a.a.a.a.",
"a.a.a.a.a.a.a.a.a.a.a.a.a.a.h.n.n.l.g.a.a.a.a./ > > > > > +.&.&.&.&.6.m.m.c.&.&.&.&.&.3 > > n.j.a.a.a.a.a.a.f.l.n.n.h.a.a.a.a.a.",
"a.a.a.a.a.a.a.a.a.p.f.a.a.a.f.k.k.k.g.a.a.a.a./ > > > > > +.&.&.&.&.6.m.m.c.&.&.&.&.&.3 > > k.h.a.a.a.a.a.a.g.k.n.n.h.a.a.a.a.a.",
"a.a.a.a.a.a.a.a.p.h.k.p.a.a.p.p.p.p.a.a.>.> > U &.&.&.&.&...o.o.9.,.d.m.m.R.~.~.G.o.o.2 > > p.a.a.a.a.a.a.a.g.l.n.l.h.a.a.a.a.a.",
"a.a.a.a.a.a.a.a.f.k.k.f.a.a.a.a.a.a.a.a.>.> > U &.&.&.&.&...o.o.] ] d.m.m.R.~.~.G.o.o.2 > > a.a.a.a.a.a.a.a.p.h.h.j.g.a.a.a.a.a.",
"a.a.a.a.a.a.a.a.p.j.k.f.a.a.a.a.a.a.6 6 T +.+.@...........< @ @ + + $ = = = : : % @ @ X X X $ $ y a.a.a.a.a.a.a.a.a.a.a.a.a.a.a.",
"a.a.a.a.a.a.a.a.a.f.f.p.a.a.a.a.a.a.> > 3 &.&.$.o.o.o.o.o.@                                     $ a.a.a.a.a.a.a.a.a.a.a.a.a.a.a.",
"a.a.a.a.a.a.a.a.a.a.a.a.a.a.a./ W W Y Y { @.@. .9 9 9 9 9 .                                     . u u ) a.a.a.a.a.a.a.a.a.a.a.a.",
"a.a.a.a.a.a.a.a.a.a.a.a.a.a.a.6 > > &.&.%.o.o.w                                                       u a.a.a.a.a.a.a.a.a.a.a.a.",
"a.a.a.a.a.a.a.a.a.a.a.a.y.>.>.6 2 2 %.%.$.I } 0                                                       u a.a.a.a.a.a.a.a.a.a.a.a.",
"p.p.p.p.a.a.a.a.a.a.a.a.T > > | o.o.o.o.}                                                             u a.a.a.a.a.a.a.f.p.p.a.a.",
"k.k.k.g.a.a.a.a.a.a.a.s.! > > | o.o.o.o.}                                                             u a.a.a.a.a.a.g.k.k.j.g.a.",
"n.n.n.j.p.a.a.a.a.f.f.f.W > > | o.o.o.o.}           ^ 0.0.Q.~.~.~.~.Q.0.0.L.~.~.~.~.~.:         * a.a.a.a.a.a.a.a.a.h.n.l.l.g.a.",
"n.n.n.j.a.a.a.a.s.j.k.f.W > > | o.o.o.o.}           ^ 0.0.Q.~.~.~.~.Q.0.0.L.~.~.~.~.~.:         $ a.a.a.a.a.a.a.a.a.h.n.l.l.g.a.",
"n.n.n.j.a.a.a.a.p.k.k.f.9.5.5.b.L.L.@ @ X     5 *.*.7.0.0.Q.~.~.: : C P.P.4.: : F.~.~.:     ;.;.:.a.a.a.a.a.a.a.a.a.h.l.n.l.g.a.",
"l.l.k.h.a.a.a.a.p.k.k.f.8.0.0.P.Y.Y.          r 0.0.0.0.0.Q.~.~.    - Y.E.2.    A.~.~.:     a.a.a.a.a.a.a.a.p.p.p.a.g.l.l.k.f.a.",
"p.f.f.p.a.a.a.a.p.k.k.f.,.' ' I.Y.Y.          r 0.0.v.H.H.^.~.~.    - Y.Y.2.    A.~.~.S.2.2._ _ [ a.a.a.a.a.f.j.h.p.p.f.f.p.p.a.",
"a.a.a.a.a.a.a.a.p.g.h.p.[ E E K.Y.Y.          r 0.0.b.Y.E.^.~.~.    = Y.Y.2.    A.~.~.E.Y.Y.E E ( a.a.a.a.a.f.l.h.a.a.a.a.a.a.a.",
"a.a.a.a.a.a.a.a.a.a.a.a.[ E s x.P.P.          5 *.*.x.Y.E.Q.!.!.# # i P.P.4.= - D.!.!.E.Y.Y.E E ( a.a.a.a.a.f.l.j.p.a.a.a.a.a.a.",
"a.a.a.a.a.a.a.a.a.a.a.a._ E E 7.0.0.                2.Y.Y.Y.Y.Y.0.0.0.0.0.v.Y.Y.Y.Y.Y.Y.Y.Y.E E ( a.a.a.a.a.p.g.f.a.a.a.a.a.a.a.",
"a.a.a.a.a.a.a.a.a.a.a.p._ E E 7.0.0.                2.Y.Y.Y.Y.Y.0.0.0.0.0.v.Y.Y.Y.Y.Y.Y.Y.Y.E E ( a.a.a.a.a.a.a.a.a.a.a.a.a.a.a.",
"a.a.a.a.a.a.a.a.a.a.a.p.d.0.0.0.0.0.0.0.*.    Z Y.Y.Y.Y.Y.=     E E ~ 0.0.0.0.0.0.0.0.0.0.0.E E ( a.a.a.a.a.a.a.a.a.a.a.a.a.a.a.",
"a.a.a.a.a.a.a.a.a.a.a.a.8.0.0.0.0.0.0.0.*.    Z E.Y.Y.Y.Y.-     E E ~ 0.0.0.0.0.0.0.0.0.0.0.E E ( a.a.a.a.a.a.a.a.a.a.a.a.a.a.a.",
"a.a.a.a.a.a.a.a.a.a.a.a.d # # # # # 0.0.0.*.*.9.q.q.g = - .     o o O # # # # # # # # # # # o o O $ $ d a.a.a.a.a.a.a.a.a.a.a.a.",
"a.a.a.a.a.a.a.a.a.a.a.a.u           0.0.0.0.0.0.0.0.e                                                 u a.a.a.a.a.a.a.a.a.a.a.a.",
"a.a.a.a.a.a.a.a.a.a.a.a.-.f h O     r r p 0.0.0.0.0.<.2.2.2.2.2.                                O f f -.a.a.p.p.f.f.p.a.a.a.a.a.",
"a.a.a.a.a.a.a.a.a.a.a.a.a.a.h.*         # 0.0.0.0.0.H.E.Y.Y.Y.Y.                                $ a.a.a.a.a.f.k.l.l.h.a.a.a.a.a.",
"a.a.a.a.a.a.a.a.a.a.a.a.a.a.h.a * =     # 0.0.0.0.0.b.P.P.P.P.P.# # # # # # # # # # # O o o * * y a.a.a.a.a.g.l.n.l.h.a.a.a.a.a.",
"a.a.a.a.a.a.a.a.a.a.a.a.a.a.h.l.l.l.    # 0.0.0.0.0.0.0.0.0.0.0.0.0.0.0.0.0.0.0.0.0.0.~ E E l.h.a.a.a.a.a.a.f.l.n.n.h.a.a.a.a.a.",
"a.a.a.a.a.a.a.a.p.h.h.f.a.a.p.f.g.f.    # 0.0.0.0.0.0.0.0.0.0.0.0.0.0.0.0.0.0.0.0.0.0.~ E E f.p.a.a.a.a.a.a.g.l.n.n.h.a.a.a.a.a.",
"a.a.a.a.a.a.a.a.p.k.k.f.a.a.a.a.a.a.a.a.:.    9 o.o.o.o.o.2 > > > > 1 E E E E E E E E e.a.a.a.a.a.a.a.a.a.a.f.k.j.k.g.a.a.a.a.a.",
"a.a.a.a.a.a.a.a.p.k.k.p.a.a.a.a.a.a.a.a.:.    9 o.o.o.o.o.2 > > > > 1 E E E E E E E E e.a.a.a.a.a.a.a.a.a.a.a.a.a.p.a.a.a.a.a.a.",
"a.a.a.a.a.a.a.a.p.g.f.a.a.a.a.a.a.a.6 6 P O.O.#.%.%.U 2 2 I R R s s _ W.W.W.W.W.W.W.W.;.( ( a.a.a.a.a.a.a.a.a.a.a.a.a.a.a.a.a.a.",
"a.a.a.a.a.a.a.a.a.a.a.a.a.a.a.a.a.a.> > 3 &.&.&.&.&.U > > | o.o.E E =.~.~.~.~.~.~.~.~.=.E E a.a.a.a.a.a.a.a.a.a.a.a.a.a.a.a.a.a.",
"a.a.a.a.a.a.a.a.a.a.a.a.a.a.a./ W W I I R &.&.&.&.&.+.{ Y R Q Q U.U.T.~.~.~.~.~.~.~.~.T.U.U._ _ [ a.a.a.a.a.a.a.a.a.a.a.a.a.a.a.",
"a.a.a.a.a.a.a.a.a.a.a.a.a.a.a.6 > > o.o.X.&.&.&.&.&.&.&.&.Q h E ~.~.~.~.~.~.~.~.~.~.~.~.~.~.E E ( a.a.a.a.a.a.a.a.a.a.a.a.a.a.a.",
"a.a.a.a.a.a.a.a.a.a.a.a.a.a.a.6 > > o.o.X.%.%.%.&.&.&.&.&.Q E E ~.~.~.~.~.~.~.~.~.~.~.~.~.~.E E ( a.a.a.a.a.a.a.a.a.a.a.a.a.a.a.",
"j.j.j.f.p.a.a.a.a.a.a.a.a.a.a.6 > > o.o.o.o.o.@.&.&.&.&.&.Q E E ~.~.~.~.~.~.~.~.~.~.~.~.~.~.E E ( a.a.a.a.a.a.a.a.a.f.k.h.h.f.a.",
"l.l.n.k.p.a.a.a.a.p.p.p.a.a.a.6 > > o.o.o.o.o.@.&.&.&.&.&.~ E E ~.~.~.~.~.~.~.~.~.~.~.~.~.~.E E ( a.a.a.a.a.a.a.a.a.h.n.n.l.g.a.",
"n.n.l.j.a.a.a.a.p.j.j.p.a.a.a.F v v > > 2 o.o.o.o.o.$.&.&.&.&.&.E E -.~.~.~.~.~.~.~.~.=.E E a.a.a.a.a.a.a.a.a.a.a.a.h.n.n.l.g.a.",
"n.n.n.j.p.a.a.a.p.k.k.f.a.a.a.F v v > > 2 o.o.o.o.o.$.&.&.&.&.&.E E =.~.~.~.~.~.~.~.~.=.E E a.a.a.a.a.a.a.a.a.a.a.a.h.n.l.l.g.a.",
"n.n.n.j.a.a.a.a.p.k.k.f.a.a.a.F v v z z k 2 2 P o.o.X.....P 3 3 1 1 7 =.=.=.=.=.=.=.-.e.e.e.a.a.a.a.a.a.a.a.a.a.a.a.h.n.l.l.g.a.",
"g.g.g.f.a.a.a.a.p.k.k.p.a.a.a.F v v v v z > > q o.o.o.o.o.2 > > > > 1 E E E E E s E E e.a.a.a.a.a.a.a.a.a.a.f.h.h.a.p.g.h.g.p.a.",
"a.a.a.a.a.a.a.a.p.j.j.f.a.a.p.F v v m m N j k 0 q q q q q , > > K K K w.w.w.w.w.K S S J J J a.a.a.a.a.a.a.a.f.l.k.a.a.a.a.a.a.a.",
"a.a.a.a.a.a.a.a.a.p.p.a.a.a.g.G v v B B m v v j > > > > > > > > Z.Z.Z.Z.Z.Z.Z.Z.B.B B b v v p.a.a.a.a.a.a.a.g.l.h.a.a.a.a.a.a.a.",
"a.a.a.a.a.a.a.a.a.a.a.a.a.a.g.G v v B B m b b k < < t e e e e e Z.Z.Z.Z.Z.Z.Z.Z.B.B B M v v p.a.a.a.a.a.a.a.p.h.g.a.a.a.a.a.a.a.",
"a.a.a.a.a.a.a.a.a.a.a.a.a.a.g.G v v B B B B B B B B V.Z.Z.Z.Z.Z.Z.Z.Z.Z.Z.Z.Z.Z.B.B B b v v a.a.a.a.a.a.a.a.a.a.a.a.a.a.a.a.a.a.",
"a.a.a.a.a.a.a.a.a.a.a.a.a.a.p.F v v B B B B B B B B V.Z.Z.Z.Z.Z.Z.Z.Z.Z.Z.Z.Z.Z.B.B B b v v a.a.a.a.a.a.a.a.a.a.a.a.a.a.a.a.a.a.",
"a.a.a.a.a.a.a.a.a.a.a.a.a.a.p.a.a.a.v v b B B B B B B B B C.Z.Z.Z.Z.C.v v M B B M v v r.a.a.a.a.a.a.a.a.a.a.a.a.a.a.a.a.a.a.a.a.",
"a.a.a.a.a.a.a.a.a.a.a.a.a.a.a.a.a.a.v v b B B B B B B B B C.Z.Z.Z.Z.C.v v M B B M v v r.a.a.a.a.a.a.a.a.a.a.a.a.a.a.a.a.a.a.a.a.",
"a.a.a.a.a.a.a.a.a.a.a.a.a.a.f.g.h.h.v v b B B B B B B B B M.M.M.M.M.N.v v M B B M v v t.h.h.h.f.a.a.a.a.a.a.a.a.a.a.a.a.a.a.a.a.",
"a.a.a.a.a.a.a.a.a.a.a.a.a.a.h.l.n.n.v v b B B B B B B B B B B B B B m v v M B B M v v t.l.n.n.h.a.a.a.a.a.a.a.p.p.p.a.a.a.a.a.a.",
"a.a.a.a.a.a.a.a.a.a.a.a.a.a.h.l.n.l.3.1.L M M M M M M M M M M M M M b v v b M M H 1.1.s.k.n.n.h.a.a.a.a.a.a.p.h.j.k.g.a.a.a.a.a.",
"a.a.a.a.a.a.a.a.a.a.a.a.a.p.h.l.n.l.h.a.r.v v v v v v v v v v v v v v v v v v v 1.a.a.f.l.n.n.h.a.a.a.a.a.a.g.l.n.n.h.a.a.a.a.a.",
"a.a.a.a.a.a.a.a.a.a.a.a.a.a.g.l.n.l.h.a.r.x x x x x x x x x x x x x c l l n x x A ;.;.f.l.l.n.k.a.a.a.a.a.a.f.l.n.n.h.a.a.a.a.a.",
"a.a.a.a.a.a.a.a.p.g.g.p.a.a.f.h.g.h.p.a.e.E E E E E E E E E E E E E s     & E s &     ;.g.g.g.f.a.a.a.a.a.a.g.l.n.n.h.a.a.a.a.a.",
"a.a.a.a.a.a.a.a.p.k.k.f.a.a.a.a.a.a.a.a.e.E E E E E E E E E E E E E s     & E E &     =.p.a.a.a.a.a.a.a.a.a.f.k.l.l.g.a.a.a.a.a.",
"a.a.a.a.a.a.a.a.p.k.k.f.a.a.a.a.a.a.a.a.;.    & E E E E E E E E E E ` m.m._   . _ z.m.=     a.a.a.a.a.a.a.a.a.f.f.f.p.a.a.a.a.a.",
"a.a.a.a.a.a.a.a.p.g.h.p.a.a.a.a.a.a.a.a.u.    & E s ( E E E E E E E ` m.m._     _ m.z.=     a.a.a.a.a.a.a.a.a.a.a.a.a.a.a.a.a.a.",
"a.a.a.a.a.a.a.a.a.p.a.a.a.a.a.a.a.a.a.a.=.    . o o o o o o o o o o O = & O     O = & .     a.a.a.a.a.a.a.a.a.a.a.a.a.a.a.a.a.a.",
"a.a.a.a.a.a.a.a.a.a.a.a.a.a.a.a.a.a.a.a.=.                                                  a.a.a.a.a.a.a.a.a.a.a.a.a.a.a.a.a.a.",
"a.a.a.a.a.a.a.a.a.a.a.a.a.a.a.a.a.a.a.p.y.f f f f f f f f f f f f f f f f f f f f f f f f f a.a.a.a.a.a.a.a.a.a.a.a.a.a.a.a.a.a."
};
