/* XPM */
static char *result[] = {
/* columns rows colors chars-per-pixel */
"80 168 5 1 ",
"  c black",
". c #EDCD00",
"X c #FFE121",
"o c #FFF1AB",
"O c None",
/* pixels */
"OOOOOOOOOOOOOOOOOOOO                                        OOOOOOOOOOOOOOOOOOOO",
"OOOOOOOOOOOOOOOOOOOO                                        OOOOOOOOOOOOOOOOOOOO",
"OOOOOOOOOOOOOOOOOOOO                                        OOOOOOOOOOOOOOOOOOOO",
"OOOOOOOOOOOOOOOOOOOO                                        OOOOOOOOOOOOOOOOOOOO",
"OOOOOOOOOOOOOOOOOOOO                                        OOOOOOOOOOOOOOOOOOOO",
"OOOOOOOOOOOOOOOOOOOO                                        OOOOOOOOOOOOOOOOOOOO",
"OOOOOOOOOOOOOOOOOOOO                                        OOOOOOOOOOOOOOOOOOOO",
"OOOOOOOOOOOOOOOOOOOO                                        OOOOOOOOOOOOOOOOOOOO",
"OOOOOOOOOOOOOOOOOOOO                                        OOOOOOOOOOOOOOOOOOOO",
"OOOOOOOOOO          XXXXXXXXXXXXXXXXXXXXXXXXXXXXXXXXXXXXXXXX          OOOOOOOOOO",
"OOOOOOOOOO          XXXXXXXXXXXXXXXXXXXXXXXXXXXXXXXXXXXXXXXX          OOOOOOOOOO",
"OOOOOOOOOO          XXXXXXXXXXXXXXXXXXXXXXXXXXXXXXXXXXXXXXXX          OOOOOOOOOO",
"OOOOOOOOOO          XXXXXXXXXXXXXXXXXXXXXXXXXXXXXXXXXXXXXXXX          OOOOOOOOOO",
"OOOOOOOOOO          XXXXXXXXXXXXXXXXXXXXXXXXXXXXXXXXXXXXXXXX          OOOOOOOOOO",
"OOOOOOOOOO          XXXXXXXXXXXXXXXXXXXXXXXXXXXXXXXXXXXXXXXX          OOOOOOOOOO",
"OOOOOOOOOO          XXXXXXXXXXXXXXXXXXXXXXXXXXXXXXXXXXXXXXXX          OOOOOOOOOO",
"OOOOOOOOOO          XXXXXXXXXXXXXXXXXXXXXXXXXXXXXXXXXXXXXXXX          OOOOOOOOOO",
"OOOOOOOOOO          XXXXXXXXXXXXXXXXXXXXXXXXXXXXXXXXXXXXXXXX          OOOOOOOOOO",
"OOOOOOOOOO          XXXXXXXXXXXXXXXXXXXXXXXXXXXXXXXXXXXXXXXX          OOOOOOOOOO",
"OOOOOOOOOO          XXXXXXXXXXXXXXXXXXXX..........XXXXXXXXXX          OOOOOOOOOO",
"OOOOOOOOOO          XXXXXXXXXXXXXXXXXXXX..........XXXXXXXXXX          OOOOOOOOOO",
"OOOOOOOOOO          XXXXXXXXXXXXXXXXXXXX..........XXXXXXXXXX          OOOOOOOOOO",
"OOOOOOOOOO          XXXXXXXXXXXXXXXXXXXX..........XXXXXXXXXX          OOOOOOOOOO",
"OOOOOOOOOO          XXXXXXXXXXXXXXXXXXXX..........XXXXXXXXXX          OOOOOOOOOO",
"OOOOOOOOOO          XXXXXXXXXXXXXXXXXXXX..........XXXXXXXXXX          OOOOOOOOOO",
"OOOOOOOOOO          XXXXXXXXXXXXXXXXXXXX..........XXXXXXXXXX          OOOOOOOOOO",
"OOOOOOOOOO          XXXXXXXXXXXXXXXXXXXX..........XXXXXXXXXX          OOOOOOOOOO",
"OOOOOOOOOO          XXXXXXXXXXXXXXXXXXXX..........XXXXXXXXXX          OOOOOOOOOO",
"OOOOOOOOOO          XXXXXXXXXXXXXXXXXXXX..........XXXXXXXXXX          OOOOOOOOOO",
"          XXXXXXXXXXXXXXXXXXXXooooooooooXXXXXXXXXX..........XXXXXXXXXX          ",
"          XXXXXXXXXXXXXXXXXXXXooooooooooXXXXXXXXXX..........XXXXXXXXXX          ",
"          XXXXXXXXXXXXXXXXXXXXooooooooooXXXXXXXXXX..........XXXXXXXXXX          ",
"          XXXXXXXXXXXXXXXXXXXXooooooooooXXXXXXXXXX..........XXXXXXXXXX          ",
"          XXXXXXXXXXXXXXXXXXXXooooooooooXXXXXXXXXX..........XXXXXXXXXX          ",
"          XXXXXXXXXXXXXXXXXXXXooooooooooXXXXXXXXXX..........XXXXXXXXXX          ",
"          XXXXXXXXXXXXXXXXXXXXooooooooooXXXXXXXXXX..........XXXXXXXXXX          ",
"          XXXXXXXXXXXXXXXXXXXXooooooooooXXXXXXXXXX..........XXXXXXXXXX          ",
"          XXXXXXXXXXXXXXXXXXXXooooooooooXXXXXXXXXX..........XXXXXXXXXX          ",
"          XXXXXXXXXXXXXXXXXXXXooooooooooXXXXXXXXXX..........XXXXXXXXXX          ",
"          XXXXXXXXXXXXXXXXXXXXoooooooooooooooooooo..........XXXXXXXXXX          ",
"          XXXXXXXXXXXXXXXXXXXXoooooooooooooooooooo..........XXXXXXXXXX          ",
"          XXXXXXXXXXXXXXXXXXXXoooooooooooooooooooo..........XXXXXXXXXX          ",
"          XXXXXXXXXXXXXXXXXXXXoooooooooooooooooooo..........XXXXXXXXXX          ",
"          XXXXXXXXXXXXXXXXXXXXoooooooooooooooooooo..........XXXXXXXXXX          ",
"          XXXXXXXXXXXXXXXXXXXXoooooooooooooooooooo..........XXXXXXXXXX          ",
"          XXXXXXXXXXXXXXXXXXXXoooooooooooooooooooo..........XXXXXXXXXX          ",
"          XXXXXXXXXXXXXXXXXXXXoooooooooooooooooooo..........XXXXXXXXXX          ",
"          XXXXXXXXXXXXXXXXXXXXoooooooooooooooooooo..........XXXXXXXXXX          ",
"          XXXXXXXXXXXXXXXXXXXXoooooooooooooooooooo..........XXXXXXXXXX          ",
"          XXXXXXXXXXXXXXXXXXXXooooooooooXXXXXXXXXX..........XXXXXXXXXX          ",
"          XXXXXXXXXXXXXXXXXXXXooooooooooXXXXXXXXXX..........XXXXXXXXXX          ",
"          XXXXXXXXXXXXXXXXXXXXooooooooooXXXXXXXXXX..........XXXXXXXXXX          ",
"          XXXXXXXXXXXXXXXXXXXXooooooooooXXXXXXXXXX..........XXXXXXXXXX          ",
"          XXXXXXXXXXXXXXXXXXXXooooooooooXXXXXXXXXX..........XXXXXXXXXX          ",
"          XXXXXXXXXXXXXXXXXXXXooooooooooXXXXXXXXXX..........XXXXXXXXXX          ",
"          XXXXXXXXXXXXXXXXXXXXooooooooooXXXXXXXXXX..........XXXXXXXXXX          ",
"          XXXXXXXXXXXXXXXXXXXXooooooooooXXXXXXXXXX..........XXXXXXXXXX          ",
"          XXXXXXXXXXXXXXXXXXXXooooooooooXXXXXXXXXX..........XXXXXXXXXX          ",
"          XXXXXXXXXXXXXXXXXXXXooooooooooXXXXXXXXXX..........XXXXXXXXXX          ",
"          XXXXXXXXXXXXXXXXXXXXoooooooooooooooooooo..........XXXXXXXXXX          ",
"          XXXXXXXXXXXXXXXXXXXXoooooooooooooooooooo..........XXXXXXXXXX          ",
"          XXXXXXXXXXXXXXXXXXXXoooooooooooooooooooo..........XXXXXXXXXX          ",
"          XXXXXXXXXXXXXXXXXXXXoooooooooooooooooooo..........XXXXXXXXXX          ",
"          XXXXXXXXXXXXXXXXXXXXoooooooooooooooooooo..........XXXXXXXXXX          ",
"          XXXXXXXXXXXXXXXXXXXXoooooooooooooooooooo..........XXXXXXXXXX          ",
"          XXXXXXXXXXXXXXXXXXXXoooooooooooooooooooo..........XXXXXXXXXX          ",
"          XXXXXXXXXXXXXXXXXXXXoooooooooooooooooooo..........XXXXXXXXXX          ",
"          XXXXXXXXXXXXXXXXXXXXoooooooooooooooooooo..........XXXXXXXXXX          ",
"          XXXXXXXXXXXXXXXXXXXXoooooooooooooooooooo..........XXXXXXXXXX          ",
"          ....................ooooooooooXXXXXXXXXX..........XXXXXXXXXX          ",
"          ....................ooooooooooXXXXXXXXXX..........XXXXXXXXXX          ",
"          ....................ooooooooooXXXXXXXXXX..........XXXXXXXXXX          ",
"          ....................ooooooooooXXXXXXXXXX..........XXXXXXXXXX          ",
"          ....................ooooooooooXXXXXXXXXX..........XXXXXXXXXX          ",
"          ....................ooooooooooXXXXXXXXXX..........XXXXXXXXXX          ",
"          ....................ooooooooooXXXXXXXXXX..........XXXXXXXXXX          ",
"          ....................ooooooooooXXXXXXXXXX..........XXXXXXXXXX          ",
"          ....................ooooooooooXXXXXXXXXX..........XXXXXXXXXX          ",
"          ....................ooooooooooXXXXXXXXXX..........XXXXXXXXXX          ",
"          ....................ooooooooooXXXXXXXXXX..........XXXXXXXXXX          ",
"          ....................ooooooooooXXXXXXXXXX..........XXXXXXXXXX          ",
"          ....................ooooooooooXXXXXXXXXX..........XXXXXXXXXX          ",
"          ....................ooooooooooXXXXXXXXXX..........XXXXXXXXXX          ",
"          ....................ooooooooooXXXXXXXXXX..........XXXXXXXXXX          ",
"          ....................ooooooooooXXXXXXXXXX..........XXXXXXXXXX          ",
"          ....................ooooooooooXXXXXXXXXX..........XXXXXXXXXX          ",
"          ....................ooooooooooXXXXXXXXXX..........XXXXXXXXXX          ",
"          ....................ooooooooooXXXXXXXXXX..........XXXXXXXXXX          ",
"          ....................ooooooooooXXXXXXXXXX..........XXXXXXXXXX          ",
"          ....................ooooooooooXXXXXXXXXX..........XXXXXXXXXX          ",
"          ....................ooooooooooXXXXXXXXXX..........XXXXXXXXXX          ",
"          ....................ooooooooooXXXXXXXXXX..........XXXXXXXXXX          ",
"          ....................ooooooooooXXXXXXXXXX..........XXXXXXXXXX          ",
"          ....................ooooooooooXXXXXXXXXX..........XXXXXXXXXX          ",
"          ....................ooooooooooXXXXXXXXXX..........XXXXXXXXXX          ",
"          ....................ooooooooooXXXXXXXXXX..........XXXXXXXXXX          ",
"          ....................ooooooooooXXXXXXXXXX..........XXXXXXXXXX          ",
"          ....................ooooooooooXXXXXXXXXX..........XXXXXXXXXX          ",
"          ....................ooooooooooXXXXXXXXXX..........XXXXXXXXXX          ",
"          ....................ooooooooooXXXXXXXXXX..........XXXXXXXXXX          ",
"          ....................ooooooooooXXXXXXXXXX..........XXXXXXXXXX          ",
"          ....................ooooooooooXXXXXXXXXX..........XXXXXXXXXX          ",
"          ....................ooooooooooXXXXXXXXXX..........XXXXXXXXXX          ",
"          ....................ooooooooooXXXXXXXXXX..........XXXXXXXXXX          ",
"          ....................ooooooooooXXXXXXXXXX..........XXXXXXXXXX          ",
"          ....................ooooooooooXXXXXXXXXX..........XXXXXXXXXX          ",
"          ....................ooooooooooXXXXXXXXXX..........XXXXXXXXXX          ",
"          ....................ooooooooooXXXXXXXXXX..........XXXXXXXXXX          ",
"          ....................ooooooooooXXXXXXXXXX..........XXXXXXXXXX          ",
"          ....................oooooooooo....................XXXXXXXXXX          ",
"          ....................oooooooooo....................XXXXXXXXXX          ",
"          ....................oooooooooo....................XXXXXXXXXX          ",
"          ....................oooooooooo....................XXXXXXXXXX          ",
"          ....................oooooooooo....................XXXXXXXXXX          ",
"          ....................oooooooooo....................XXXXXXXXXX          ",
"          ....................oooooooooo....................XXXXXXXXXX          ",
"          ....................oooooooooo....................XXXXXXXXXX          ",
"          ....................oooooooooo....................XXXXXXXXXX          ",
"          ....................oooooooooo....................XXXXXXXXXX          ",
"          ....................oooooooooo....................XXXXXXXXXX          ",
"          ....................oooooooooo....................XXXXXXXXXX          ",
"          ....................oooooooooo....................XXXXXXXXXX          ",
"          ....................oooooooooo....................XXXXXXXXXX          ",
"          ....................oooooooooo....................XXXXXXXXXX          ",
"          ....................oooooooooo....................XXXXXXXXXX          ",
"          ....................oooooooooo....................XXXXXXXXXX          ",
"          ....................oooooooooo....................XXXXXXXXXX          ",
"          ....................oooooooooo....................XXXXXXXXXX          ",
"          ....................oooooooooo....................XXXXXXXXXX          ",
"          ....................oooooooooo....................XXXXXXXXXX          ",
"          ....................oooooooooo....................XXXXXXXXXX          ",
"          ....................oooooooooo....................XXXXXXXXXX          ",
"          ....................oooooooooo....................XXXXXXXXXX          ",
"          ....................oooooooooo....................XXXXXXXXXX          ",
"          ....................oooooooooo....................XXXXXXXXXX          ",
"          ....................oooooooooo....................XXXXXXXXXX          ",
"          ....................oooooooooo....................XXXXXXXXXX          ",
"          ....................oooooooooo....................XXXXXXXXXX          ",
"          ....................oooooooooo....................XXXXXXXXXX          ",
"OOOOOOOOOO          ....................ooooooooooXXXXXXXXXX          OOOOOOOOOO",
"OOOOOOOOOO          ....................ooooooooooXXXXXXXXXX          OOOOOOOOOO",
"OOOOOOOOOO          ....................ooooooooooXXXXXXXXXX          OOOOOOOOOO",
"OOOOOOOOOO          ....................ooooooooooXXXXXXXXXX          OOOOOOOOOO",
"OOOOOOOOOO          ....................ooooooooooXXXXXXXXXX          OOOOOOOOOO",
"OOOOOOOOOO          ....................ooooooooooXXXXXXXXXX          OOOOOOOOOO",
"OOOOOOOOOO          ....................ooooooooooXXXXXXXXXX          OOOOOOOOOO",
"OOOOOOOOOO          ....................ooooooooooXXXXXXXXXX          OOOOOOOOOO",
"OOOOOOOOOO          ....................ooooooooooXXXXXXXXXX          OOOOOOOOOO",
"OOOOOOOOOO          ....................ooooooooooXXXXXXXXXX          OOOOOOOOOO",
"OOOOOOOOOO          ....................XXXXXXXXXXXXXXXXXXXX          OOOOOOOOOO",
"OOOOOOOOOO          ....................XXXXXXXXXXXXXXXXXXXX          OOOOOOOOOO",
"OOOOOOOOOO          ....................XXXXXXXXXXXXXXXXXXXX          OOOOOOOOOO",
"OOOOOOOOOO          ....................XXXXXXXXXXXXXXXXXXXX          OOOOOOOOOO",
"OOOOOOOOOO          ....................XXXXXXXXXXXXXXXXXXXX          OOOOOOOOOO",
"OOOOOOOOOO          ....................XXXXXXXXXXXXXXXXXXXX          OOOOOOOOOO",
"OOOOOOOOOO          ....................XXXXXXXXXXXXXXXXXXXX          OOOOOOOOOO",
"OOOOOOOOOO          ....................XXXXXXXXXXXXXXXXXXXX          OOOOOOOOOO",
"OOOOOOOOOO          ....................XXXXXXXXXXXXXXXXXXXX          OOOOOOOOOO",
"OOOOOOOOOO          ....................XXXXXXXXXXXXXXXXXXXX          OOOOOOOOOO",
"OOOOOOOOOOOOOOOOOOOO                                        OOOOOOOOOOOOOOOOOOOO",
"OOOOOOOOOOOOOOOOOOOO                                        OOOOOOOOOOOOOOOOOOOO",
"OOOOOOOOOOOOOOOOOOOO                                        OOOOOOOOOOOOOOOOOOOO",
"OOOOOOOOOOOOOOOOOOOO                                        OOOOOOOOOOOOOOOOOOOO",
"OOOOOOOOOOOOOOOOOOOO                                        OOOOOOOOOOOOOOOOOOOO",
"OOOOOOOOOOOOOOOOOOOO                                        OOOOOOOOOOOOOOOOOOOO",
"OOOOOOOOOOOOOOOOOOOO                                        OOOOOOOOOOOOOOOOOOOO",
"OOOOOOOOOOOOOOOOOOOO                                        OOOOOOOOOOOOOOOOOOOO",
"OOOOOOOOOOOOOOOOOOOO                                        OOOOOOOOOOOOOOOOOOOO"
};
