/* XPM */
static char *result[] = {
/* columns rows colors chars-per-pixel */
"64 64 70 1 ",
"  c black",
". c #242005",
"X c #2B2606",
"o c #242212",
"O c #2B2710",
"+ c #2B2815",
"@ c #403808",
"# c #403B20",
"$ c #4D4302",
"% c #524702",
"& c #50460A",
"* c #554B0B",
"= c #625502",
"- c #665A0D",
"; c #6F6102",
": c #7B6B03",
"> c #554F2A",
", c #746C3A",
"< c #807111",
"1 c #807740",
"2 c #A38E03",
"3 c #A6910A",
"4 c #AA9616",
"5 c #BFA919",
"6 c #CCB204",
"7 c #C6AF1A",
"8 c #D5BC1C",
"9 c #EDCD00",
"0 c #EECE01",
"q c #EFCF02",
"w c #F0D006",
"e c #F5D505",
"r c #F3D40A",
"t c #F3D40B",
"y c #F7D70A",
"u c #F8D808",
"i c #F8D809",
"p c #F9D909",
"a c #FADA0A",
"s c #F8D90E",
"d c #E2C611",
"f c #E5C810",
"g c #F6D711",
"h c #F7D812",
"j c #F9DA12",
"k c #FADB13",
"l c #F9DA16",
"z c #FDDF1C",
"x c #FEDF1D",
"c c #FEE01E",
"v c #F6D920",
"b c #FADD20",
"n c #F3D82A",
"m c #FBDF30",
"M c #F9DF35",
"N c #FFE121",
"B c #FCE131",
"V c #AA9F55",
"C c #BBAA40",
"Z c #C2B247",
"A c #F6DE40",
"S c #F9E355",
"D c #FFE850",
"F c #FFE855",
"G c #D5C66A",
"H c #FFEA60",
"J c #FFEA62",
"K c #FFEC6F",
"L c #FFEE7F",
"P c None",
/* pixels */
"PPPPPPPPPPPPPPPPPPPPPP                    PPPPPPPPPPPPPPPPPPPPPP",
"PPPPPPPPPPPPPPPPPPPPPP                    PPPPPPPPPPPPPPPPPPPPPP",
"PPPPPPPPPPPPPPPPPPPPPP                    PPPPPPPPPPPPPPPPPPPPPP",
"PPPPPPPPPPPPPPPPPPPPPPo++++++++++++++OXXX.PPPPPPPPPPPPPPPPPPPPPP",
"PPPPPPPPPPPPPPPPPPP   1LLLLLLLLLLLLLLHNNN<   PPPPPPPPPPPPPPPPPPP",
"PPPPPPPPPPPPPPPPPPP   1LLLLLLLLLLLLLLHNNN<   PPPPPPPPPPPPPPPPPPP",
"PPPPPPPPPPPPPPPPPPP   1LLLLLLLLLLLLLLHNNN<   PPPPPPPPPPPPPPPPPPP",
"PPPPPPPPPPPPPPP   #111CAAAAAAAAAAAAAAMNNN5<<<@   PPPPPPPPPPPPPPP",
"PPPPPPPPPPPPPPP   >LLLA99999999999999tNNNNNNN*   PPPPPPPPPPPPPPP",
"PPPPPPPPPPPPPPP   >LLLA99999999999999tNNNNNNN*   PPPPPPPPPPPPPPP",
"PPPPPPPPPPPPPPP   >LLLA99999999999999tNNNNNNN*   PPPPPPPPPPPPPPP",
"PPPPPPPPPPP    VVVZnnnvllllllllllllllhtttlNNN7444    PPPPPPPPPPP",
"PPPPPPPPPPP    LLLS999gNNNNNNNNNNNNNNl999gNNNNNNN    PPPPPPPPPPP",
"PPPPPPPPPPP    LLLS999gNNNNNNNNNNNNNNl999gNNNNNNN    PPPPPPPPPPP",
"PPPPPPPPPPP    LLLS999gNNNNNNNNNNNNNNl999gNNNNNNN    PPPPPPPPPPP",
"PPPPPPPPPPP    LLLS999gNNNFKKKKKKJNNNl999gNNNNNNN    PPPPPPPPPPP",
"PPPPPPPPPPP    LLLS999gNNNHLLLLLLKNNNl999gNNNNNNN    PPPPPPPPPPP",
"PPPPPPPPPPP    LLLS999gNNNHLLLLLLKNNNl999gNNNNNNN    PPPPPPPPPPP",
"PPPPPPPPPPP    LLLS999gNNNHLLLLLLKNNNl999gNNNNNNN    PPPPPPPPPPP",
"PPPPPPP    GLLL999tNNNDLLLBaaaaaapeeesNNNg999lNNNeee6    PPPPPPP",
"PPPPPPP    GLLL999tNNNDLLLBaaaaaapeeesNNNg999lNNNeee6    PPPPPPP",
"PPPPPPP    GLLL999tNNNDLLLBaaaaaapeeesNNNg999lNNNeee6    PPPPPPP",
"PPPPPPP    GLLL999tNNNDLLLBaaaaaapeeesNNNg999lNNNeee6    PPPPPPP",
"PPPPPPP    GLLL999tNNNDLLLBaaaaaapeeesNNNg999lNNNeee6    PPPPPPP",
"PPPPPPP    GLLL999tNNNDLLLBaaaaaapeeesNNNg999lNNNeee6    PPPPPPP",
"PPPPPPP    GLLL999tNNNDLLLBaaaaaapeeesNNNg999lNNNeee6    PPPPPPP",
"PPPPPPP    GLLL999tNNNDLLLBaaaaaapeeesNNNg999lNNNeee6    PPPPPPP",
"PPPPPPP    GLLL999tNNNDLLLBaaaaaapeeesNNNg999lNNNeee6    PPPPPPP",
"PPPPPPP    GLLL999tNNNDLLLBaaaaaapeeesNNNg999lNNNeee6    PPPPPPP",
"PPPPPPP    GLLL999tNNNDLLLBaaaaaapeeesNNNg999lNNNeee6    PPPPPPP",
"PPPPPPP    GLLL999tNNNDLLLBaaaaaapeeesNNNg999lNNNeee6    PPPPPPP",
"PPPPPPP    GLLL999tNNNDLLLBaaaaaapeeesNNNg999lNNNeee6    PPPPPPP",
"PPPPPPP    GLLL999tNNNDLLLBaaaaaapeeesNNNg999lNNNeee6    PPPPPPP",
"PPPPPPP    GLLL999tNNNDLLLBaaaaaapeeesNNNg999lNNNeee6    PPPPPPP",
"PPPPPPP    GLLL999tNNNDLLLBaaaaaapeeesNNNg999lNNNeee6    PPPPPPP",
"PPPPPPP    GLLL999tNNNDLLLBaaaaaapeeesNNNg999lNNNeee6    PPPPPPP",
"PPPPPPP    GLLL999tNNNDLLLBaaaaaapeeesNNNg999lNNNeee6    PPPPPPP",
"PPPPPPP    GLLL999tNNNDLLLBaaaaaapeeesNNNg999lNNNeee6    PPPPPPP",
"PPPPPPP    GLLL999tNNNDLLLBaaaaaapeeesNNNg999lNNNeee6    PPPPPPP",
"PPPPPPP    GLLL999tNNNDLLLBaaaaaapeeesNNNg999lNNNeee6    PPPPPPP",
"PPPPPPP    GLLL999tNNNDLLLBaaaaaapeeesNNNg999lNNNeee6    PPPPPPP",
"PPPPPPP    GLLL999tNNNDLLLBaaaaaapeeesNNNg999lNNNeee6    PPPPPPP",
"PPPPPPP    GLLL999tNNNDLLLBaaaaaapeeesNNNg999lNNNeee6    PPPPPPP",
"PPPPPPP    GLLL999tNNNDLLLBaaaaaapeeesNNNg999lNNNeee6    PPPPPPP",
"PPPPPPP    GLLL999tNNNDLLLBaaaaaapeeesNNNg999lNNNeee6    PPPPPPP",
"PPPPPPPP   ,111gggggggmDDDbuuuuuuikkkjgggggggjkkk:::;   PPPPPPPP",
"PPPPPPPPPPP    NNNl999gNNNseeeeeeyNNNl999gNNNseee    PPPPPPPPPPP",
"PPPPPPPPPPP    NNNl999gNNNseeeeeeyNNNl999gNNNseee    PPPPPPPPPPP",
"PPPPPPPPPPP    NNNl999gNNNseeeeeeyNNNl999gNNNseee    PPPPPPPPPPP",
"PPPPPPPPPPP    NNNl999gNNNczzzzzzxNNNl999gNNNseee    PPPPPPPPPPP",
"PPPPPPPPPPP    NNNl999gNNNNNNNNNNNNNNl999gNNNseee    PPPPPPPPPPP",
"PPPPPPPPPPP    NNNl999gNNNNNNNNNNNNNNl999gNNNseee    PPPPPPPPPPP",
"PPPPPPPPPPP    NNNl999gNNNNNNNNNNNNNNl999gNNNseee    PPPPPPPPPPP",
"PPPPPPPPPPPPPPP   *NNNg99999999999999tNNNkeee%   PPPPPPPPPPPPPPP",
"PPPPPPPPPPPPPPP   *NNNg99999999999999tNNNkeee%   PPPPPPPPPPPPPPP",
"PPPPPPPPPPPPPPP   *NNNg99999999999999tNNNkeee%   PPPPPPPPPPPPPPP",
"PPPPPPPPPPPPPPP   &888dwwwq0000000000rzzzf666$   PPPPPPPPPPPPPPP",
"PPPPPPPPPPPPPPPPPPP   <NNNseeeeeeeeeeeeee:   PPPPPPPPPPPPPPPPPPP",
"PPPPPPPPPPPPPPPPPPP   <NNNseeeeeeeeeeeeee:   PPPPPPPPPPPPPPPPPPP",
"PPPPPPPPPPPPPPPPPPP   <NNNseeeeeeeeeeeeee:   PPPPPPPPPPPPPPPPPPP",
"PPPPPPPPPPPPPPPPPPP   -444322222222222222=   PPPPPPPPPPPPPPPPPPP",
"PPPPPPPPPPPPPPPPPPPPPP                    PPPPPPPPPPPPPPPPPPPPPP",
"PPPPPPPPPPPPPPPPPPPPPP                    PPPPPPPPPPPPPPPPPPPPPP",
"PPPPPPPPPPPPPPPPPPPPPP                    PPPPPPPPPPPPPPPPPPPPPP"
};
