/* XPM */
static char *result[] = {
/* columns rows colors chars-per-pixel */
"79 168 5 1 ",
"  c black",
". c #EDCD00",
"X c #FFE121",
"o c #FFF1AB",
"O c None",
/* pixels */
"OOOOOOOOOOOOOOOOOOOO                                        OOOOOOOOOOOOOOOOOOO",
"OOOOOOOOOOOOOOOOOOOO                                        OOOOOOOOOOOOOOOOOOO",
"OOOOOOOOOOOOOOOOOOOO                                        OOOOOOOOOOOOOOOOOOO",
"OOOOOOOOOOOOOOOOOOOO                                        OOOOOOOOOOOOOOOOOOO",
"OOOOOOOOOOOOOOOOOOOO                                        OOOOOOOOOOOOOOOOOOO",
"OOOOOOOOOOOOOOOOOOOO                                        OOOOOOOOOOOOOOOOOOO",
"OOOOOOOOOOOOOOOOOOOO                                        OOOOOOOOOOOOOOOOOOO",
"OOOOOOOOOOOOOOOOOOOO                                        OOOOOOOOOOOOOOOOOOO",
"OOOOOOOOOOOOOOOOOOOO                                        OOOOOOOOOOOOOOOOOOO",
"OOOOOOOOOO          XXXXXXXXXXXXXXXXXXXXXXXXXXXXXXXXXXXXXXXX          OOOOOOOOO",
"OOOOOOOOOO          XXXXXXXXXXXXXXXXXXXXXXXXXXXXXXXXXXXXXXXX          OOOOOOOOO",
"OOOOOOOOOO          XXXXXXXXXXXXXXXXXXXXXXXXXXXXXXXXXXXXXXXX          OOOOOOOOO",
"OOOOOOOOOO          XXXXXXXXXXXXXXXXXXXXXXXXXXXXXXXXXXXXXXXX          OOOOOOOOO",
"OOOOOOOOOO          XXXXXXXXXXXXXXXXXXXXXXXXXXXXXXXXXXXXXXXX          OOOOOOOOO",
"OOOOOOOOOO          XXXXXXXXXXXXXXXXXXXXXXXXXXXXXXXXXXXXXXXX          OOOOOOOOO",
"OOOOOOOOOO          XXXXXXXXXXXXXXXXXXXXXXXXXXXXXXXXXXXXXXXX          OOOOOOOOO",
"OOOOOOOOOO          XXXXXXXXXXXXXXXXXXXXXXXXXXXXXXXXXXXXXXXX          OOOOOOOOO",
"OOOOOOOOOO          XXXXXXXXXXXXXXXXXXXXXXXXXXXXXXXXXXXXXXXX          OOOOOOOOO",
"OOOOOOOOOO          XXXXXXXXXXXXXXXXXXXXXXXXXXXXXXXXXXXXXXXX          OOOOOOOOO",
"OOOOOOOOOO          XXXXXXXXXX..........XXXXXXXXXXXXXXXXXXXX          OOOOOOOOO",
"OOOOOOOOOO          XXXXXXXXXX..........XXXXXXXXXXXXXXXXXXXX          OOOOOOOOO",
"OOOOOOOOOO          XXXXXXXXXX..........XXXXXXXXXXXXXXXXXXXX          OOOOOOOOO",
"OOOOOOOOOO          XXXXXXXXXX..........XXXXXXXXXXXXXXXXXXXX          OOOOOOOOO",
"OOOOOOOOOO          XXXXXXXXXX..........XXXXXXXXXXXXXXXXXXXX          OOOOOOOOO",
"OOOOOOOOOO          XXXXXXXXXX..........XXXXXXXXXXXXXXXXXXXX          OOOOOOOOO",
"OOOOOOOOOO          XXXXXXXXXX..........XXXXXXXXXXXXXXXXXXXX          OOOOOOOOO",
"OOOOOOOOOO          XXXXXXXXXX..........XXXXXXXXXXXXXXXXXXXX          OOOOOOOOO",
"OOOOOOOOOO          XXXXXXXXXX..........XXXXXXXXXXXXXXXXXXXX          OOOOOOOOO",
"OOOOOOOOOO          XXXXXXXXXX..........XXXXXXXXXXXXXXXXXXXX          OOOOOOOOO",
"          XXXXXXXXXX..........XXXXXXXXXXooooooooooXXXXXXXXXXXXXXXXXXXX         ",
"          XXXXXXXXXX..........XXXXXXXXXXooooooooooXXXXXXXXXXXXXXXXXXXX         ",
"          XXXXXXXXXX..........XXXXXXXXXXooooooooooXXXXXXXXXXXXXXXXXXXX         ",
"          XXXXXXXXXX..........XXXXXXXXXXooooooooooXXXXXXXXXXXXXXXXXXXX         ",
"          XXXXXXXXXX..........XXXXXXXXXXooooooooooXXXXXXXXXXXXXXXXXXXX         ",
"          XXXXXXXXXX..........XXXXXXXXXXooooooooooXXXXXXXXXXXXXXXXXXXX         ",
"          XXXXXXXXXX..........XXXXXXXXXXooooooooooXXXXXXXXXXXXXXXXXXXX         ",
"          XXXXXXXXXX..........XXXXXXXXXXooooooooooXXXXXXXXXXXXXXXXXXXX         ",
"          XXXXXXXXXX..........XXXXXXXXXXooooooooooXXXXXXXXXXXXXXXXXXXX         ",
"          XXXXXXXXXX..........XXXXXXXXXXooooooooooXXXXXXXXXXXXXXXXXXXX         ",
"          XXXXXXXXXX..........ooooooooooooooooooooXXXXXXXXXXXXXXXXXXXX         ",
"          XXXXXXXXXX..........ooooooooooooooooooooXXXXXXXXXXXXXXXXXXXX         ",
"          XXXXXXXXXX..........ooooooooooooooooooooXXXXXXXXXXXXXXXXXXXX         ",
"          XXXXXXXXXX..........ooooooooooooooooooooXXXXXXXXXXXXXXXXXXXX         ",
"          XXXXXXXXXX..........ooooooooooooooooooooXXXXXXXXXXXXXXXXXXXX         ",
"          XXXXXXXXXX..........ooooooooooooooooooooXXXXXXXXXXXXXXXXXXXX         ",
"          XXXXXXXXXX..........ooooooooooooooooooooXXXXXXXXXXXXXXXXXXXX         ",
"          XXXXXXXXXX..........ooooooooooooooooooooXXXXXXXXXXXXXXXXXXXX         ",
"          XXXXXXXXXX..........ooooooooooooooooooooXXXXXXXXXXXXXXXXXXXX         ",
"          XXXXXXXXXX..........ooooooooooooooooooooXXXXXXXXXXXXXXXXXXXX         ",
"          XXXXXXXXXX..........XXXXXXXXXXooooooooooXXXXXXXXXXXXXXXXXXXX         ",
"          XXXXXXXXXX..........XXXXXXXXXXooooooooooXXXXXXXXXXXXXXXXXXXX         ",
"          XXXXXXXXXX..........XXXXXXXXXXooooooooooXXXXXXXXXXXXXXXXXXXX         ",
"          XXXXXXXXXX..........XXXXXXXXXXooooooooooXXXXXXXXXXXXXXXXXXXX         ",
"          XXXXXXXXXX..........XXXXXXXXXXooooooooooXXXXXXXXXXXXXXXXXXXX         ",
"          XXXXXXXXXX..........XXXXXXXXXXooooooooooXXXXXXXXXXXXXXXXXXXX         ",
"          XXXXXXXXXX..........XXXXXXXXXXooooooooooXXXXXXXXXXXXXXXXXXXX         ",
"          XXXXXXXXXX..........XXXXXXXXXXooooooooooXXXXXXXXXXXXXXXXXXXX         ",
"          XXXXXXXXXX..........XXXXXXXXXXooooooooooXXXXXXXXXXXXXXXXXXXX         ",
"          XXXXXXXXXX..........XXXXXXXXXXooooooooooXXXXXXXXXXXXXXXXXXXX         ",
"          XXXXXXXXXX..........ooooooooooooooooooooXXXXXXXXXXXXXXXXXXXX         ",
"          XXXXXXXXXX..........ooooooooooooooooooooXXXXXXXXXXXXXXXXXXXX         ",
"          XXXXXXXXXX..........ooooooooooooooooooooXXXXXXXXXXXXXXXXXXXX         ",
"          XXXXXXXXXX..........ooooooooooooooooooooXXXXXXXXXXXXXXXXXXXX         ",
"          XXXXXXXXXX..........ooooooooooooooooooooXXXXXXXXXXXXXXXXXXXX         ",
"          XXXXXXXXXX..........ooooooooooooooooooooXXXXXXXXXXXXXXXXXXXX         ",
"          XXXXXXXXXX..........ooooooooooooooooooooXXXXXXXXXXXXXXXXXXXX         ",
"          XXXXXXXXXX..........ooooooooooooooooooooXXXXXXXXXXXXXXXXXXXX         ",
"          XXXXXXXXXX..........ooooooooooooooooooooXXXXXXXXXXXXXXXXXXXX         ",
"          XXXXXXXXXX..........ooooooooooooooooooooXXXXXXXXXXXXXXXXXXXX         ",
"          XXXXXXXXXX..........XXXXXXXXXXoooooooooo....................         ",
"          XXXXXXXXXX..........XXXXXXXXXXoooooooooo....................         ",
"          XXXXXXXXXX..........XXXXXXXXXXoooooooooo....................         ",
"          XXXXXXXXXX..........XXXXXXXXXXoooooooooo....................         ",
"          XXXXXXXXXX..........XXXXXXXXXXoooooooooo....................         ",
"          XXXXXXXXXX..........XXXXXXXXXXoooooooooo....................         ",
"          XXXXXXXXXX..........XXXXXXXXXXoooooooooo....................         ",
"          XXXXXXXXXX..........XXXXXXXXXXoooooooooo....................         ",
"          XXXXXXXXXX..........XXXXXXXXXXoooooooooo....................         ",
"          XXXXXXXXXX..........XXXXXXXXXXoooooooooo....................         ",
"          XXXXXXXXXX..........XXXXXXXXXXoooooooooo....................         ",
"          XXXXXXXXXX..........XXXXXXXXXXoooooooooo....................         ",
"          XXXXXXXXXX..........XXXXXXXXXXoooooooooo....................         ",
"          XXXXXXXXXX..........XXXXXXXXXXoooooooooo....................         ",
"          XXXXXXXXXX..........XXXXXXXXXXoooooooooo....................         ",
"          XXXXXXXXXX..........XXXXXXXXXXoooooooooo....................         ",
"          XXXXXXXXXX..........XXXXXXXXXXoooooooooo....................         ",
"          XXXXXXXXXX..........XXXXXXXXXXoooooooooo....................         ",
"          XXXXXXXXXX..........XXXXXXXXXXoooooooooo....................         ",
"          XXXXXXXXXX..........XXXXXXXXXXoooooooooo....................         ",
"          XXXXXXXXXX..........XXXXXXXXXXoooooooooo....................         ",
"          XXXXXXXXXX..........XXXXXXXXXXoooooooooo....................         ",
"          XXXXXXXXXX..........XXXXXXXXXXoooooooooo....................         ",
"          XXXXXXXXXX..........XXXXXXXXXXoooooooooo....................         ",
"          XXXXXXXXXX..........XXXXXXXXXXoooooooooo....................         ",
"          XXXXXXXXXX..........XXXXXXXXXXoooooooooo....................         ",
"          XXXXXXXXXX..........XXXXXXXXXXoooooooooo....................         ",
"          XXXXXXXXXX..........XXXXXXXXXXoooooooooo....................         ",
"          XXXXXXXXXX..........XXXXXXXXXXoooooooooo....................         ",
"          XXXXXXXXXX..........XXXXXXXXXXoooooooooo....................         ",
"          XXXXXXXXXX....................oooooooooo....................         ",
"          XXXXXXXXXX....................oooooooooo....................         ",
"          XXXXXXXXXX....................oooooooooo....................         ",
"          XXXXXXXXXX....................oooooooooo....................         ",
"          XXXXXXXXXX....................oooooooooo....................         ",
"          XXXXXXXXXX....................oooooooooo....................         ",
"          XXXXXXXXXX....................oooooooooo....................         ",
"          XXXXXXXXXX....................oooooooooo....................         ",
"          XXXXXXXXXX....................oooooooooo....................         ",
"          XXXXXXXXXX....................oooooooooo....................         ",
"          XXXXXXXXXX....................oooooooooo....................         ",
"          XXXXXXXXXX....................oooooooooo....................         ",
"          XXXXXXXXXX....................oooooooooo....................         ",
"          XXXXXXXXXX....................oooooooooo....................         ",
"          XXXXXXXXXX....................oooooooooo....................         ",
"          XXXXXXXXXX....................oooooooooo....................         ",
"          XXXXXXXXXX....................oooooooooo....................         ",
"          XXXXXXXXXX....................oooooooooo....................         ",
"          XXXXXXXXXX....................oooooooooo....................         ",
"          XXXXXXXXXX....................oooooooooo....................         ",
"          XXXXXXXXXX....................oooooooooo....................         ",
"          XXXXXXXXXX....................oooooooooo....................         ",
"          XXXXXXXXXX....................oooooooooo....................         ",
"          XXXXXXXXXX....................oooooooooo....................         ",
"          XXXXXXXXXX....................oooooooooo....................         ",
"          XXXXXXXXXX....................oooooooooo....................         ",
"          XXXXXXXXXX....................oooooooooo....................         ",
"          XXXXXXXXXX....................oooooooooo....................         ",
"          XXXXXXXXXX....................oooooooooo....................         ",
"          XXXXXXXXXX....................oooooooooo....................         ",
"          XXXXXXXXXX....................oooooooooo....................         ",
"          XXXXXXXXXX....................oooooooooo....................         ",
"          XXXXXXXXXX....................oooooooooo....................         ",
"          XXXXXXXXXX....................oooooooooo....................         ",
"          XXXXXXXXXX....................oooooooooo....................         ",
"          XXXXXXXXXX....................oooooooooo....................         ",
"          XXXXXXXXXX....................oooooooooo....................         ",
"          XXXXXXXXXX....................oooooooooo....................         ",
"          XXXXXXXXXX....................oooooooooo....................         ",
"          XXXXXXXXXX....................oooooooooo....................         ",
"OOOOOOOOOO          XXXXXXXXXXoooooooooo....................          OOOOOOOOO",
"OOOOOOOOOO          XXXXXXXXXXoooooooooo....................          OOOOOOOOO",
"OOOOOOOOOO          XXXXXXXXXXoooooooooo....................          OOOOOOOOO",
"OOOOOOOOOO          XXXXXXXXXXoooooooooo....................          OOOOOOOOO",
"OOOOOOOOOO          XXXXXXXXXXoooooooooo....................          OOOOOOOOO",
"OOOOOOOOOO          XXXXXXXXXXoooooooooo....................          OOOOOOOOO",
"OOOOOOOOOO          XXXXXXXXXXoooooooooo....................          OOOOOOOOO",
"OOOOOOOOOO          XXXXXXXXXXoooooooooo....................          OOOOOOOOO",
"OOOOOOOOOO          XXXXXXXXXXoooooooooo....................          OOOOOOOOO",
"OOOOOOOOOO          XXXXXXXXXXoooooooooo....................          OOOOOOOOO",
"OOOOOOOOOO          XXXXXXXXXXXXXXXXXXXX....................          OOOOOOOOO",
"OOOOOOOOOO          XXXXXXXXXXXXXXXXXXXX....................          OOOOOOOOO",
"OOOOOOOOOO          XXXXXXXXXXXXXXXXXXXX....................          OOOOOOOOO",
"OOOOOOOOOO          XXXXXXXXXXXXXXXXXXXX....................          OOOOOOOOO",
"OOOOOOOOOO          XXXXXXXXXXXXXXXXXXXX....................          OOOOOOOOO",
"OOOOOOOOOO          XXXXXXXXXXXXXXXXXXXX....................          OOOOOOOOO",
"OOOOOOOOOO          XXXXXXXXXXXXXXXXXXXX....................          OOOOOOOOO",
"OOOOOOOOOO          XXXXXXXXXXXXXXXXXXXX....................          OOOOOOOOO",
"OOOOOOOOOO          XXXXXXXXXXXXXXXXXXXX....................          OOOOOOOOO",
"OOOOOOOOOO          XXXXXXXXXXXXXXXXXXXX....................          OOOOOOOOO",
"OOOOOOOOOOOOOOOOOOOO                                        OOOOOOOOOOOOOOOOOOO",
"OOOOOOOOOOOOOOOOOOOO                                        OOOOOOOOOOOOOOOOOOO",
"OOOOOOOOOOOOOOOOOOOO                                        OOOOOOOOOOOOOOOOOOO",
"OOOOOOOOOOOOOOOOOOOO                                        OOOOOOOOOOOOOOOOOOO",
"OOOOOOOOOOOOOOOOOOOO                                        OOOOOOOOOOOOOOOOOOO",
"OOOOOOOOOOOOOOOOOOOO                                        OOOOOOOOOOOOOOOOOOO",
"OOOOOOOOOOOOOOOOOOOO                                        OOOOOOOOOOOOOOOOOOO",
"OOOOOOOOOOOOOOOOOOOO                                        OOOOOOOOOOOOOOOOOOO",
"OOOOOOOOOOOOOOOOOOOO                                        OOOOOOOOOOOOOOOOOOO"
};
