/* XPM */
static char *result[] = {
/* columns rows colors chars-per-pixel */
"40 167 4 1 ",
"  c black",
". c #EDCD00",
"X c #FFE121",
"o c None",
/* pixels */
"o                                       ",
"o                                       ",
"o                                       ",
"o                                       ",
"o                                       ",
"o                                       ",
"o                                       ",
"o                                       ",
"o                                       ",
"o          XXXXXXXXXXXXXXXXXXXX         ",
"o          XXXXXXXXXXXXXXXXXXXX         ",
"o          XXXXXXXXXXXXXXXXXXXX         ",
"o          XXXXXXXXXXXXXXXXXXXX         ",
"o          XXXXXXXXXXXXXXXXXXXX         ",
"o          XXXXXXXXXXXXXXXXXXXX         ",
"o          XXXXXXXXXXXXXXXXXXXX         ",
"o          XXXXXXXXXXXXXXXXXXXX         ",
"o          XXXXXXXXXXXXXXXXXXXX         ",
"o          XXXXXXXXXXXXXXXXXXXX         ",
"o          XXXXXXXXXXXXXXXXXXXX         ",
"o          XXXXXXXXXXXXXXXXXXXX         ",
"o          XXXXXXXXXXXXXXXXXXXX         ",
"o          XXXXXXXXXXXXXXXXXXXX         ",
"o          XXXXXXXXXXXXXXXXXXXX         ",
"o          XXXXXXXXXXXXXXXXXXXX         ",
"o          XXXXXXXXXXXXXXXXXXXX         ",
"o          XXXXXXXXXXXXXXXXXXXX         ",
"o          XXXXXXXXXXXXXXXXXXXX         ",
"o          XXXXXXXXXXXXXXXXXXXX         ",
"o          XXXXXXXXXXXXXXXXXXXX         ",
"o          XXXXXXXXXXXXXXXXXXXX         ",
"o          XXXXXXXXXXXXXXXXXXXX         ",
"o          XXXXXXXXXXXXXXXXXXXX         ",
"o          XXXXXXXXXXXXXXXXXXXX         ",
"o          XXXXXXXXXXXXXXXXXXXX         ",
"o          XXXXXXXXXXXXXXXXXXXX         ",
"o          XXXXXXXXXXXXXXXXXXXX         ",
"o          XXXXXXXXXXXXXXXXXXXX         ",
"o          XXXXXXXXXXXXXXXXXXXX         ",
"o          XXXXXXXXXXXXXXXXXXXX         ",
"o          XXXXXXXXXXXXXXXXXXXX         ",
"o          XXXXXXXXXXXXXXXXXXXX         ",
"o          XXXXXXXXXXXXXXXXXXXX         ",
"o          XXXXXXXXXXXXXXXXXXXX         ",
"o          XXXXXXXXXXXXXXXXXXXX         ",
"o          XXXXXXXXXXXXXXXXXXXX         ",
"o          XXXXXXXXXXXXXXXXXXXX         ",
"o          XXXXXXXXXXXXXXXXXXXX         ",
"o          XXXXXXXXXXXXXXXXXXXX         ",
"o          XXXXXXXXXXXXXXXXXXXX         ",
"o          XXXXXXXXXXXXXXXXXXXX         ",
"o          XXXXXXXXXXXXXXXXXXXX         ",
"o          XXXXXXXXXXXXXXXXXXXX         ",
"o          XXXXXXXXXXXXXXXXXXXX         ",
"o          XXXXXXXXXXXXXXXXXXXX         ",
"o          XXXXXXXXXXXXXXXXXXXX         ",
"o          XXXXXXXXXXXXXXXXXXXX         ",
"o          XXXXXXXXXXXXXXXXXXXX         ",
"o          XXXXXXXXXXXXXXXXXXXX         ",
"o          XXXXXXXXXXXXXXXXXXXX         ",
"o          XXXXXXXXXXXXXXXXXXXX         ",
"o          XXXXXXXXXXXXXXXXXXXX         ",
"o          XXXXXXXXXXXXXXXXXXXX         ",
"o          XXXXXXXXXXXXXXXXXXXX         ",
"o          XXXXXXXXXXXXXXXXXXXX         ",
"o          XXXXXXXXXXXXXXXXXXXX         ",
"o          XXXXXXXXXXXXXXXXXXXX         ",
"o          XXXXXXXXXXXXXXXXXXXX         ",
"o          XXXXXXXXXXXXXXXXXXXX         ",
"o          XXXXXXXXXXXXXXXXXXXX         ",
"o          XXXXXXXXXXXXXXXXXXXX         ",
"o          XXXXXXXXXXXXXXXXXXXX         ",
"o          XXXXXXXXXXXXXXXXXXXX         ",
"o          XXXXXXXXXXXXXXXXXXXX         ",
"o          XXXXXXXXXXXXXXXXXXXX         ",
"o          XXXXXXXXXXXXXXXXXXXX         ",
"o          XXXXXXXXXXXXXXXXXXXX         ",
"o          XXXXXXXXXXXXXXXXXXXX         ",
"o          XXXXXXXXXXXXXXXXXXXX         ",
"o          ....................         ",
"o          ....................         ",
"o          ....................         ",
"o          ....................         ",
"o          ....................         ",
"o          ....................         ",
"o          ....................         ",
"o          ....................         ",
"o          ....................         ",
"o          ....................         ",
"o          ....................         ",
"o          ....................         ",
"o          ....................         ",
"o          ....................         ",
"o          ....................         ",
"o          ....................         ",
"o          ....................         ",
"o          ....................         ",
"o          ....................         ",
"o          ....................         ",
"o          ....................         ",
"o          ....................         ",
"o          ....................         ",
"o          ....................         ",
"o          ....................         ",
"o          ....................         ",
"o          ....................         ",
"o          ....................         ",
"o          ....................         ",
"o          ....................         ",
"o          ....................         ",
"o          ....................         ",
"o          ....................         ",
"o          ....................         ",
"o          ....................         ",
"o          ....................         ",
"o          ....................         ",
"o          ....................         ",
"o          ....................         ",
"o          ....................         ",
"o          ....................         ",
"o          ....................         ",
"o          ....................         ",
"o          ....................         ",
"o          ....................         ",
"o          ....................         ",
"o          ....................         ",
"o          ....................         ",
"o          ....................         ",
"o          ....................         ",
"o          ....................         ",
"o          ....................         ",
"o          ....................         ",
"o          ....................         ",
"o          ....................         ",
"o          ....................         ",
"o          ....................         ",
"o          ....................         ",
"o          ....................         ",
"o          ....................         ",
"o          ....................         ",
"o          ....................         ",
"o          ....................         ",
"o          ....................         ",
"o          ....................         ",
"o          ....................         ",
"o          ....................         ",
"o          ....................         ",
"o          ....................         ",
"o          ....................         ",
"o          ....................         ",
"o          ....................         ",
"o          ....................         ",
"o          ....................         ",
"o          ....................         ",
"o          ....................         ",
"o          ....................         ",
"o          ....................         ",
"o          ....................         ",
"o          ....................         ",
"o                                       ",
"o                                       ",
"o                                       ",
"o                                       ",
"o                                       ",
"o                                       ",
"o                                       ",
"o                                       "
};
