/* XPM */
static char *result[] = {
/* columns rows colors chars-per-pixel */
"64 64 40 1 ",
"  c black",
". c #242005",
"X c #272305",
"o c #282200",
"O c #292403",
"+ c #2B2606",
"@ c #494009",
"# c #554B0B",
"$ c #5F5200",
"% c #665A0D",
"& c #776700",
"* c #807111",
"= c #9E8900",
"- c #AA9616",
"; c #CFB511",
": c #D5BC1C",
"> c #EDCD00",
", c #F0D006",
"< c #F3D40B",
"1 c #F6D711",
"2 c #F8D913",
"3 c #F8D914",
"4 c #F9DA16",
"5 c #FADB17",
"6 c #FCDE1C",
"7 c #FFE121",
"8 c #FCE242",
"9 c #FFE64F",
"0 c #FCE455",
"q c #FFE85E",
"w c #FFE966",
"e c #F9E572",
"r c #FCE878",
"t c #FCE97B",
"y c #FFEC7D",
"u c #FFEC81",
"i c #FCEB8F",
"p c #FFEE94",
"a c #FFF1AB",
"s c None",
/* pixels */
"ssssssssssssssssssssssss                ssssssssssssssssssssssss",
"ssssssssssssssssssssssss                ssssssssssssssssssssssss",
"ssssssssssssssssssssssss                ssssssssssssssssssssssss",
"ssssssssssssssssssssssss.++++++++++++++.ssssssssssssssssssssssss",
"sssssssssssssssssssss   *77777777777777*   sssssssssssssssssssss",
"sssssssssssssssssssss   *77777777777777*   sssssssssssssssssssss",
"sssssssssssssssssssss   *77777777777777*   sssssssssssssssssssss",
"sssssssssssssssssssss   *77721117777777*   sssssssssssssssssssss",
"sssssssssssssssssssss   *777,>>>7777777*   sssssssssssssssssssss",
"sssssssssssssssssssss   *777,>>>7777777*   sssssssssssssssssssss",
"sssssssssssssssssssss   *777,>>>7777777*   sssssssssssssssssssss",
"sssssssssssssssss   @---;<<<3444yyyq777:---X   sssssssssssssssss",
"sssssssssssssssss   #7771>>>6777aaay7777777+   sssssssssssssssss",
"sssssssssssssssss   #7771>>>6777aaay7777777+   sssssssssssssssss",
"sssssssssssssssss   #7771>>>6777aaay7777777+   sssssssssssssssss",
"sssssssssssssssss   #7771>>>tpppaaay7777777+   sssssssssssssssss",
"sssssssssssssssss   #7771>>>iaaaaaay7777777+   sssssssssssssssss",
"sssssssssssssssss   #7771>>>iaaaaaay7777777+   sssssssssssssssss",
"sssssssssssssssss   #7771>>>iaaaaaay7777777+   sssssssssssssssss",
"sssssssssssssssss   #7771>>>6777aaay7777777+   sssssssssssssssss",
"sssssssssssssssss   #7771>>>6777aaay7777777+   sssssssssssssssss",
"sssssssssssssssss   #7771>>>6777aaay7777777+   sssssssssssssssss",
"sssssssssssssssss   #7771>>>8999aaay7777777+   sssssssssssssssss",
"sssssssssssssssss   #7771>>>iaaaaaay7777777+   sssssssssssssssss",
"sssssssssssssssss   #7771>>>iaaaaaay7777777+   sssssssssssssssss",
"sssssssssssssssss   #7771>>>iaaaaaay7777777+   sssssssssssssssss",
"sssssssssssssssss   #7771>>>0wwwaaar1111111O   sssssssssssssssss",
"sssssssssssssssss   #7771>>>6777aaae>>>>>>>o   sssssssssssssssss",
"sssssssssssssssss   #7771>>>6777aaae>>>>>>>o   sssssssssssssssss",
"sssssssssssssssss   #7771>>>6777aaae>>>>>>>o   sssssssssssssssss",
"sssssssssssssssss   #7771>>>6777aaae>>>>>>>o   sssssssssssssssss",
"sssssssssssssssss   #7771>>>6777aaae>>>>>>>o   sssssssssssssssss",
"sssssssssssssssss   #7771>>>6777aaae>>>>>>>o   sssssssssssssssss",
"sssssssssssssssss   #7771>>>6777aaae>>>>>>>o   sssssssssssssssss",
"sssssssssssssssss   #7771>>>6777aaae>>>>>>>o   sssssssssssssssss",
"sssssssssssssssss   #7771>>>6777aaae>>>>>>>o   sssssssssssssssss",
"sssssssssssssssss   #7771>>>6777aaae>>>>>>>o   sssssssssssssssss",
"sssssssssssssssss   #7771>>>5666aaae>>>>>>>o   sssssssssssssssss",
"sssssssssssssssss   #7771>>>>>>>aaae>>>>>>>o   sssssssssssssssss",
"sssssssssssssssss   #7771>>>>>>>aaae>>>>>>>o   sssssssssssssssss",
"sssssssssssssssss   #7771>>>>>>>aaae>>>>>>>o   sssssssssssssssss",
"sssssssssssssssss   #7771>>>>>>>aaae>>>>>>>o   sssssssssssssssss",
"sssssssssssssssss   #7771>>>>>>>aaae>>>>>>>o   sssssssssssssssss",
"sssssssssssssssss   #7771>>>>>>>aaae>>>>>>>o   sssssssssssssssss",
"sssssssssssssssss   #7771>>>>>>>aaae>>>>>>>o   sssssssssssssssss",
"sssssssssssssssss   #7771>>>>>>>aaae>>>>>>>o   sssssssssssssssss",
"sssssssssssssssss   #7771>>>>>>>aaae>>>>>>>o   sssssssssssssssss",
"sssssssssssssssss   #7771>>>>>>>aaae>>>>>>>o   sssssssssssssssss",
"sssssssssssssssss   #7771>>>>>>>aaae>>>>>>>o   sssssssssssssssss",
"sssssssssssssssss   #7771>>>>>>>aaae>>>>>>>o   sssssssssssssssss",
"sssssssssssssssss   #7771>>>>>>>aaae>>>>>>>o   sssssssssssssssss",
"sssssssssssssssss   #7771>>>>>>>aaae>>>>>>>o   sssssssssssssssss",
"sssssssssssssssss   #7771>>>>>>>aaae>>>>>>>o   sssssssssssssssss",
"sssssssssssssssssssss   *777paaa>>>>>>>&   sssssssssssssssssssss",
"sssssssssssssssssssss   *777paaa>>>>>>>&   sssssssssssssssssssss",
"sssssssssssssssssssss   *777paaa>>>>>>>&   sssssssssssssssssssss",
"sssssssssssssssssssss   *777uppp>>>>>>>&   sssssssssssssssssssss",
"sssssssssssssssssssss   *7777777>>>>>>>&   sssssssssssssssssssss",
"sssssssssssssssssssss   *7777777>>>>>>>&   sssssssssssssssssssss",
"sssssssssssssssssssss   *7777777>>>>>>>&   sssssssssssssssssssss",
"sssssssssssssssssssss   %-------=======$   sssssssssssssssssssss",
"ssssssssssssssssssssssss                ssssssssssssssssssssssss",
"ssssssssssssssssssssssss                ssssssssssssssssssssssss",
"ssssssssssssssssssssssss                ssssssssssssssssssssssss"
};
