/* XPM */
static char *result[] = {
/* columns rows colors chars-per-pixel */
"64 64 221 2 ",
"   c black",
".  c #040100",
"X  c #040200",
"o  c #050200",
"O  c #060200",
"+  c #070300",
"@  c #080300",
"#  c #090300",
"$  c #0A0400",
"%  c #0C0400",
"&  c #0F0500",
"*  c #100600",
"=  c #130700",
"-  c #140700",
";  c #150700",
":  c #150800",
">  c #160800",
",  c #170800",
"<  c #170900",
"1  c #180900",
"2  c #1A0900",
"3  c #1C0A00",
"4  c #1D0A00",
"5  c #1E0B00",
"6  c #1F0B00",
"7  c #200B00",
"8  c #200C00",
"9  c #220C00",
"0  c #230C00",
"q  c #240D00",
"w  c #250D00",
"e  c #260D00",
"r  c #270E00",
"t  c #290F00",
"y  c #2A0F00",
"u  c #2C0F00",
"i  c #2C1000",
"p  c #2D1000",
"a  c #2E1000",
"s  c #2F1100",
"d  c #301100",
"f  c #311100",
"g  c #311200",
"h  c #321200",
"j  c #331200",
"k  c #341300",
"l  c #351300",
"z  c #361300",
"x  c #371400",
"c  c #381400",
"v  c #391400",
"b  c #3A1400",
"n  c #3A1500",
"m  c #3B1500",
"M  c #3C1500",
"N  c #3C1600",
"B  c #3D1600",
"V  c #3E1600",
"C  c #3F1700",
"Z  c #401700",
"A  c #411700",
"S  c #421700",
"D  c #431800",
"F  c #441800",
"G  c #451900",
"H  c #461900",
"J  c #471900",
"K  c #491A00",
"L  c #4A1A00",
"P  c #4B1A00",
"I  c #4B1B00",
"U  c #4C1B00",
"Y  c #4D1B00",
"T  c #4E1C00",
"R  c #4F1C00",
"E  c #501C00",
"W  c #511D00",
"Q  c #521D00",
"!  c #531D00",
"~  c #551E00",
"^  c #581F00",
"/  c #48230A",
"(  c #4D270D",
")  c #5A2000",
"_  c #5C2000",
"`  c #5C2100",
"'  c #5D2100",
"]  c #5E2100",
"[  c #5F2100",
"{  c #5D2D0D",
"}  c #573113",
"|  c #602200",
" . c #612200",
".. c #612300",
"X. c #622300",
"o. c #622705",
"O. c #682500",
"+. c #6E2700",
"@. c #722800",
"#. c #752900",
"$. c #752A00",
"%. c #772A00",
"&. c #782A00",
"*. c #7B2C00",
"=. c #7C2C00",
"-. c #7F2D00",
";. c #603212",
":. c #613A1A",
">. c #623F1F",
",. c #643E1C",
"<. c #664826",
"1. c #664A29",
"2. c #674F2E",
"3. c #7F572D",
"4. c #665433",
"5. c #685433",
"6. c #6B5533",
"7. c #6B5633",
"8. c #6C5633",
"9. c #802D00",
"0. c #852F00",
"q. c #873000",
"w. c #8A3000",
"e. c #8A3100",
"r. c #933400",
"t. c #943500",
"y. c #963500",
"u. c #923704",
"i. c #983600",
"p. c #9C3700",
"a. c #943905",
"s. c #993D08",
"d. c #A13900",
"f. c #A63B00",
"g. c #AA3C00",
"h. c #AB3C00",
"j. c #B03E00",
"k. c #9E410A",
"l. c #A0450D",
"z. c #B84100",
"x. c #BA4200",
"c. c #BC4200",
"v. c #BE4300",
"b. c #A64C13",
"n. c #AB541A",
"m. c #B35214",
"M. c #8A5B2D",
"N. c #896033",
"B. c #A46A33",
"V. c #C04400",
"C. c #C44500",
"Z. c #CA4700",
"A. c #CF4900",
"S. c #D54B00",
"D. c #D9580D",
"F. c #E55100",
"G. c #E65100",
"H. c #E85B0A",
"J. c #E95E0D",
"K. c #EA6413",
"L. c #EB6B1A",
"P. c #D76F26",
"I. c #C07333",
"U. c #D47A33",
"Y. c #E37A2D",
"T. c #E47A2D",
"R. c #E67C2E",
"E. c #EF7E2D",
"W. c #A67C46",
"Q. c #AE7F46",
"!. c #F08433",
"~. c #F18635",
"^. c #F18A39",
"/. c #F28E3D",
"(. c #B0864D",
"). c #B7884D",
"_. c #CD9F5D",
"`. c #D09753",
"'. c #D89D56",
"]. c #EC9546",
"[. c #EE9B4D",
"{. c #F49746",
"}. c #F59B4A",
"|. c #F59E4D",
" X c #F59F4E",
".X c #E79F53",
"XX c #E3A75E",
"oX c #F2A353",
"OX c #F5A453",
"+X c #F7A453",
"@X c #F4A656",
"#X c #F7A756",
"$X c #F7A958",
"%X c #F8AC5B",
"&X c #F8AD5C",
"*X c #F9AF5E",
"=X c #F9B05F",
"-X c #C6A262",
";X c #D6AA66",
":X c #E5B36A",
">X c #EAB66B",
",X c #F9B160",
"<X c #F9B362",
"1X c #F9B463",
"2X c #FAB463",
"3X c #FAB665",
"4X c #FAB766",
"5X c #F0BB6E",
"6X c #FBBC6B",
"7X c #FBBD6C",
"8X c #FBBE6D",
"9X c #FCBE6D",
"0X c #F2BE71",
"qX c #FCC06F",
"wX c #FCC372",
"eX c #FDC473",
"rX c #FDC877",
"tX c #FECC7B",
"yX c #FECD7C",
"uX c #FFD180",
"iX c None",
/* pixels */
"iXiXiXiXiXiXiXiXiXiXiXiXiX,X,XrXiXiXiXiXiXiX8X,X,X,X,X<XtXiXiXiXiXiXuX4X,X,X,X,X3XuXiXiXiXiXiXyX1X,X,XiXiXiXiXiXiXiXiXiXiXiXiXiX",
"iXiXiXiXiXiXiXiXiXiXiXiXiXG.G.&XiXiXiXiXiXiX!.G.G.G.G.H.7XiXiXiXiXiXuXL.G.G.G.G.K.uXiXiXiXiXiXqXJ.G.G.iXiXiXiXiXiXiXiXiXiXiXiXiX",
"iXiXiXiXiXiXiXiXiXiXiXiXiXG.G.&XiXiXiXiXiXiX!.G.G.G.G.H.7XiXiXiXiXiXuXL.G.G.G.G.K.uXiXiXiXiXiXqXJ.G.G.iXiXiXiXiXiXiXiXiXiXiXiXiX",
"iXiXiXiXiXiXiXiXiXiXiXiXiXG.G.&XiXiXiXiXiXiX!.G.G.G.G.H.7XiXiXiXiXiXuXL.G.G.G.G.K.uXiXiXiXiXiXqXJ.G.G.iXiXiXiXiXiXiXiXiXiXiXiXiX",
"iXiXiXiXiXiXiXiXiXiXiXiXiXG.G.&XiXiXiXiXiXiX!.G.G.G.G.H.7XiXiXiXiXiXuXL.G.G.G.G.K.uXiXiXiXiXiXqXJ.G.G.iXiXiXiXiXiXiXiXiXiXiXiXiX",
"iXiXiXiXiXiXiXiXiXiXiXiXiXy.y.XXiXiXiXiXiXuXI.y.y.y.y.k.5XiXiXiXiXiXuXn.y.y.y.y.b.uXiXiXiXiXiX0Xl.y.y.iXiXiXiXiXiXiXiXiXiXiXiXiX",
"iXiXiXiXiXiXiXiXiXiXiXiXiXe.e.P.!.!.B.U.!.!.m.e.@.m e.u.Y.!.!.N.!.!.!.k.e.) ! e.s.!.!.!.N.!.!.R.a.e.V iXiXiXiXiXiXiXiXiXiXiXiXiX",
"iXiXiXiXiXiXiXiXiXiXiXiXiXG.G.G.G.G.O.z.G.G.G.G.v.X.G.G.G.G.G.n G.G.G.G.G.y.e.G.G.G.G.G.n G.G.G.G.G.O.iXiXiXiXiXiXiXiXiXiXiXiXiX",
"iXiXiXiXiXiXiXiXiXiXiXiXiXC.C.C.C.C.^ p.C.C.C.C.d.! C.C.C.C.C.g C.C.C.C.C.-.#.C.C.C.C.C.g C.C.C.C.C.^ iXiXiXiXiXiXiXiXiXiXiXiXiX",
"iXiXiXiXiXiXiXiXiXiXiXiXiX` ` 7 ! ` ` ` ` M x ` ` ` ` ~ 5 ` ` ` ` ` t L ` ` ` ` T w ` ` ` ` ` 7 ! ` ` iXiXiXiXiXiXiXiXiXiXiXiXiX",
"iXiXiXiXiXiXiXiXiXiXiXiXiXG.G.W A.G.G.G.G.y.e.G.G.G.G.S.I G.G.G.G.G.O.z.G.G.G.G.C.` G.G.G.G.G.W A.G.G.iXiXiXiXiXiXiXiXiXiXiXiXiX",
"iXiXiXiXiXiXiXiXiXiXiXiXiXG.G.W A.G.G.G.G.y.e.G.G.G.G.S.I G.G.G.G.G.O.z.G.G.G.G.C.` G.G.G.G.G.W A.G.G.iXiXiXiXiXiXiXiXiXiXiXiXiX",
"iXiXiXiXiXiXiXiXiXiXiXiXiXn n h c n 8 % % @ + % % 5 n v h n n < n n j x n y % % $ o % % : n n h c n 8 iXiXiXiXiXiXiXiXiXiXiXiXiX",
"iXiXiXiXiXiXiXiXiXiXiXiXiXG.G.G.G.G.O.            _ G.G.G.G.G.n G.G.G.G.G.y.            a G.G.G.G.G.O.iXiXiXiXiXiXiXiXiXiXiXiXiX",
"iXiXiXiXiXiXiXiXiXiXiXiXiXG.G.G.G.G.O.            _ G.G.G.G.G.n G.G.G.G.G.y.            a G.G.G.G.G.O.iXiXiXiXiXiXiXiXiXiXiXiXiX",
"iXiXiXiXiXiXiXiXiXiXiXiXiXW W S T W f o           7 W R A W W w W W F U W N #           * W W S T W f iXiXiXiXiXiXiXiXiXiXiXiXiX",
"iXiXiXiXiXiXiXiXiXiXiXiXiXA.A.K x.A.A.t           ! A.V.D A.A.A.A.A.' f.A.A.!           t A.A.K x.A.A.iXiXiXiXiXiXiXiXiXiXiXiXiX",
"iXiXiXiXiXiXiXiXiXiXiXiXiXG.G.W A.G.G.a           _ G.S.I G.G.G.G.G.O.z.G.G._           a G.G.W A.G.G.iXiXiXiXiXiXiXiXiXiXiXiXiX",
"iXiXiXiXiXiXiXiXiXiXiXiXiXO.O.q ' O.O.;           t O.| 9 O.O.O.O.O.s ! O.O.t           ; O.O.q ' O.O.iXiXiXiXiXiXiXiXiXiXiXiXiX",
"iXiXiXiXiXiXiXiXiXiXiXiXiXz.z.z.z.z.!             L z.z.z.z.z.a z.z.z.z.z.&.            w z.z.z.z.z.! iXiXiXiXiXiXiXiXiXiXiXiXiX",
"iXiXiXiXiXiXiXiXiXiXiXiXiXG.G.G.G.G.O.            _ G.G.G.G.G.n G.G.G.G.G.y.            a G.G.G.G.G.O.iXiXiXiXiXiXiXiXiXiXiXiXiX",
"iXiXiXiXiXiXiXiXiXiXiXiXiXy.y.y.y.y.D             M y.y.y.y.y.w y.y.y.y.y...            5 y.y.y.y.y.D iXiXiXiXiXiXiXiXiXiXiXiXiX",
"iXiXiXiXiXiXiXiXiXiXiXiXiXe.e.d =.e.e.3           x e.9.p e.e.e.e.e.V +.e.e.x           3 e.e.d =.e.e.iXiXiXiXiXiXiXiXiXiXiXiXiX",
"iXiXiXiXiXiXiXiXiXiXiXiXiXG.G.W A.G.G.a           _ G.S.I G.G.G.G.G.O.z.G.G._           a G.G.W A.G.G.iXiXiXiXiXiXiXiXiXiXiXiXiX",
"iXiXiXiXiXiXiXiXiXiXiXiXiXv.v.D h.v.v.e           U v.j.V v.v.v.v.v.~ i.v.v.U           e v.v.D h.v.v.iXiXiXiXiXiXiXiXiXiXiXiXiX",
"iXiXiXiXiXiXiXiXiXiXiXiX-X8.8.2.o.X.s P _ ;.4.4.4.5.8.7.1.X.X.4 X.X.,.6.8.8.5.4.4.>._ _ 1 X.X.<.7.8.8.-XiXiXiXiXiXiXiXiXiXiXiXiX",
"E.E.%XiXiXiXiXiXiX=XE.E.E.E.E.*XJ.G.O.z.G.E. XE.E.E.E.!.&XG.G.n G.G.{./.E.E.E.E.^.|.G.G.n G.G.$X~.E.E.E.E.}.iXiXiXiXiXiX9XE.E.E.",
"G.G.{.iXiXiXiXiXiX|.G.G.G.G.G.OXD.S.| g.S.T.!.G.G.G.G.H.@XS.S.l S.S.].L.G.G.G.G.K.[.S.S.l S.S.oXJ.G.G.G.G.E.iXiXiXiXiXiX2XG.G.G.",
"G.G.{.iXiXiXiXiXiX|.G.G.G.G.G..X{ I m G I M.!.G.G.G.G.H.'.I I l I I Q.L.G.G.G.G.K.).I I l I I `.J.G.G.G.G.E.iXiXiXiXiXiX2XG.G.G.",
"G.G.{.iXiXiXiXiXiX|.G.G.G.G.G.+XJ.G.G.G.G.E.!.G.G.G.G.H.#XG.G.G.G.G.{.L.G.G.G.G.K.|.G.G.G.G.G.+XJ.G.G.G.G.E.iXiXiXiXiXiX2XG.G.G.",
"G.G.{.iXiXiXiXiXiX|.G.G.G.G.G.+XJ.G.G.G.G.E.!.G.G.G.G.H.#XG.G.G.G.G.{.L.G.G.G.G.K.|.G.G.G.G.G.+XJ.G.G.G.G.E.iXiXiXiXiXiX2XG.G.G.",
"n n W.uXuXuXuXuXuX(.n n n n n _.1X,X,X,X,X6XN.n n n n / :X,X,X,X,X,XwX:.n n n n } eX,X,X,X,X,X>X( n n n n 3.uXuXuXuXuXuX;Xn n n ",
"G.G.G.G.G.y.e.G.G.G.G.G.n G.G.G.G.G.O.z.G.G.G.G.v.X.G.G.G.G.G.n G.G.G.G.G.y.e.G.G.G.G.G.n G.G.G.G.G.O.z.G.G.G.G.v.X.G.G.G.G.G.n ",
"G.G.G.G.G.y.e.G.G.G.G.G.n G.G.G.G.G.O.z.G.G.G.G.v.X.G.G.G.G.G.n G.G.G.G.G.y.e.G.G.G.G.G.n G.G.G.G.G.O.z.G.G.G.G.v.X.G.G.G.G.G.n ",
"O.O.O.O.O.D V O.O.O.O.O.2 O.O.O.O.O.s ! O.O.O.O.~ i O.O.O.O.O.2 O.O.O.O.O.D V O.O.O.O.O.2 O.O.O.O.O.s ! O.O.O.O.~ i O.O.O.O.O.2 ",
"z.z.! r.z.z.z.z.p.L z.z.z.z.z.A f.z.z.z.z.&.+.z.z.z.z.g.M z.z.z.z.z.! r.z.z.z.z.p.L z.z.z.z.z.A f.z.z.z.z.&.+.z.z.z.z.g.M z.z.z.",
"G.G.O.z.G.G.G.G.C.` G.G.G.G.G.W A.G.G.G.G.y.e.G.G.G.G.S.I G.G.G.G.G.O.z.G.G.G.G.C.` G.G.G.G.G.W A.G.G.G.G.y.e.G.G.G.G.S.I G.G.G.",
"y.y.D &.y.y.y.y.-.M y.y.y.y.y.k q.y.y.y.y...) y.y.y.y.e.f y.y.y.y.y.D &.y.y.y.y.-.M y.y.y.y.y.k q.y.y.y.y...) y.y.y.y.e.f y.y.y.",
"e.e.e.e.e.) ! e.e.e.e.e.0 e.e.e.e.e.V +.e.e.e.e.@.m e.w.0.K         K 0.w.) ! e.e.e.e.e.0 e.e.e.e.e.V +.e.e.e.e.@.m e.e.e.e.e.0 ",
"G.G.G.G.G.y.e.G.G.G.G.G.n G.G.G.G.G.O.z.G.G.G.G.v.X.F.Z.B >         > B Z.t.e.G.G.G.G.G.n G.G.G.G.G.O.z.G.G.G.G.v.X.G.G.G.G.G.n ",
"C.C.C.C.C.-.#.C.C.C.C.C.g C.C.C.C.C.^ p.C.C.C.C.d.! c.E X             X E %.#.C.C.C.C.C.g C.C.C.C.C.^ p.C.C.C.C.d.! C.C.C.C.C.g ",
"` ` t L ` ` ` ` T w ` ` ` ` ` 7 ! ` ` ` ` M x ` ` ` 7                     7 ` ` T w ` ` ` ` ` 7 ! ` ` ` ` M x ` ` ` ` ~ 5 ` ` ` ",
"G.G.O.z.G.G.G.G.C.` G.G.G.G.G.W A.G.G.G.G.y.e.G.G.g.3                     3 g.G.C.` G.G.G.G.G.W A.G.G.G.G.y.e.G.G.G.G.S.I G.G.G.",
"G.G.O.z.G.G.G.G.C.` G.G.G.G.G.W A.G.G.G.G.y.e.G.G.e.                        e.G.C.` G.G.G.G.G.W A.G.G.G.G.y.e.G.G.G.G.S.I G.G.G.",
"n n j x n y r n c j n n < n n h c n 8 d n z l n h @                         0 n c j n n < n n h c n 8 d n z l n h 6 n v h n n < ",
"G.G.G.G.G.y.e.G.G.G.G.G.n G.G.G.G.G.O.z.G.G.G.G.v.O                         e.G.G.G.G.G.n G.G.G.G.G.O.z.G.G.G.G.v.X.G.G.G.G.G.n ",
"G.G.G.G.G.y.e.G.G.G.G.G.n G.G.G.G.G.O.z.G.G.G.G.v.O                         e.G.G.G.G.G.n G.G.G.G.G.O.z.G.G.G.G.v.X.G.G.G.G.G.n ",
"W W F U W N b W Y D W W w W W S T W f G W K J W J &                         d W Y D W W w W W S T W f G W K J W J s W R A W W w ",
"A.A.' f.A.A.A.A.j.! A.A.A.A.A.K x.A.A.A.A.q.=.A.A.=.                        =.A.j.! A.A.A.A.A.K x.A.A.A.A.q.=.A.A.A.A.V.D A.A.A.",
"G.G.O.z.G.G.G.G.C.` G.G.G.G.G.W A.G.G.G.G.y.e.G.G.e.                        e.G.C.` G.G.G.G.G.W A.G.G.G.G.y.e.G.G.G.G.S.I G.G.G.",
"O.O.s ! O.O.O.O.^ y O.O.O.O.O.q ' O.O.O.O.D V O.O.V                         V O.^ y O.O.O.O.O.q ' O.O.O.O.D V O.O.O.O.| 9 O.O.O.",
"z.z.z.z.z.&.+.z.z.z.z.z.a z.z.z.z.z.! r.z.z.z.z.i.o                         +.z.z.z.z.z.a z.z.z.z.z.! r.z.z.z.z.i.T z.z.z.z.z.a ",
"G.G.G.G.G.y.e.G.G.G.G.G.n G.G.G.G.G.O.z.G.G.G.G.v.O                         e.G.G.G.G.G.n G.G.G.G.G.O.z.G.G.G.G.v.X.G.G.G.G.G.n ",
"y.y.y.y.y...) y.y.y.y.y.w y.y.y.y.y.D &.y.y.y.y.*..                         ) y.y.y.y.y.w y.y.y.y.y.D &.y.y.y.y.*.Z y.y.y.y.y.w ",
"e.e.V +.e.e.e.e.$.x e.e.e.e.e.d =.e.e.e.e.) ! e.e.!                         ! e.$.x e.e.e.e.e.d =.e.e.e.e.) ! e.e.e.e.9.p e.e.e.",
"G.G.O.z.G.G.G.G.C.` G.G.G.G.G.W A.G.G.G.G.y.e.G.G.e.                        e.G.C.` G.G.G.G.G.W A.G.G.G.G.y.e.G.G.G.G.S.I G.G.G.",
"v.v.~ i.v.v.v.v.d.U v.v.v.v.v.D h.v.v.v.v.*.@.v.v.@.                        @.v.d.U v.v.v.v.v.D h.v.v.v.v.*.@.v.v.v.v.j.V v.v.v.",
"X.X.[  .X.S B X. .] X.X.4 X.X.]  .X.s R X.| | X.Q O                         m X. .] X.X.4 X.X.]  .X.s R X.| | X.Q p X. .] X.X.4 ",
"G.G.G.G.G.y.e.G.G.G.G.G.n G.G.G.G.G.O.z.G.G.G.G.v.O                         e.G.G.G.G.G.n G.G.G.G.G.O.z.G.G.G.G.v.X.G.G.G.G.G.n ",
"S.S.S.S.S.e.9.S.S.S.S.S.l S.S.S.S.S.| g.S.S.S.S.j.o                         9.S.S.S.S.S.l S.S.S.S.S.| g.S.S.S.S.j.) S.S.S.S.S.l ",
"I I h S I A C I F s I I l I I p H I m G I m c I H 3                         p I F s I I l I I p H I m G I m c I H n I J u I I l ",
"G.G.O.z.G.G.G.G.C.` G.G.G.G.G.W A.G.G.G.G.y.e.G.G.e.                        e.G.C.` G.G.G.G.G.W A.G.G.G.G.y.e.G.G.G.G.S.I G.G.G.",
"G.G.O.z.G.G.G.G.C.` G.G.G.G.G.W A.G.G.G.G.y.e.G.G.e.                        e.G.C.` G.G.G.G.G.W A.G.G.G.G.y.e.G.G.G.G.S.I G.G.G.",
"n n 2 a n n n n g , n n n n n - k n n n n w 0 n n 0                         0 n g , n n n n n - k n n n n w 0 n n n n l = n n n "
};
