/* XPM */
static char *b9c8a8415d034681c0f509ff31c1cdb26UQST12lWDlMGUtx[] = {
/* columns rows colors chars-per-pixel */
"64 64 232 2 ",
"   c #351F1F",
".  c #3F1C1C",
"X  c #3A291D",
"o  c #3B1F23",
"O  c #242424",
"+  c #2B2424",
"@  c #25272C",
"#  c #27292B",
"$  c #2B2A29",
"%  c #332B23",
"&  c #342B29",
"*  c #3A2626",
"=  c #3C3329",
"-  c #282D35",
";  c #2E3235",
":  c #343739",
">  c #3C2631",
",  c #4A1919",
"<  c #441B1B",
"1  c #571617",
"2  c #7A0B0C",
"3  c #651112",
"4  c #671417",
"5  c #750E11",
"6  c #462C16",
"7  c #52351B",
"8  c #4B2C16",
"9  c #653103",
"0  c #6C3305",
"q  c #6C3F13",
"w  c #74360A",
"e  c #4B1C23",
"r  c #561C24",
"t  c #671824",
"y  c #7A1221",
"u  c #452A2A",
"i  c #4D322F",
"p  c #47392C",
"a  c #443A31",
"s  c #573A32",
"d  c #51312B",
"f  c #663935",
"g  c #713531",
"h  c #794412",
"j  c #514832",
"k  c #64462B",
"l  c #63533F",
"z  c #6F5135",
"x  c #796C2D",
"c  c #2B3749",
"v  c #2B3852",
"b  c #343C48",
"n  c #793B4D",
"m  c #3B454B",
"M  c #394247",
"N  c #384658",
"B  c #2E415C",
"V  c #2F446B",
"C  c #324967",
"Z  c #314977",
"A  c #324C7C",
"S  c #365778",
"D  c #424D55",
"F  c #47545C",
"G  c #515151",
"H  c #5B5C5D",
"J  c #4B464B",
"K  c #715452",
"L  c #4A5B67",
"P  c #4F5C70",
"I  c #4F626C",
"U  c #556A76",
"Y  c #566B77",
"T  c #566874",
"R  c #666769",
"E  c #666874",
"W  c #707172",
"Q  c #756757",
"!  c #880709",
"~  c #9C0102",
"^  c #950305",
"/  c #940B15",
"(  c #A30004",
")  c #A7020B",
"_  c #B1000D",
"`  c #AA061B",
"'  c #B90013",
"]  c #B50216",
"[  c #853C16",
"{  c #970C21",
"}  c #851223",
"|  c #971931",
" . c #B10F2B",
".. c #BA2E24",
"X. c #C4011A",
"o. c #CB011E",
"O. c #C10017",
"+. c #CE0221",
"@. c #DE092E",
"#. c #D50527",
"$. c #D7112B",
"%. c #E50D35",
"&. c #EE123E",
"*. c #D6332A",
"=. c #93411F",
"-. c #8C4A13",
";. c #A75506",
":. c #B05A0C",
">. c #B96114",
",. c #87433C",
"<. c #904F28",
"1. c #AD4F30",
"2. c #8D732F",
"3. c #B16A31",
"4. c #CB583A",
"5. c #F05F3D",
"6. c #E85237",
"7. c #D67630",
"8. c #E07E37",
"9. c #C5691F",
"0. c #984B42",
"q. c #945B44",
"w. c #855744",
"e. c #A24B44",
"r. c #A95248",
"t. c #B55149",
"y. c #BB564C",
"u. c #9A6346",
"i. c #937355",
"p. c #B16E4C",
"a. c #927565",
"s. c #C95845",
"d. c #DA5C52",
"f. c #DB5C4D",
"g. c #E25F53",
"h. c #C86B51",
"j. c #D97655",
"k. c #D1704E",
"l. c #E96456",
"z. c #E96957",
"x. c #E76757",
"c. c #E9795A",
"v. c #B89534",
"b. c #BCA834",
"n. c #928535",
"m. c #E59738",
"M. c #EAB339",
"N. c #D4A237",
"B. c #A5825B",
"V. c #BC9365",
"C. c #B18B61",
"Z. c #BFA77C",
"A. c #CB9D57",
"S. c #C89858",
"D. c #D08258",
"F. c #EA8C5D",
"G. c #E7885C",
"H. c #CEA256",
"J. c #D0A655",
"K. c #D4AC54",
"L. c #D6B053",
"P. c #D9B552",
"I. c #DDBB51",
"U. c #D39569",
"Y. c #EC9664",
"T. c #EC8A6E",
"R. c #EFA26B",
"E. c #F3B97B",
"W. c #E6B076",
"Q. c #D6A771",
"!. c #E0C050",
"~. c #375A8C",
"^. c #375986",
"/. c #334F80",
"(. c #3D6B9E",
"). c #3B6593",
"_. c #3B6289",
"`. c #3F70A5",
"'. c #5C7583",
"]. c #5F7987",
"[. c #627D8C",
"{. c #687583",
"}. c #717681",
"|. c #4175AA",
" X c #4476A8",
".X c #437BB2",
"XX c #6D7FA0",
"oX c #698696",
"OX c #6E8692",
"+X c #4882BA",
"@X c #6E8FA0",
"#X c #7193A5",
"$X c #7798AC",
"%X c #7397B0",
"&X c #7DA3B8",
"*X c #4A89C6",
"=X c #5294D3",
"-X c #74ABDD",
";X c #7AA1C8",
":X c #6B98C3",
">X c #87898A",
",X c #939393",
"<X c #88A7BF",
"1X c #ACADAE",
"2X c #AB9595",
"3X c #F1AF86",
"4X c #CCB9B3",
"5X c #D9A196",
"6X c #F5C793",
"7X c #F4C6A4",
"8X c #F5D5B4",
"9X c #EACEAF",
"0X c #84ABC4",
"qX c #88B4CC",
"wX c #8DBAD3",
"eX c #98B9D9",
"rX c #92BCE4",
"tX c #A6B6CA",
"yX c #95C6E1",
"uX c #B8D1E9",
"iX c #C7C8C9",
"pX c #D4D4D8",
"aX c #F6DFC5",
"sX c #F1E7DC",
"dX c #D3DCE6",
"fX c #E6E7E8",
"gX c #F8EDE5",
"hX c #FBF0EA",
"jX c #F6F6F6",
"kX c #F3F5F8",
"lX c #E2EAF1",
"zX c #CFE0EF",
/* pixels */
"S.S.S.S.S.S.S.S.S.S.S.S.S.S.J.I.!.I.J.S.S.S.S.S.S.S.S.Y O O O O O O O O U S.S.S.S.S.S.J.I.!.!.K.S.S.S.S.S.S.S.S.S.S.S.S.S.S.S.S.",
"S.S.S.S.S.S.S.S.S.S.S.S.S.S.K.!.!.I.J.A.S.S.S.S.S.A.J.T   X   o o u * * T S.S.S.S.S.S.H.I.!.!.K.S.S.S.S.S.S.A.H.J.K.H.S.S.S.S.S.",
"S.S.S.S.S.S.S.S.S.S.S.S.S.S.K.I.!.!.J.S.S.S.<X[.'.'.R n } } } } | | | | n E @XqXS.S.S.H.I.!.!.L.S.S.S.S.S.S.H.I.!.!.L.S.S.S.S.S.",
"S.S.S.S.S.S.S.S.S.S.S.S.S.S.K.!.!.I.J.S.S.S.[.: O O e } o.o.X.+.%.&.&.&.| e F $XS.S.S.H.P.!.!.K.S.S.S.S.S.A.H.I.!.!.K.S.S.S.S.S.",
"S.S.S.S.S.S.S.S.S.A.A.S.S.S.H.P.P.P.H.S.0XXXR t t t y ` +.$.*.*.6.5.5.8.e.u D $XA.S.S.H.L.P.P.J.S.S.S.S.S.S.H.I.!.!.K.S.S.S.S.S.",
"S.S.S.S.S.S.S.S.A.P.P.H.S.S.A.A.S.S.S.wX'.J g ` ` ` ` X.+.*.6.m.m.M.M.M.3.j N &XH.S.S.A.A.A.H.A.S.S.S.S.S.S.H.I.!.!.K.S.S.S.S.S.",
"S.S.S.S.S.S.S.S.A.P.P.A.S.S.S.S.S.S.qX@XG 1 } X.+.X.' ' ] ..3.3.v.b.b.b.x p m OX0XS.S.S.S.S.S.S.S.S.S.S.S.S.H.J.K.K.H.S.S.S.S.S.",
"S.S.S.S.S.S.S.S.A.L.P.H.S.S.S.S.S.0X'.H t 2 ) X.X.' _ _ ) } g k k x j x j % ; m I I I oXS.S.S.S.S.S.S.S.S.S.S.S.S.S.S.S.S.S.S.S.",
"S.S.S.S.S.S.S.S.S.H.H.A.S.S.S.S.S.oXM < 2 ~ _ X.] ~ ^ ^ ^ 3 o O O O O O O O O O O O O L &XA.S.S.S.S.S.S.S.S.S.S.S.S.S.S.S.S.S.S.",
"S.S.S.S.S.S.S.S.S.S.S.S.S.S.S.&XOXH t 5 ! ( ) _ / 5 3 3 1 < + O O O O O O O O O O O O M U #XqXA.S.S.S.S.S.S.S.S.S.S.S.S.S.S.S.S.",
"S.S.S.S.S.S.S.S.S.S.S.S.S.S.S.[.; r ! ^ ~ ~ ( ~ 2 , + + + + o O O O O O O O O O O O O @ - N %XS.S.S.S.S.S.S.S.S.S.S.S.S.S.S.S.S.",
"S.S.S.S.S.S.S.S.S.S.S.S.S.S.S.'.# 1 ! ~ ~ ~ ! 2 1   * u f K W W W R K g i & O O O O O : F ].<XS.S.S.S.S.S.S.S.S.S.S.S.S.S.S.S.S.",
"A.A.A.A.S.S.S.S.S.S.S.S.S.S.S.'.# 1 ! ~ ~ ~ 5 ,   + * ,.d.2X4XiXiX4X5Xt.n u O O O O @ F @XwXS.S.S.S.S.S.S.S.S.S.S.S.S.H.A.A.A.S.",
"P.P.P.K.S.S.S.S.S.S.S.S.S.S.&XI O , 5 ! ! 2 1 . * u f r.z.5XhXkXfXpX5Xz.e.u # M m m m ].qXS.S.S.S.S.S.S.S.S.S.S.S.S.J.P.P.L.H.S.",
"!.!.I.P.S.S.S.S.S.H.H.S.S.U I m O X , 1 1 , , 8 q ,.r.k.c.7XhXzXtX,X2Xc.e.i M Y #X#X#X0XS.S.S.S.S.S.S.S.S.S.S.S.S.S.K.!.!.I.H.S.",
"!.!.!.K.S.S.S.S.A.P.P.H.S.O O O O % $ + + + 6 9 =.4.z.c.T.7XhXpXOXP a.c.u.p m I.K.S.S.S.S.S.S.S.S.S.S.S.S.S.S.S.S.S.K.!.!.I.H.S.",
"!.!.I.P.S.S.S.S.A.P.P.H.S.@ % j ,.z z z 7 6 8 9 =.s.l.c.Y.7XhXiX{.D i.G.u.p : I oXoXoX&XS.S.S.S.S.S.S.S.S.S.S.S.S.S.K.!.!.I.H.S.",
"I.I.I.K.S.S.S.S.A.P.P.H.S.O = K D.G.D.p.<.9 9 9 [ s.l.c.T.7XhX1XR : q.F.u.p # ; : : : Y S.S.S.S.S.S.S.S.S.S.S.A.A.S.J.P.I.P.H.S.",
"H.A.H.A.S.S.S.S.A.P.P.H.S.O u q.F.F.F.7.<.9 9 9 [ 1.s.j.G.3XaX4Xa.z p.F.p.w.l l l l K R @XS.S.S.S.S.S.S.S.S.H.P.K.A.A.H.H.H.A.S.",
"S.S.S.S.S.S.S.S.S.K.K.A.S.O = u.G.F.F.D.<.9 9 9 w -.=.s.z.T.3XT.D.p.D.F.U.U.V.V.V.V.S.a.R Y S.S.S.S.S.S.S.S.H.I.L.S.S.S.S.S.S.S.",
"S.S.S.S.S.S.S.S.S.S.S.S.S.O > q.G.G.Y.k.>.w 0 0 0 w [ 1.z.z.j.D.G.G.G.F.R.E.E.E.E.E.E.B.j m #XS.S.S.S.S.S.S.H.I.L.S.S.S.S.S.S.S.",
"S.S.S.S.S.S.S.S.S.S.S.S.S.O = w.z.G.F.c.s.1.-.0 [ 1.4.f.c.p.w.q.h.c.G.F.Y.R.Y.R.R.R.R.p.j m #XS.S.S.S.S.S.S.A.H.H.S.S.S.S.S.S.S.",
"S.S.S.S.S.S.S.S.S.S.S.S.S.O u 0.l.c.G.c.z.g.1.0 =.s.x.c.F.q.p s t.l.c.F.F.F.F.F.F.F.Y.u.s m #XS.S.S.S.S.S.S.S.S.S.S.S.S.S.S.S.S.",
"S.S.S.S.S.S.S.S.S.S.S.S.S.Y E Q ,.t.j.c.z.g.1.1.1.k.j.p.u.k & u g e.h.c.c.c.c.G.c.p.u.i.E oXS.S.S.S.S.S.S.S.S.S.S.S.S.S.S.S.S.S.",
"S.S.S.S.S.S.S.S.S.S.S.S.S.wX0XE p ,.s.z.l.l.f.f.k.c.k.w.i & O + > s 0.z.z.l.z.z.g.0.s H $XS.S.S.S.S.S.S.S.S.S.S.S.S.S.S.S.S.S.S.",
"S.S.S.S.S.S.S.S.S.S.S.S.S.S.yXoXL K r.y.t.t.d.g.l.c.k.q.s s j i & & g t.y.t.t.t.t.K F oXS.A.S.S.S.Z.S.S.S.S.S.S.S.S.S.S.S.S.S.S.",
"S.S.S.S.S.S.S.S.S.S.S.S.S.S.J.wX&X}.K s f g r.g.z.z.j.p.p.p.p.w.s + i f f f f f l E $XqXK.P.P.J.S.S.S.S.S.S.S.S.S.S.S.S.S.S.S.S.",
"S.S.S.S.S.S.S.S.S.S.S.S.S.S.K.I.I.oXb O O & n s.g.l.z.c.G.F.G.p.l * & & $ + # - M oXS.H.I.!.!.K.S.S.S.S.S.S.A.H.H.H.A.S.S.S.S.S.",
"S.S.S.S.S.S.S.S.S.S.S.S.S.S.J.&X[.L ; O O + s g e.d.l.z.c.c.z.h.r.,.,.0.f & : I oX;XH.J.P.!.!.K.S.S.S.S.S.S.H.P.I.I.J.S.S.S.S.S.",
"S.S.S.S.S.S.S.S.S.S.S.S.S.S.K.].; O @ O O O + + f y.l.l.l.l.l.l.g.d.d.d.0.u N #XS.S.S.J.I.!.!.L.S.S.S.S.S.S.H.I.!.!.K.S.S.S.S.S.",
"S.S.S.S.S.S.S.S.S.S.A.S.S.S.K.'.#   , 1 1 r e + i ,.0.e.e.e.e.e.e.e.e.e.w.R oXqXA.S.S.H.I.I.I.K.S.S.S.S.S.S.H.I.!.!.K.S.S.S.S.S.",
"S.S.S.S.S.S.S.S.S.K.K.A.S.S.A.'.# , 5 ! ` { t + > u i i i i i i i i i i E $XwXP.H.S.S.A.H.H.H.A.S.S.S.S.S.A.H.I.!.!.K.S.S.S.S.S.",
"S.S.S.S.S.S.S.S.A.P.P.H.S.S.$XR e 4 ^ _ X.+.{ r X O O O $ : J G G G J G {.&XwX!.J.S.S.S.S.S.S.S.S.S.S.S.S.S.H.L.P.P.J.S.S.S.S.S.",
"S.S.S.S.S.S.S.S.A.P.P.H.S.P P f 5 ! ` X.#.%. .{ t X O O $ H ,X1X1X1X1X1X>XE oXqXJ.S.S.S.S.S.S.S.S.S.S.S.S.S.S.S.A.S.S.S.S.S.S.S.",
"S.S.S.S.S.S.S.S.A.J.J.A.S.+   3 ^ _ X.#.%.&.@.+.{ e O $ = >XpXjXkXhXkXjX1XH F %XH.S.S.S.S.S.S.S.S.S.S.S.S.S.S.S.S.S.S.S.S.S.S.S.",
"S.S.S.S.S.S.S.S.S.S.S.S.S.O   3 ~ _ X.#.%.&.@.+.{ e = k i.1XsXjXkXkXjXjXiX,X>XOXoX0XS.S.S.S.S.S.S.S.S.S.S.S.S.S.S.S.S.S.S.S.S.S.",
"S.S.S.S.S.S.S.S.S.S.S.S.S.O   3 ~ ) O.#.%.&.@.+.{ e a i.Q.9XgXjXjXjXjXjXfXfX1XW M oXA.S.S.S.S.S.S.S.S.S.S.S.S.S.S.S.S.S.S.S.S.S.",
"S.S.S.S.S.S.S.S.S.S.S.S.S.O   3 ~ _ X.+.@.%.@.#.{ e j B.6X6XaXsXgXjXjXjXjXjXiXW ; ].S.S.S.S.S.S.S.S.S.S.S.S.S.S.S.S.S.S.S.S.S.S.",
"S.S.S.S.S.S.S.S.S.S.S.S.S.O   3 ~ _ X.+.#.#.@.&.| r a B.E.6X6X8XsXjXjXjXjXjXiXW ; oXS.S.S.S.S.S.S.S.S.S.S.S.S.S.S.S.S.S.S.S.S.S.",
"L.K.K.J.S.S.S.S.S.S.S.S.S.O   1 ! ) ' X.X.+.@.&. .t f i.Q.Q.6X6XaXgXgXsXsXpX1XH ; Y 0XyXS.S.S.S.S.S.S.S.S.S.S.S.S.S.H.L.L.K.H.S.",
"!.!.!.L.S.S.S.S.S.A.A.S.S.O + . 1 5 ~ ' X.+.#.#. .` } z w.C.W.6X7X8X8X8X1XB.E M # m Y #XS.S.S.S.S.S.S.S.S.S.S.S.S.S.K.!.!.I.H.S.",
"!.!.!.L.A.S.S.S.A.K.L.H.S.O O O O 1 ! _ ' +.o.o.o.+. .t - w.Q.E.E.E.E.E.B.j @ @ O O O I S.S.S.S.S.S.S.S.S.S.S.S.S.S.K.!.!.I.H.S.",
"!.!.!.K.S.S.S.S.A.P.P.H.S.O O O O < 1 2 ) ' ' ' ' ' ` t # j i.B.B.n.B.B.W L P E W G $ I S.S.S.S.S.S.S.S.S.S.S.S.S.S.K.!.!.I.J.S.",
"!.!.!.L.S.S.S.S.A.P.P.H.S.O O O O +   , 2 ( ) ( ( ( ! r O & a a : a p p L `.:XtXpX}.: I S.S.S.S.S.S.S.S.S.S.S.S.S.S.K.!.!.I.J.S.",
"J.J.J.H.S.S.S.S.A.P.P.A.S.F D : O @ - > 4 2 ! 2 2 ! 4 i c D H H H H F v ).*X-XzXsX>X: I S.S.S.S.S.S.S.S.S.S.H.K.J.S.H.H.J.J.H.S.",
"S.S.S.S.S.S.S.S.A.L.L.H.S.&X#XL @ c v v > < , , , , u b ^.oX1X1X1X1X%X.X.X=X-XuXfX,X: I H.H.S.S.S.S.S.S.S.S.H.I.L.S.S.S.S.S.S.S.",
"S.S.S.S.S.S.S.S.S.A.A.S.S.S.H.'.# c V V c - - @ - - c /. X0XdXlXlXzXrX=X=X=X-XuXpX>X; I L.K.S.S.S.S.S.S.S.S.H.I.L.S.S.S.S.S.S.S.",
"S.S.S.S.S.S.S.S.S.S.S.S.S.S.K.'.+ c V V V v v v v C S )..X%X0XeXyXyX-X=X=X+X*X;X<XY & I I.L.A.S.S.S.S.S.S.S.H.K.H.A.S.S.S.S.S.S.",
"S.S.S.S.S.S.S.S.S.S.S.S.S.S.J.E # c V A A Z A Z ^.(.`.`.`.+X.X*X=X=X=X=X*X.X`.`.`.C # I I.K.A.S.S.S.S.S.S.S.S.S.S.S.S.S.S.S.S.S.",
"S.S.S.S.S.S.S.S.S.S.S.S.S.S.H.].@ c V A A A ^.~.).`.`.`.`.`.`..X*X*X*X*X+X.X`._.S P U @XH.H.S.S.S.S.S.S.S.S.S.S.S.S.S.S.S.S.S.S.",
"S.S.S.S.S.S.S.S.S.S.S.S.S.S.S.'.# c V A A /.~.(.`.`.`.`.`.`.`.`..X.X`..X`.`.).C M ].S.S.S.S.S.S.S.S.S.S.S.S.S.S.S.S.S.S.S.S.S.S.",
"S.S.S.S.S.S.S.S.S.S.S.S.S.S.S.'.# c V A A /.~.(.(.`.`.`.(.(.`.(.`.`.`.`.`.`.^.M - oXS.S.S.S.S.S.S.S.S.S.S.S.S.S.S.S.S.S.S.S.S.S.",
"S.S.S.S.S.S.S.S.S.S.S.S.S.S.H.'.# c V A A A ^.^.~.~.~.~.~.~.~.~.^.^.~.~.~.~.Z c - oXV.A.J.K.K.H.S.S.S.S.S.S.S.S.S.S.S.S.S.S.S.S.",
"S.S.S.S.S.S.S.S.S.S.S.S.S.S.J.].; v V A Z Z Z Z Z A Z Z Z Z Z Z Z Z Z Z Z Z C c M oXS.J.I.!.!.K.S.S.S.S.S.S.S.S.S.A.A.S.S.S.S.S.",
"S.S.S.S.S.S.S.S.S.S.S.S.S.S.J.;XoXI B v v v B c v v v v v v v v v v v v B c C I OX&XS.J.I.!.!.K.S.S.S.S.S.S.H.L.P.P.H.S.S.S.S.S.",
"S.S.S.S.S.S.S.S.S.S.S.S.S.A.K.!.!.oXm @ @ @ O O @ @ @ @ @ @ @ @ @ @ @ @ # # N @XS.S.S.J.I.!.!.K.S.S.S.S.S.S.H.I.!.!.K.S.S.S.S.S.",
"S.S.S.S.S.S.S.S.S.S.S.S.S.S.J.!.!.@Xm $ X 7 7 7 7 k q k k k z j & - m I I I oX&XS.S.S.H.I.!.!.L.S.S.S.S.S.S.H.I.!.!.K.S.S.S.S.S.",
"S.S.S.S.S.S.S.S.A.J.J.A.S.S.H.K.K.#Xm X h -.h -.<.1.3.3.3.v.b.n.j : U A.A.S.H.L.H.S.S.A.J.K.J.H.S.S.S.S.S.S.H.I.!.!.K.S.S.S.S.S.",
"S.S.S.S.S.S.S.S.A.P.P.H.S.S.S.S.S.#XM p h ;.;.;.>.9.7.7.8.m.M.v.x j OXJ.S.A.L.I.J.S.S.S.S.S.S.S.S.S.S.S.S.S.H.P.I.I.J.S.S.S.S.S.",
"S.S.S.S.S.S.S.S.A.P.I.A.S.S.S.S.A.#Xm 6 h ;.;.;.>.>.9.7.7.m.m.v.v.n.Q Y #XV.L.I.H.S.S.S.S.S.S.S.S.S.S.S.S.S.S.H.H.H.A.S.S.S.S.S.",
"S.S.S.S.S.S.S.S.A.K.J.A.S.S.S.S.S.#XM X h ;.;.;.;.;.;.3.m.7.7.m.M.b.x # U A.J.L.H.S.S.S.S.S.S.S.S.S.S.S.S.S.S.S.S.S.S.S.S.S.S.S.",
"S.S.S.S.S.S.S.S.S.S.S.S.S.S.S.S.S.#Xm % 6 q q h h h h -.<.2.<.2.n.n.j # U A.S.S.S.S.S.S.S.S.S.S.S.S.S.S.S.S.S.S.S.S.S.S.S.S.S.S.",
"S.S.S.S.S.S.S.S.S.S.S.S.S.S.S.S.A.@XM O % X X % % % & = = = = = 6 = # O U S.S.S.S.S.S.S.S.S.S.S.S.S.S.S.S.S.S.S.S.S.S.S.S.S.S.S.",
"S.S.S.S.S.S.S.S.S.S.S.S.S.S.S.S.A.#Xm O O O O O O O O O O O O O O O O O U S.S.S.S.S.S.S.S.S.S.S.S.S.S.S.S.S.S.S.S.S.S.S.S.S.S.S."
};
