/* XPM */
static char *result[] = {
/* columns rows colors chars-per-pixel */
"64 64 93 2 ",
"   c #FEFEFE",
".  c gray74",
"X  c black",
"o  c #CBCACA",
"O  c #010101",
"+  c #4A4949",
"@  c gray93",
"#  c #C1C0C0",
"$  c #000001",
"%  c #010000",
"&  c #272425",
"*  c #A24416",
"=  c #A54411",
"-  c #A14415",
";  c #823816",
":  c #A54412",
">  c #120502",
",  c #A54413",
"<  c #A44413",
"1  c #672C12",
"2  c #A64411",
"3  c #A54312",
"4  c #953F1A",
"5  c #030101",
"6  c #96401A",
"7  c #A44414",
"8  c #A24415",
"9  c #52220F",
"0  c #060100",
"q  c #A74411",
"w  c #030000",
"e  c #A24414",
"r  c #491F0D",
"t  c #797877",
"y  c #010001",
"u  c #040404",
"i  c #403F3E",
"p  c #120501",
"a  c #180803",
"s  c #170703",
"d  c #020000",
"f  c #170702",
"g  c #090200",
"h  c #130602",
"j  c #160702",
"k  c #8A3D16",
"l  c #954117",
"z  c #250D06",
"x  c #7A3616",
"c  c #431C0B",
"v  c #A54313",
"b  c #050100",
"n  c #6F2F13",
"m  c #A54314",
"M  c #060101",
"N  c #702F12",
"B  c #050000",
"V  c #6B2E13",
"C  c #A64410",
"Z  c #260F06",
"A  c #A54512",
"S  c #3E190A",
"D  c #53230F",
"F  c #9A4318",
"G  c #2D1108",
"H  c #989897",
"J  c gray3",
"K  c #ECECEC",
"L  c #1B1B1A",
"P  c #230E07",
"I  c #210D08",
"U  c #210D07",
"Y  c #280F08",
"T  c #1D0C06",
"R  c #130502",
"E  c #210E08",
"W  c #260E07",
"Q  c #2B1007",
"!  c #210B05",
"~  c #923F16",
"^  c #95401A",
"/  c #A64412",
"(  c #934018",
")  c #A34415",
"_  c #A14416",
"`  c #451E0D",
"'  c #A44513",
"]  c #984118",
"[  c #A3A3A2",
"{  c #0D0C0D",
"}  c #060606",
"|  c gray24",
" . c #CECECE",
/* pixels */
"  . X X X X X X X X X X X X X X X X X X X X X X X X X X X X X o   O X X X X X X X X X X X X X X X X X X X X X X X X X X X X + @ ",
"# X X $ X X X X X X X X X X X X X X X X X X X X X X X X X X X X X X $ $ X X X X X X X X X X X X X X X X X X X X X X X X X X % & ",
"X X % * = = = = = = = = = = = = = = = = = = = = = = = = = - X X X X ; = = = = = = = = = = = = = = = = = = = = = = = = = : > X X ",
"X X , = = = = = = = = = = = = = = = = = = = = = = = = = = = < X X 1 2 = = = = = = = = = = = = = = = = = = = = = = = = = = 2 X X ",
"X X 3 = = = = = = = = = = = = = = = = = = = = = = = = = = = = X X 4 = = = = = = = = = = = = = = = = = = = = = = = = = = = = 5 X ",
"X X 3 = = = = = = = = = = = = = = = = = = = = = = = = = = = = X X 6 = = = = = = = = = = = = = = = = = = = = = = = = = = = = 5 X ",
"X X 3 = = = = = = = = = = = = = = = = = = = = = = = = = = = = X X 6 = = = = = = = = = = = = = = = = = = = = = = = = = = = = 5 X ",
"X X 3 = = = = = = = = = = = = = = = = = = = = = = = = = = = = X X 6 = = = = = = = = = = = = = = = = = = = = = = = = = = = = 5 X ",
"X X 3 = = = = = = = = = = = = = = = = = = = = = = = = = = = = X X 6 = = = = = = = = = = = = = = = = = = = = = = = = = = = = 5 X ",
"X X 3 = = = = = = = = = = = = = = = = = = = = = = = = = = = = X X 6 = = = = = = = = = = = = = = = = = = = = = = = = = = = = 5 X ",
"X X 3 = = = = = = = = = = = = = = = = = = = = = = = = = = = = X X 6 = = = = = = = = = = = = = = = = = = = = = = = = = = = = 5 X ",
"X X 3 = = = = = = = = = = = = = = = = = = = = = = = = = = = = X X 6 = = = = = = = = = = = = = = = = = = = = = = = = = = = = 5 X ",
"X X 3 = = = = = = = = = = = = = = = = = = = = = = = = = = = = X X 6 = = = = = = = = = = = = = = = = = = = = = = = = = = = = 5 X ",
"X X 3 = = = = = = = = = = = = = = = = = = = = = = = = = = = = X X 6 = = = = = = = = = = = = = = = = = = = = = = = = = = = = 5 X ",
"X X 3 = = = = = = = = = = = = = = = = = = = = = = = = = = = = X X 6 = = = = = = = = = = = = = = = = = = = = = = = = = = = = 5 X ",
"X X 3 = = = = = = = = = = = = = = = = = = = = = = = = = = = = X X 6 = = = = = = = = = = = = = = = = = = = = = = = = = = = = 5 X ",
"X X 3 = = = = = = = = = = = = = = = = = = = = = = = = = = = = X X 6 = = = = = = = = = = = = = = = = = = = = = = = = = = = = 5 X ",
"X X 3 = = = = = = = = = = = = = = = = = = = = = = = = = = = = X X 6 = = = = = = = = = = = = = = = = = = = = = = = = = = = = 5 X ",
"X X 7 = = = = = = = = = = = = = = = = = = = = = = = = = = = 8 X X 9 = = = = = = = = = = = = = = = = = = = = = = = = = = = = X X ",
"X X 0 : = = = = = = = = = = = = = = = = = = = = = = = = = q w X X X e = = = = = = = = = = = = = = = = = = = = = = = = = = r X X ",
"t X X X y % % % % % % % % % % % % % % % % % % % % % % % % X X X X X X y % % % % % % % % % % % % % % % % % % % % % % % % X X X u ",
"@ O X X X X X X X X X X X X X X X X X X X X X X X X X X X X X X X X X X X X X X X X X X X X X X X X X X X X X X X X X X X X X   ",
"i X X X p a a a a a a a s d X X X X X w f a a a a a a a a a a a a a a a a a a a a a a a g X X X X X y h a a a a a a a j d X X O ",
"X X s = = = = = = = = = = = k X X X l = = = = = = = = = = = = = = = = = = = = = = = = = = : X X $ z 2 = = = = = = = = = = x X X ",
"X X < = = = = = = = = = = = = % X % = = = = = = = = = = = = = = = = = = = = = = = = = = = = c X X : = = = = = = = = = = = = X X ",
"X X v = = = = = = = = = = = = d X b = = = = = = = = = = = = = = = = = = = = = = = = = = = = n X $ = = = = = = = = = = = = = d X ",
"X X m = = = = = = = = = = = = d X M = = = = = = = = = = = = = = = = = = = = = = = = = = = = N X X : = = = = = = = = = = = = d X ",
"X X m = = = = = = = = = = = = d X M = = = = = = = = = = = = = = = = = = = = = = = = = = = = N X X : = = = = = = = = = = = = d X ",
"X X m = = = = = = = = = = = = d X M = = = = = = = = = = = = = = = = = = = = = = = = = = = = N X X : = = = = = = = = = = = = d X ",
"X X m = = = = = = = = = = = = d X M = = = = = = = = = = = = = = = = = = = = = = = = = = = = N X X : = = = = = = = = = = = = d X ",
"X X m = = = = = = = = = = = = d X M = = = = = = = = = = = = = = = = = = = = = = = = = = = = N X X : = = = = = = = = = = = = d X ",
"X X m = = = = = = = = = = = = d X M = = = = = = = = = = = = = = = = = = = = = = = = = = = = N X X : = = = = = = = = = = = = d X ",
"X X m = = = = = = = = = = = = d X M = = = = = = = = = = = = = = = = = = = = = = = = = = = = N X X : = = = = = = = = = = = = d X ",
"X X m = = = = = = = = = = = = d X M = = = = = = = = = = = = = = = = = = = = = = = = = = = = N X X : = = = = = = = = = = = = d X ",
"X X m = = = = = = = = = = = = d X M = = = = = = = = = = = = = = = = = = = = = = = = = = = = N X X : = = = = = = = = = = = = d X ",
"X X m = = = = = = = = = = = = d X M = = = = = = = = = = = = = = = = = = = = = = = = = = = = N X X : = = = = = = = = = = = = d X ",
"X X m = = = = = = = = = = = = d X M = = = = = = = = = = = = = = = = = = = = = = = = = = = = N X X : = = = = = = = = = = = = d X ",
"X X m = = = = = = = = = = = = d X M = = = = = = = = = = = = = = = = = = = = = = = = = = = = N X X : = = = = = = = = = = = = d X ",
"X X : = = = = = = = = = = = = d X B = = = = = = = = = = = = = = = = = = = = = = = = = = = = V X X = = = = = = = = = = = = = % X ",
"X $ - C = = = = = = = = = = = X X X : = = = = = = = = = = = = = = = = = = = = = = = = = = = Z X X 7 = = = = = = = = = = = = X X ",
"X X d A = = = = = = = = = 2 S X X X D : = = = = = = = = = = = = = = = = = = = = = = = = = F X X X B = = = = = = = = = = = G X X ",
"H X X X X X X X X X X X X X X X X X X X X X X X X X X X % % % % % % % % $ X X X X X X X X X X X X X $ X X X X X X X X X X X % J ",
"  X X X X X X X X X X X X X X X X X X X X X X X X X X X X X X X X X X X X X X X X X X X X X X X X X X X X X X X X X X X X X X K ",
"L X X % P I I I I I I I U Y Y Y Y Y Y Y U I I I I I I U T % X X X X X R I I I I I I I E Y Y Y Y Y Y Y W I I I I I I I P B X X X ",
"X X Q 2 = = = = = = = = = = = = = = = = = = = = = = = = = = ! X X y : = = = = = = = = = = = = = = = = = = = = = = = = = = ~ X X ",
"X X , = = = = = = = = = = = = = = = = = = = = = = = = = = = < X X n = = = = = = = = = = = = = = = = = = = = = = = = = = = = y X ",
"X X 3 = = = = = = = = = = = = = = = = = = = = = = = = = = = = X X ^ = = = = = = = = = = = = = = = = = = = = = = = = = = = = d X ",
"X X 3 = = = = = = = = = = = = = = = = = = = = = = = = = = = = X X 6 = = = = = = = = = = = = = = = = = = = = = = = = = = = = 5 X ",
"X X 3 = = = = = = = = = = = = = = = = = = = = = = = = = = = = X X 6 = = = = = = = = = = = = = = = = = = = = = = = = = = = = 5 X ",
"X X 3 = = = = = = = = = = = = = = = = = = = = = = = = = = = = X X 6 = = = = = = = = = = = = = = = = = = = = = = = = = = = = 5 X ",
"X X 3 = = = = = = = = = = = = = = = = = = = = = = = = = = = = X X 6 = = = = = = = = = = = = = = = = = = = = = = = = = = = = 5 X ",
"X X 3 = = = = = = = = = = = = = = = = = = = = = = = = = = = = X X 6 = = = = = = = = = = = = = = = = = = = = = = = = = = = = 5 X ",
"X X 3 = = = = = = = = = = = = = = = = = = = = = = = = = = = = X X 6 = = = = = = = = = = = = = = = = = = = = = = = = = = = = 5 X ",
"X X 3 = = = = = = = = = = = = = = = = = = = = = = = = = = = = X X 6 = = = = = = = = = = = = = = = = = = = = = = = = = = = = 5 X ",
"X X 3 = = = = = = = = = = = = = = = = = = = = = = = = = = = = X X 6 = = = = = = = = = = = = = = = = = = = = = = = = = = = = 5 X ",
"X X 3 = = = = = = = = = = = = = = = = = = = = = = = = = = = = X X 6 = = = = = = = = = = = = = = = = = = = = = = = = = = = = 5 X ",
"X X 3 = = = = = = = = = = = = = = = = = = = = = = = = = = = = X X 6 = = = = = = = = = = = = = = = = = = = = = = = = = = = = 5 X ",
"X X 3 = = = = = = = = = = = = = = = = = = = = = = = = = = = = X X 6 = = = = = = = = = = = = = = = = = = = = = = = = = = = = 5 X ",
"X X 3 = = = = = = = = = = = = = = = = = = = = = = = = = = = = X X 6 = = = = = = = = = = = = = = = = = = = = = = = = = = = = 5 X ",
"X $ / = = = = = = = = = = = = = = = = = = = = = = = = = = = = X X ( = = = = = = = = = = = = = = = = = = = = = = = = = = = = d X ",
"X X ) = = = = = = = = = = = = = = = = = = = = = = = = = = = _ X X ` = = = = = = = = = = = = = = = = = = = = = = = = = = = 2 $ X ",
"X X d / = = = = = = = = = = = = = = = = = = = = = = = = = ' % X X X ] = = = = = = = = = = = = = = = = = = = = = = = = = = Q $ X ",
"[ X X X X X X X X X X X X X X X X X X X X X X X X X X % X X X X X X $ X $ X X X X X X X X X X X X X X X X $ X X X X $ X X X X { ",
"@   } X X X X X X X X X X X X X X X X X X X X X X X X X X X }   @ | X X X X X X X X X X X X X X X X X X X X X X X X X X X X  .  "
};
