/* XPM */
static char *_fc3a15343d74699a1ea574cfcf19f8fIFKh1c1mHKZiGzCb[] = {
/* columns rows colors chars-per-pixel */
"64 64 176 2 ",
"   c #DBD2C8",
".  c #BC764F",
"X  c #FD9457",
"o  c #FBB88F",
"O  c #F8F0E5",
"+  c #F8F4EB",
"@  c #E8DBCE",
"#  c #CB7E52",
"$  c #F8EFE3",
"%  c #6F4834",
"&  c #8C4C2B",
"*  c #C87041",
"=  c #DB8759",
"-  c #ECA27A",
";  c #A18E80",
":  c #A38E81",
">  c #754C37",
",  c #93502D",
"<  c #EFA67E",
"1  c #572D19",
"2  c #703A20",
"3  c #934C2A",
"4  c #BB6135",
"5  c #DE7540",
"6  c #2C1D12",
"7  c #4D2816",
"8  c #E57A43",
"9  c #251B11",
"0  c #E67A44",
"q  c #572E19",
"w  c #562D19",
"e  c #E57943",
"r  c #E57A44",
"t  c #E47943",
"y  c #63412E",
"u  c #592F1A",
"i  c #6F3A20",
"p  c #8A4827",
"a  c #98512D",
"s  c #432515",
"d  c #5C301B",
"f  c #8A4828",
"g  c #B86D46",
"h  c #E3D9CD",
"j  c #63493A",
"k  c #462615",
"l  c #482816",
"z  c #2B1D12",
"x  c #271C11",
"c  c #3D2314",
"v  c #472615",
"b  c #704F3C",
"n  c #E8DED2",
"m  c #92897E",
"M  c #261B11",
"N  c #9A8C80",
"B  c #93897F",
"V  c #2A1D12",
"C  c #E9DED2",
"Z  c #B97048",
"A  c #E09468",
"S  c #3B2C20",
"D  c #2C1E12",
"F  c #AB6239",
"G  c #DA956C",
"H  c #372A1F",
"J  c #2E1F13",
"K  c #B3663B",
"L  c #FBB68B",
"P  c #F8F1E7",
"I  c #774F3A",
"U  c #8D4C2B",
"Y  c #C66E3F",
"T  c #C76F40",
"R  c #C66F3F",
"E  c #C77040",
"W  c #D98659",
"Q  c #CA7E56",
"!  c #522C19",
"~  c #924F2C",
"^  c #C27A54",
"/  c #532C19",
"(  c #97522F",
")  c #DB885C",
"_  c #924C2A",
"`  c #B76035",
"'  c #E37640",
"]  c #281C11",
"[  c #BA6135",
"{  c #E37842",
"}  c #DD7440",
"|  c #E47A44",
" . c #552D19",
".. c #E27842",
"X. c #E27843",
"o. c #924B29",
"O. c #B96135",
"+. c #E27742",
"@. c #674532",
"#. c #582F1A",
"$. c #854627",
"%. c #96502C",
"&. c #412414",
"*. c #5A2F1A",
"=. c #844526",
"-. c #904D2B",
";. c #422515",
":. c #5B301B",
">. c #854526",
",. c #B57351",
"<. c #E2DBD1",
"1. c #573623",
"2. c #4F2A17",
"3. c #402414",
"4. c #4C2917",
"5. c #291D12",
"6. c #623D2A",
"7. c #E6DDD2",
"8. c #291C11",
"9. c #291C12",
"0. c #9D8D80",
"q. c #E9DFD3",
"w. c #B77855",
"e. c #DA804B",
"r. c #DB804C",
"t. c #BE805B",
"y. c #392B1E",
"u. c #2D1E13",
"i. c #985733",
"p. c #DB814C",
"a. c #ECB18C",
"s. c #764A33",
"d. c #8E4C2A",
"f. c #C56D3E",
"g. c #DA8659",
"h. c #C77D56",
"j. c #934F2D",
"k. c #C66E3E",
"l. c #C76F3F",
"z. c #DB885B",
"x. c #EEA278",
"c. c #6E3920",
"v. c #914B29",
"b. c #B96035",
"n. c #E37944",
"m. c #BA6035",
"M. c #E17742",
"N. c #E37943",
"B. c #E27944",
"V. c #6D3920",
"C. c #E17843",
"Z. c #B86035",
"A. c #5A4030",
"S. c #562E1A",
"D. c #6A381F",
"F. c #7F4325",
"G. c #B16640",
"H. c #8F887E",
"J. c #613D29",
"K. c #6B381F",
"L. c #814425",
"P. c #A96847",
"I. c #D7D1C7",
"U. c #563E2F",
"Y. c #4C2816",
"T. c #4E2917",
"R. c #4E2916",
"E. c #4D2916",
"W. c #4F2917",
"Q. c #4B2716",
"!. c #6E4631",
"~. c #E7D7C9",
"^. c #E1D5C8",
"/. c #60402E",
"(. c #4B2816",
"). c #644332",
/* pixels */
"  . X X X X X X X X X X X X X X X X X X X X X X X X X X X o O + + @ # X X X X X X X X X X X X X X X X X X X X X X X X X X X o $ ",
"% & * * * * * * * * * * * * * * * * * * * * * * * * * * * = - ; : > , * * * * * * * * * * * * * * * * * * * * * * * * * * * = < ",
"1 2 3 3 3 3 3 3 3 3 3 3 3 3 3 3 3 3 3 3 3 3 3 3 3 3 3 3 3 4 5 6 6 7 2 3 3 3 3 3 3 3 3 3 3 3 3 3 3 3 3 3 3 3 3 3 3 3 3 3 3 3 4 8 ",
"1 2 3 3 3 3 3 3 3 3 3 3 3 3 3 3 3 3 3 3 3 3 3 3 3 3 3 3 3 4 5 9 9 7 2 3 3 3 3 3 3 3 3 3 3 3 3 3 3 3 3 3 3 3 3 3 3 3 3 3 3 3 4 0 ",
"q 2 3 3 3 3 3 3 3 3 3 3 3 3 3 3 3 3 3 3 3 3 3 3 3 3 3 3 3 4 5 9 9 7 2 3 3 3 3 3 3 3 3 3 3 3 3 3 3 3 3 3 3 3 3 3 3 3 3 3 3 3 4 0 ",
"w 2 3 3 3 3 3 3 3 3 3 3 3 3 3 3 3 3 3 3 3 3 3 3 3 3 3 3 3 4 5 9 9 7 2 3 3 3 3 3 3 3 3 3 3 3 3 3 3 3 3 3 3 3 3 3 3 3 3 3 3 3 4 8 ",
"1 2 3 3 3 3 3 3 3 3 3 3 3 3 3 3 3 3 3 3 3 3 3 3 3 3 3 3 3 4 5 9 9 7 2 3 3 3 3 3 3 3 3 3 3 3 3 3 3 3 3 3 3 3 3 3 3 3 3 3 3 3 4 e ",
"1 2 3 3 3 3 3 3 3 3 3 3 3 3 3 3 3 3 3 3 3 3 3 3 3 3 3 3 3 4 5 9 9 7 2 3 3 3 3 3 3 3 3 3 3 3 3 3 3 3 3 3 3 3 3 3 3 3 3 3 3 3 4 e ",
"1 2 3 3 3 3 3 3 3 3 3 3 3 3 3 3 3 3 3 3 3 3 3 3 3 3 3 3 3 4 5 9 9 7 2 3 3 3 3 3 3 3 3 3 3 3 3 3 3 3 3 3 3 3 3 3 3 3 3 3 3 3 4 r ",
"1 2 3 3 3 3 3 3 3 3 3 3 3 3 3 3 3 3 3 3 3 3 3 3 3 3 3 3 3 4 5 9 9 7 2 3 3 3 3 3 3 3 3 3 3 3 3 3 3 3 3 3 3 3 3 3 3 3 3 3 3 3 4 0 ",
"w 2 3 3 3 3 3 3 3 3 3 3 3 3 3 3 3 3 3 3 3 3 3 3 3 3 3 3 3 4 5 9 9 7 2 3 3 3 3 3 3 3 3 3 3 3 3 3 3 3 3 3 3 3 3 3 3 3 3 3 3 3 4 0 ",
"w 2 3 3 3 3 3 3 3 3 3 3 3 3 3 3 3 3 3 3 3 3 3 3 3 3 3 3 3 4 5 9 9 7 2 3 3 3 3 3 3 3 3 3 3 3 3 3 3 3 3 3 3 3 3 3 3 3 3 3 3 3 4 t ",
"1 2 3 3 3 3 3 3 3 3 3 3 3 3 3 3 3 3 3 3 3 3 3 3 3 3 3 3 3 4 5 9 9 7 2 3 3 3 3 3 3 3 3 3 3 3 3 3 3 3 3 3 3 3 3 3 3 3 3 3 3 3 4 e ",
"1 2 3 3 3 3 3 3 3 3 3 3 3 3 3 3 3 3 3 3 3 3 3 3 3 3 3 3 3 4 5 9 9 7 2 3 3 3 3 3 3 3 3 3 3 3 3 3 3 3 3 3 3 3 3 3 3 3 3 3 3 3 4 8 ",
"w 2 3 3 3 3 3 3 3 3 3 3 3 3 3 3 3 3 3 3 3 3 3 3 3 3 3 3 3 4 5 9 9 7 2 3 3 3 3 3 3 3 3 3 3 3 3 3 3 3 3 3 3 3 3 3 3 3 3 3 3 3 4 0 ",
"q 2 3 3 3 3 3 3 3 3 3 3 3 3 3 3 3 3 3 3 3 3 3 3 3 3 3 3 3 4 5 9 9 7 2 3 3 3 3 3 3 3 3 3 3 3 3 3 3 3 3 3 3 3 3 3 3 3 3 3 3 3 4 0 ",
"w 2 3 3 3 3 3 3 3 3 3 3 3 3 3 3 3 3 3 3 3 3 3 3 3 3 3 3 3 4 5 9 9 7 2 3 3 3 3 3 3 3 3 3 3 3 3 3 3 3 3 3 3 3 3 3 3 3 3 3 3 3 4 t ",
"q 2 3 3 3 3 3 3 3 3 3 3 3 3 3 3 3 3 3 3 3 3 3 3 3 3 3 3 3 4 5 9 9 7 2 3 3 3 3 3 3 3 3 3 3 3 3 3 3 3 3 3 3 3 3 3 3 3 3 3 3 3 4 e ",
"y u i i i i i i i i i i i i i i i i i i i i i i i i i i i p a 9 9 s d i i i i i i i i i i i i i i 2 2 2 2 2 2 2 2 2 2 2 2 2 f g ",
"h j k k k k k k k k k k k k k k k k k k k k k k k k k k k l z 9 9 x c k k k k k k k k k k k k k k k k k k k k k k k k k k v b n ",
"+ m 9 9 9 9 9 9 9 9 9 9 9 9 9 9 9 9 9 9 9 9 9 9 9 9 9 9 9 9 9 M M x 9 9 9 9 9 9 9 9 9 9 9 9 9 9 9 9 9 9 9 9 9 9 9 9 9 9 9 z N + ",
"+ B 9 9 9 9 9 9 9 9 9 9 9 9 9 M M 9 9 9 9 9 9 9 9 9 9 9 9 9 9 9 9 M M 9 9 9 9 9 9 9 9 9 9 9 M M M 9 9 9 9 9 9 9 9 9 9 9 9 V N + ",
"C Z X X X X X X X X X X X A S 9 9 D F X X X X X X X X X X X X X X X X X X X X X X X X X X G H 9 9 J K X X X X X X X X X X X L P ",
"I U Y Y Y Y Y Y Y T R E E W Q x 9 ! ~ T E E E E E E E E E E E E E E E E E E E E E E E E E = ^ 9 M / ( E E E E E E E E E E E ) < ",
"w 2 3 3 3 3 3 3 3 3 _ _ _ ` ' ] 9 7 2 _ _ _ _ _ _ _ _ _ _ _ _ _ _ _ _ _ _ _ _ _ _ _ _ _ _ 4 5 9 x 7 2 3 3 3 3 3 3 3 3 3 3 3 4 r ",
"w 2 3 3 3 3 3 3 3 3 3 3 3 ` ' ] 9 7 2 3 3 3 3 3 3 3 3 3 3 3 3 3 3 3 3 3 3 3 3 3 3 3 3 3 3 4 5 9 x 7 2 3 3 3 3 3 3 3 3 3 3 3 4 r ",
"q 2 3 3 3 3 3 3 3 3 3 3 3 ` ' ] 9 7 2 3 3 3 3 3 3 3 3 3 3 3 3 3 3 3 3 3 3 3 3 3 3 3 3 3 3 4 5 9 x 7 2 3 3 3 3 3 3 3 3 3 3 3 4 t ",
"w 2 3 3 3 3 3 3 3 3 3 3 3 ` ' ] 9 7 2 3 3 3 3 3 3 3 3 3 3 3 3 3 3 3 3 3 3 3 3 3 3 3 3 3 3 4 5 9 M 7 2 3 3 3 3 3 3 3 3 3 3 3 [ { ",
"1 2 3 3 3 3 3 3 3 3 3 3 3 ` ' ] 9 7 2 3 3 3 3 3 3 3 3 3 3 3 3 3 3 3 3 3 3 3 3 3 3 3 3 3 3 4 5 9 x 7 2 3 3 3 3 3 3 3 3 3 3 3 [ { ",
"w 2 3 3 3 3 3 3 3 3 3 3 3 ` ' ] 9 7 i 3 3 3 3 3 3 3 3 3 3 3 3 3 3 3 3 3 3 3 3 3 3 3 3 3 3 4 5 9 x 7 2 3 3 3 3 3 3 3 3 3 3 3 [ e ",
"w 2 3 3 3 3 3 3 3 3 3 3 3 ` ' ] 9 7 2 3 3 3 3 3 3 3 3 3 3 3 3 3 3 3 3 3 3 3 3 3 3 3 3 3 3 4 } 9 M 7 2 3 3 3 3 3 3 3 3 3 3 3 4 | ",
" .2 3 3 3 3 3 3 3 3 3 3 3 ` ' ] 9 7 i 3 3 3 3 3 3 3 3 3 3 3 3 3 3 3 3 3 3 3 3 3 3 3 3 3 3 4 } 9 x 7 2 3 3 3 3 3 3 3 3 3 3 3 4 r ",
"q 2 3 3 3 3 3 3 3 3 3 3 3 ` ' ] 9 7 i 3 3 3 3 3 3 3 3 3 3 3 3 3 3 3 3 3 3 3 3 3 3 3 3 3 3 4 5 9 M 7 2 3 3 3 3 3 3 3 3 3 3 3 4 ..",
"w 2 3 3 3 3 3 3 3 3 3 3 3 ` ' ] 9 7 2 3 3 3 3 3 3 3 3 3 3 3 3 3 3 3 3 3 3 3 3 3 3 3 3 3 3 4 } 9 x 7 2 3 3 3 3 3 3 3 3 3 3 3 4 { ",
"w 2 _ 3 3 3 3 3 3 3 3 3 3 ` ' ] 9 7 i 3 3 3 3 3 3 3 3 3 3 3 3 3 3 3 3 3 3 3 3 3 3 3 3 3 3 4 } 9 x 7 2 3 3 3 3 3 3 3 3 3 3 3 4 { ",
"w 2 _ 3 3 3 3 3 3 3 3 3 3 ` ' ] 9 7 i 3 3 3 3 3 3 3 3 3 3 3 3 3 3 3 3 3 3 3 3 3 3 3 3 3 3 4 } 9 x 7 2 3 3 3 3 3 3 3 3 3 3 3 [ r ",
"w 2 _ 3 _ 3 _ 3 3 _ 3 _ 3 ` ' ] 9 7 i 3 3 3 3 3 3 3 3 3 3 3 3 3 3 3 3 3 3 3 3 3 3 3 3 3 3 4 } 9 x 7 2 3 3 3 3 3 3 3 3 3 3 3 4 | ",
"w 2 _ _ 3 _ 3 _ 3 _ _ 3 3 ` ' ] 9 7 i 3 3 3 3 3 3 3 3 3 3 3 3 3 3 3 3 3 3 3 3 3 3 3 3 3 3 4 } 9 M 7 2 3 3 3 3 3 3 3 3 3 3 3 4 X.",
"1 2 o._ _ _ _ 3 _ _ _ 3 3 ` ' ] 9 7 i 3 3 3 3 3 3 3 3 3 3 3 3 3 3 3 3 3 3 3 3 3 3 3 3 3 3 4 } 9 x 7 2 3 3 3 3 3 3 3 3 3 3 3 O.+.",
"1 i _ _ o.o._ _ _ _ 3 3 _ ` ' ] 9 7 i _ 3 3 3 3 3 3 3 3 3 3 3 3 3 3 3 3 3 3 3 3 3 3 3 3 3 4 } 9 x 7 2 3 3 3 3 3 3 3 3 3 3 3 O.+.",
"@.#.i i i 2 i i i 2 i 2 2 $.%.] 9 &.*.2 2 2 2 2 2 2 2 2 2 2 2 2 2 2 2 2 2 2 2 2 2 2 2 2 2 =.-.9 M ;.:.2 2 2 2 2 2 2 2 2 2 2 >.,.",
"<.1.7 7 7 7 7 7 7 7 7 7 7 2.z 9 9 x 3.7 7 7 7 7 7 7 7 7 7 7 7 7 7 7 7 7 7 7 7 7 7 7 7 7 7 4.5.9 9 x ;.7 7 7 7 7 7 7 7 7 7 7 6.7.",
"+ m 9 9 9 9 9 9 9 9 9 9 9 9 9 9 9 9 9 9 9 9 9 9 9 9 9 9 9 9 9 9 9 9 9 9 9 9 9 9 9 9 9 9 9 9 9 9 9 9 9 9 9 9 9 9 9 9 9 9 9 V N + ",
"+ B x ] ] ] ] ] ] ] ] ] ] ] ] ] ] ] ] ] ] ] ] ] ] ] ] ] ] x 9 9 9 9 ] ] ] ] ] ] ] ] ] ] ] ] ] 8.8.9.] ] ] ] ] ] ] ] ] ] ] 6 0.+ ",
"q.w.e.r.r.r.r.r.r.r.r.r.r.r.r.r.r.r.r.r.r.r.r.r.r.r.r.r.r.t.y.9 9 u.i.r.r.r.r.r.r.r.r.r.r.r.r.r.r.p.r.r.r.r.r.r.r.r.r.r.r.r.a.O ",
"s.d.f.f.f.f.f.f.f.f.f.f.f.f.f.f.f.f.f.f.f.f.f.f.f.f.f.f.f.g.h.9 9 ! j.f.f.f.f.f.f.Y f.Y Y Y Y Y Y k.Y Y Y Y Y Y Y Y l.Y Y R z.x.",
"w c.v.v.v.v.v.v.v.v.v.v.v.v.v.v.v.v.v.v.o.v.o.v.o.v.v.v.v.b.5 9 9 7 i o._ o._ _ _ _ _ 3 _ 3 3 _ 3 3 3 3 3 3 3 3 3 3 3 3 3 3 [ | ",
"w i o.o._ o._ _ _ _ o.o.o.o.o.o.o.v._ o.o._ o._ o._ _ _ _ b.5 9 9 7 i _ _ 3 _ 3 3 3 3 _ 3 3 _ 3 3 3 3 3 3 3 3 3 3 3 3 3 3 3 4 n.",
"w i o._ _ _ _ _ _ _ _ v.o.o.o.o.o._ o.o.o.o.o.o._ o._ o.o.m.5 9 9 7 i _ _ 3 3 _ _ _ 3 3 3 3 3 3 3 3 3 3 3 3 3 3 3 3 3 3 3 3 4 M.",
"q i o._ _ o._ _ _ _ o.v.o.v.v.v.o.o.o.o.o.o._ o.o._ o._ o.b.5 9 9 7 i _ _ _ _ _ 3 _ _ 3 3 3 _ o.3 _ 3 _ 3 3 3 3 3 3 3 3 3 3 4 M.",
"1 i o._ _ _ _ _ _ _ _ v.v.v.o.v.o.o.o.o.o.o.o.o.o.o.o.o._ m.5 9 9 7 i _ _ o._ _ _ _ 3 3 _ _ _ _ _ 3 3 3 3 _ 3 3 3 3 3 3 3 3 4 X.",
" .c.o._ _ o._ o._ o._ v.v.v.o.v.v.v.o.o.o.v.o.o.o.o.o._ o.b.5 9 9 7 i _ _ _ o.o.o._ _ _ _ _ 3 _ 3 _ 3 _ _ 3 3 3 3 3 3 3 3 _ [ n.",
"w c.o._ o.o.o._ _ _ o.v.o.v.o.v.v.v.v.o.v.o.o.o.v.v.o.o.o.b.5 9 9 7 i _ o._ o._ _ o._ _ o._ _ _ _ _ _ _ _ _ 3 _ 3 3 3 3 3 3 b.N.",
"w i o.o._ o.o._ o.o._ o.v.v.v.v.v.v.v.v.v.v.v.v.o.v.v.v.o.m.5 9 9 7 i o.o.o._ o.o._ o._ o._ _ _ _ _ _ o._ _ _ _ _ 3 _ 3 3 3 [ X.",
"1 i o.o.o.o._ o.o.o._ o.v.v.v.v.v.v.v.v.v.v.v.o.v.v.o.v.o.b.5 9 9 7 i o.v.o.o.o.o.o._ _ _ o.o._ o._ _ _ o._ 3 _ 3 _ _ _ 3 _ b.M.",
"w i o.o.o.o.o.o.o.o.o.o.v.v.v.v.v.v.v.v.v.v.v.v.v.o.v.v.v.b.5 9 9 7 i o.o.o.o.v.o.o.o.o.o._ o._ o.o._ o._ _ _ _ _ o._ _ _ 3 b.X.",
" .c.o.o.o.o.o.o.o.o.o.o.v.v.v.v.v.v.v.v.v.v.v.v.v.v.v.v.v.b.5 9 9 7 i o.v.v.v.o.o.o.o.o._ o.o.o.o.o.o._ o._ _ _ _ o._ _ _ _ b.B.",
"w V.o.o.o.o.o.o.o.o.o.o.v.v.v.v.v.v.v.v.v.v.v.v.v.v.v.v.o.b.5 9 9 7 i o.o.o.o.o.o.o.o.o.o.o.o.o.o.o.o.o._ o._ o._ _ o.o._ _ b.C.",
" .c.o.o.o.o.o.o.o.o.o.o.o.v.v.v.v.v.v.v.v.v.v.v.v.v.v.v.v.b.5 9 9 7 i v.v.v.v.v.v.v.v.v.v.o.o.v.o.v._ o.o.o.o._ o.o.o.o._ o.[ X.",
"q c.v.o.v.o.o.o.o.o.o.o.v.v.v.v.v.v.v.v.v.v.v.v.v.v.v.v.o.b.5 9 9 7 i o.v.v.v.v.o.o.o.v.o.o.o.o.o.o.o.o.o.o._ o.o.o.o.o.o._ [ C.",
"w c.v.v.v.o.o.o.o.o.o.o.v.v.v.v.v.v.v.v.v.v.v.v.v.v.v.v.v.b.} 9 9 7 i v.v.v.v.v.v.v.v.v.o.v.v.v.v.o.v.v.o.o.v.o.o.o.o.o.v._ [ M.",
"w c.v.v.v.o.v.o.o.o.o.o.v.v.v.v.v.v.v.v.v.v.v.v.v.v.v.v.v.b.} 9 9 7 i v.v.v.v.v.v.v.v.v.v.v.v.v.o.v.v.v.o.o.v.v.o.o.o.v.o.o.Z.B.",
"A.S.D.D.D.D.D.D.D.D.D.D.D.D.D.D.D.D.D.D.D.D.D.D.D.D.D.D.D.F.G.H.H.J.u D.D.D.D.D.D.D.D.D.K.D.D.D.K.D.D.D.D.D.D.D.K.D.D.D.D.D.L.P.",
"I.U.Y.T.Y.R.Y.E.E.T.7 R.Y.T.W.R.R.Q.7 T.R.7 T.Y.T.T.R.R.7 !.~.+ + ^./.W.R.7 7 Y.R.T.7 R.Y.R.R.W.R.Y.R.T.W.R.(.7 T.T.R.Y.Y.T.).  "
};
