/* XPM */
static char *result[] = {
/* columns rows colors chars-per-pixel */
"64 64 198 2 ",
"   c black",
".  c #010000",
"X  c #010100",
"o  c #020101",
"O  c #030101",
"+  c #030201",
"@  c #050101",
"#  c #040201",
"$  c #050201",
"%  c #060301",
"&  c #050202",
"*  c #060202",
"=  c #060302",
"-  c #080202",
";  c #080302",
":  c #090303",
">  c #0A0303",
",  c #090403",
"<  c #0A0403",
"1  c #0B0503",
"2  c #0B0404",
"3  c #0A0504",
"4  c #0B0504",
"5  c #0C0504",
"6  c #110606",
"7  c #120706",
"8  c #130706",
"9  c #110806",
"0  c #120806",
"q  c #120807",
"w  c #130807",
"e  c #120907",
"r  c #130907",
"t  c #160807",
"y  c #140A08",
"u  c #150A08",
"i  c #180908",
"p  c #190A08",
"a  c #190B09",
"s  c #1B0A09",
"d  c #1F0A0A",
"f  c #1B0C09",
"g  c #1B0C0A",
"h  c #1C0C0A",
"j  c #1C0D0A",
"k  c #1D0D0A",
"l  c #1C0D0B",
"z  c #1C0E0B",
"x  c #1D0E0B",
"c  c #260E0C",
"v  c #24100D",
"b  c #27130F",
"n  c #291410",
"m  c #2C1410",
"M  c #2E1410",
"N  c #2F1712",
"B  c #311310",
"V  c #361210",
"C  c #321612",
"Z  c #371511",
"A  c #381412",
"S  c #391612",
"D  c #3A1612",
"F  c #371813",
"G  c #371914",
"H  c #351A14",
"J  c #381914",
"K  c #391A15",
"L  c #3B1A15",
"P  c #3E1B16",
"I  c #3A1C16",
"U  c #3B1D16",
"Y  c #3C1D17",
"T  c #3F1C16",
"R  c #3D1E17",
"E  c #3E1E17",
"W  c #3F1E17",
"Q  c #3F1E18",
"!  c #431915",
"~  c #401C17",
"^  c #401F18",
"/  c #411F18",
"(  c #4D1D18",
")  c #4E1D18",
"_  c #412019",
"`  c #44211A",
"'  c #4F231C",
"]  c #53201A",
"[  c #52251D",
"{  c #56261E",
"}  c #59221C",
"|  c #65211E",
" . c #60241E",
".. c #542920",
"X. c #5A2820",
"o. c #582A21",
"O. c #582B22",
"+. c #662D24",
"@. c #672E24",
"#. c #6B2922",
"$. c #6C2922",
"%. c #6D2922",
"&. c #6E2A23",
"*. c #6B2F26",
"=. c #722622",
"-. c #732623",
";. c #762A25",
":. c #742C24",
">. c #7A2E26",
",. c #7B2E27",
"<. c #753429",
"1. c #77352A",
"2. c #7F3028",
"3. c #79362B",
"4. c #78372B",
"5. c #7A362B",
"6. c #7C372C",
"7. c #7E362C",
"8. c #73382C",
"9. c #78382C",
"0. c #7F3B2F",
"q. c #7C3C2F",
"w. c #7D3D2F",
"e. c #7E3D30",
"r. c #7F3E30",
"t. c #813129",
"y. c #84322A",
"u. c #8F362D",
"i. c #863C2F",
"p. c #93382E",
"a. c #813D30",
"s. c #803E31",
"d. c #813F31",
"f. c #823F31",
"g. c #833F32",
"h. c #9F3530",
"j. c #983A30",
"k. c #9A3A31",
"l. c #9B3B31",
"z. c #A13D33",
"x. c #A53E34",
"c. c #A93833",
"v. c #AA3833",
"b. c #AF3E36",
"n. c #BF3F39",
"m. c #864133",
"M. c #944234",
"N. c #9F4738",
"B. c #9E4C3C",
"V. c #AA4036",
"C. c #AC4136",
"Z. c #AE4237",
"A. c #A5493A",
"S. c #A6493A",
"D. c #B14338",
"F. c #B24338",
"G. c #B44439",
"H. c #B54539",
"J. c #BC473B",
"K. c #BD483C",
"L. c #C0493D",
"P. c #C2493D",
"I. c #C34A3D",
"U. c #C74B3F",
"Y. c #A95240",
"T. c #AF5542",
"R. c #B55040",
"E. c #B05543",
"W. c #B45744",
"Q. c #B95241",
"!. c #BA5342",
"~. c #BB5443",
"^. c #BA5A47",
"/. c #BF5946",
"(. c #CC4D40",
"). c #CD4E41",
"_. c #CE4E41",
"`. c #C05947",
"'. c #C85947",
"]. c #C15D49",
"[. c #C35D49",
"{. c #D15D4A",
"}. c #D75F4C",
"|. c #DC5F4C",
" X c #C5604B",
".X c #C6604B",
"XX c #DA614D",
"oX c #DD624E",
"OX c #DF644F",
"+X c #DB6A53",
"@X c #DE6B54",
"#X c #E16651",
"$X c #E46953",
"%X c #E46A54",
"&X c #E76E56",
"*X c #EA7259",
"=X c #EB7259",
"-X c None",
/* pixels */
"-X                        % -X-X-X1 o                                                     X 1 -X-X-X%                         -X",
"    f f f f f g x x x x x   B _.2.    + 9 f f f l x x x x x x x x x x x x x x x x x x x x q   2._.B   f f f f f g z x x x x     ",
"  f oXoXoXoXoX%X=X=X=X=X=Xx   _.)   N.oXoXoXoXOX=X=X=X=X=X=X=X=X=X=X=X=X=X=X=X=X=X=X=X=X=XE.  ) _.  f oXoXoXoXoX$X=X=X=X=X=Xx   ",
"  f oXoXoXoXoX%X=X=X=X=X=Xx   _.(   S.oXoXoXoXOX=X=X=X=X=X=X=X=X=X=X=X=X=X=X=X=X=X=X=X=X=XE.  ( _.  f oXoXoXoXoX$X=X=X=X=X=Xx   ",
"  f oXoXoXoXoX%X=X=X=X=X=Xx   _.(   S.oXoXoXoXOX=X=X=X=X=X=X=X=X=X=X=X=X=X=X=X=X=X=X=X=X=XE.  ( _.  f oXoXoXoXoX$X=X=X=X=X=Xx   ",
"* M oXoXoXoXoX%X=X=X=X=X=Xx   _.(   S.oXoXoXoXOX=X=X=X=X=X=X=X=X=X=X=X=X=X=X=X=X=X=X=X=X=XE.  ( _.  f oXoXoXoXoX$X=X=X=X=X=Xx   ",
"-X'.oXoXoXoXoX%X=X=X=X=X=Xx   _.(   S.oXoXoXoXOX=X=X=X=X=X=X=X=X=X=X=X=X=X=X=X=X=X=X=X=X=XE.  ( _.  f oXoXoXoXoX$X=X=X=X=X=Xx   ",
"-XoXoXoXoXoXoX%X=X=X=X=X=Xx   _.(   S.oXoXoXoXOX=X=X=X=X=X=X=X=X=X=X=X=X=X=X=X=X=X=X=X=X=XE.  ( _.  f oXoXoXoXoX$X=X=X=X=X=Xx   ",
"-X}.oXoXoXoXoX%X=X=X=X=X=Xx   _.(   S.oXoXoXoXOX=X=X=X=X=X=X=X=X=X=X=X=X=X=X=X=X=X=X=X=X=XE.  ( _.  f oXoXoXoXoX$X=X=X=X=X=Xx   ",
"< G oXoXoXoXoX%X=X=X=X=X=Xx   _.(   S.oXoXoXoXOX=X=X=X=X=X=X=X=X=X=X=X=X=X=X=X=X=X=X=X=X=XE.  ( _.  f oXoXoXoXoX$X=X=X=X=X=Xx   ",
"  f oXoXoXoXoX%X=X=X=X=X=Xx   _.(   S.oXoXoXoXOX=X=X=X=X=X=X=X=X=X=X=X=X=X=X=X=X=X=X=X=X=XE.  ( _.  f oXoXoXoXoX$X=X=X=X=X=Xx   ",
"  f oXoXoXoXoX%X=X=X=X=X=Xx   _.(   S.oXoXoXoXOX=X=X=X=X=X=X=X=X=X=X=X=X=X=X=X=X=X=X=X=X=XE.  ( _.  f oXoXoXoXoX$X=X=X=X=X=Xx   ",
"  f oXoXoXoXoX%X=X=X=X=X=Xx   _.(   S.oXoXoXoXOX=X=X=X=X=X=X=X=X=X=X=X=X=X=X=X=X=X=X=X=X=XE.  ( _.  f oXoXoXoXoX$X=X=X=X=X=Xx   ",
"- O F F F F F J I I I I I O c _.:.  v F F F F F I I I I I I I I I I I I I I I I I I I I I b   :._.c O F F F F F J I I I I I O @ ",
"-Xt                       p p._.P.Z .                                                     . Z P._.p.p                       i -X",
"-Xn.v.c.c.c.c.b.G.G.G.G.H.(._._._._.K.G.G.G.G.G.G.G.G.G.G.G.G.G.G.G.G.G.G.G.G.G.G.G.G.G.G.K._._._._.(.H.G.G.G.G.G.G.G.G.G.H.(.-X",
"-X| V V V V V A D D D D D D D D D D D D D D D D D D D D D } D._._.D.} S S S S S S S S S S S S S S S S S S S S S S S S S S D #.-X",
"6                                                           s (.(.s                                                           > ",
"o 9 M.A.R.!.!.`..X.X.X.X.X.X.X.X.X.X.X.X.X.X.X.X.X.X.X.X.X`   z.z.  ~ !.!.!.!.!.[..X.X.X.X.X.X.X.X.X.X.X.X.X.X.X.X.X.X].T.B.e . ",
"  f oXoXoXoXoX%X=X=X=X=X=X=X=X=X=X=X=X=X=X=X=X=X=X=X=X=X=Xo.  k.k.  [ oXoXoXoXoX&X=X=X=X=X=X=X=X=X=X=X=X=X=X=X=X=X=X=X=X=X=Xx   ",
"  f oXoXoXoXoX%X=X=X=X=X=X=X=X=X=X=X=X=X=X=X=X=X=X=X=X=X=Xo.  k.k.  [ oXoXoXoXoX&X=X=X=X=X=X=X=X=X=X=X=X=X=X=X=X=X=X=X=X=X=Xx   ",
"  f oXoXoXoXoX%X=X=X=X=X=X=X=X=X=X=X=X=X=X=X=X=X=X=X=X=X=Xo.  k.k.  [ oXoXoXoXoX&X=X=X=X=X=X=X=X=X=X=X=X=X=X=X=X=X=X=X=X=X=Xx   ",
"  f oXoXoXoXoX%X=X=X=X=X=X=X=X=X=X=X=X=X=X=X=X=X=X=X=X=X=Xo.  k.k.  [ oXoXoXoXoX&X=X=X=X=X=X=X=X=X=X=X=X=X=X=X=X=X=X=X=X=X=Xx   ",
"  f oXoXoXoXoX%X=X=X=X=X=X=X=X=X=X=X=X=X=X=X=X=X=X=X=X=X=Xo.  k.k.  [ oXoXoXoXoX&X=X=X=X=X=X=X=X=X=X=X=X=X=X=X=X=X=X=X=X=X=Xx   ",
"  f oXoXoXoXoX%X=X=X=X=X=X=X=X=X=X=X=X=X=X=X=X=X=X=X=X=X=Xo.  k.k.  [ oXoXoXoXoX&X=X=X=X=X=X=X=X=X=X=X=X=X=X=X=X=X=X=X=X=X=Xx   ",
"  f oXoXoXoXoX%X=X=X=X=X=X=X=X=X=X=X=X=X=X=X=X=X=X=X=X=X=Xo.  k.k.  [ oXoXoXoXoX&X=X=X=X=X=X=X=X=X=X=X=X=X=X=X=X=X=X=X=X=X=Xx   ",
"  f oXoXoXoXoX%X=X=X=X=X=X=X=X=X=X=X=X=X=X=X=X=X=X=X=X=X=Xo.  k.k.  [ oXoXoXoXoX&X=X=X=X=X=X=X=X=X=X=X=X=X=X=X=X=X=X=X=X=X=Xx   ",
"  f oXoXoXoXoX%X=X=X=X=X=X=X=X=X=X=X=X=X=X=X=X=X=X=X=X=X=Xo.  k.k.  [ oXoXoXoXoX&X=X=X=X=X=X=X=X=X=X=X=X=X=X=X=X=X=X=X=X=X=Xx   ",
"  f oXoXoXoXoX%X=X=X=X=X=X=X=X=X=X=X=X=X=X=X=X=X=X=X=X=X=Xo.  k.k.  [ oXoXoXoXoX&X=X=X=X=X=X=X=X=X=X=X=X=X=X=X=X=X=X=X=X=X=Xx   ",
"# < { +.1.6.6.0.g.g.g.f.f.f.d.d.d.s.s.s.r.r.r.e.e.e.w.w.w.n   Z.Z.  k X.*.3.6.6.a.g.g.g.f.f.f.d.d.d.s.s.s.r.r.r.e.e.e.w.w.q.4 o ",
"d                                                           S _._.S                                                           7 ",
"-Xh.-.=.=.=.=.;.>.>.>.>.>.>.>.>.>.>.>.>.>.>.>.>.>.>.>.>.>.j.)._._.).j.>.>.>.>.>.>.>.>.>.>.>.>.>.>.>.>.>.>.>.>.>.>.>.>.>.>.,.V.-X",
"-Xh.-.=.=.=.=.;.>.>.>.>.,.C._._._.I.y.>.>.>.>.>.>.>.>.>.>.>.>.>.>.>.>.>.>.t.I._._.x.>.>.>.y.I._._._.C.,.>.>.>.>.>.>.>.>.>.,.V.-X",
"d                           $._.F.,                                         7.|.|.k         : F._.$.                          7 ",
"# 3 <.<.<.<.<.9.q.q.q.q.q.4 8 _. .  T @.5.6.6.6.g.f.f.d.d.s.s.r.r.e.e.w.w.m.+X=X=XW.q.q.q.O.   ._.8 3 <.<.<.<.<.4.q.q.q.q.q.4 o ",
"  f oXoXoXoXoX%X=X=X=X=X=Xx   _.(   S.oXoXoXoXOX=X=X=X=X=X=X=X=X=X=X=X=X=X=X=X=X=X=X=X=X=XE.  ( _.  f oXoXoXoXoX$X=X=X=X=X=Xx   ",
"  f oXoXoXoXoX%X=X=X=X=X=Xx   _.(   S.oXoXoXoXOX=X=X=X=X=X=X=X=X=X=X=X=X=X=X=X=X=X=X=X=X=XE.  ( _.  f oXoXoXoXoX$X=X=X=X=X=Xx   ",
"  f oXoXoXoXoX%X=X=X=X=X=Xx   _.(   S.oXoXoXoXOX=X=X=X=X=X=X=X=X=X=X=X=X=X=X=X=X=X=X=X=X=XE.  ( _.  f oXoXoXoXoX$X=X=X=X=X=Xx   ",
"  f oXoXoXoXoX%X=X=X=X=X=Xx   _.(   S.oXoXoXoXOX=X=X=X=X=X=X=X=X=X=X=X=X=X=X=X=X=X=X=X=X=XE.  ( _.  f oXoXoXoXoX$X=X=X=X=X=Xx   ",
"  f oXoXoXoXoX%X=X=X=X=X=Xx   _.(   S.oXoXoXoXOX=X=X=X=X=X=X=X=X=X=X=X=X=X=X=X=X=X=X=X=X=XE.  ( _.  f oXoXoXoXoX$X=X=X=X=X=Xx   ",
"  f oXoXoXoXoX%X=X=X=X=X=Xx   _.(   S.oXoXoXoXOX=X=X=X=X=X=X=X=X=X=X=X=X=X=X=X=X=X=X=X=X=XE.  ( _.  f oXoXoXoXoX$X=X=X=X=X=Xx   ",
"  f oXoXoXoXoX%X=X=X=X=X=Xx   _.(   S.oXoXoXoXOX=X=X=X=X=X=X=X=X=X=X=X=X=X=X=X=X=X=X=X=X=XE.  ( _.  f oXoXoXoXoX$X=X=X=X=X=Xx   ",
"  f oXoXoXoXoX%X=X=X=X=X=Xx   _.(   S.oXoXoXoXOX=X=X=X=X=X=X=X=X=X=X=X=X=X=X=X=X=X=X=X=X=XE.  ( _.  f oXoXoXoXoX$X=X=X=X=X=Xx   ",
"  f oXoXoXoXoX%X=X=X=X=X=Xx   _.(   S.oXoXoXoXOX=X=X=X=X=X=X=X=X=X=X=X=X=X=X=X=X=X=X=X=X=XE.  ( _.  f oXoXoXoXoX$X=X=X=X=X=Xx   ",
"  f oXoXoXoXoX%X=X=X=X=X=Xx   _.(   S.oXoXoXoXOX=X=X=X=X=X=X=X=X=X=X=X=X=X=X=X=X=X=X=X=X=XE.  ( _.  f oXoXoXoXoX$X=X=X=X=X=Xx   ",
"o w !.!.!.!.!.`..X.X.X.X Xr * _.]   i.!.!.!.!.~..X.X.X.X.X.X.X.X.X.X.X.X.X.X.X.X.X.X.X^.Y.8.  ] _.* 0 Q.!.!.!.!./..X.X.X.X.Xy . ",
"6                           ( _.k.                                                            k._.(                           > ",
"-X| V V V V V A D D D D D &.L._._.u.! D D D D D D D D D D D D D D D D D D D D D D D D D D ! u._._.L.&.D D D D D D D D D D D #.-X",
"-Xn.v.c.c.c.c.b.G.G.G.G.G.G.G.G.G.G.G.G.G.G.G.G.G.G.G.G.G.U._._._._.U.G.G.G.G.G.G.G.G.G.G.G.G.G.G.G.G.G.G.G.G.G.G.G.G.G.G.H.(.-X",
"-Xt                                                       2 %._._.%.4                                                       i -X",
"- O F G G J J K R R R E E E Q Q Q ^ ^ ^ / / / _ _ _ Q N x = & J.J.& = h m L P P W / / / ^ ^ ^ Q Q Q E E E R R R Y Y Y U U I O @ ",
"  f oXoXoXoXoX%X=X=X=X=X=X=X=X=X=X=X=X=X=X=X=X=X=X=X=X=X=Xo.  k.k.  [ oXoXoXoXoX&X=X=X=X=X=X=X=X=X=X=X=X=X=X=X=X=X=X=X=X=X=Xx   ",
"  f oXoXoXoXoX%X=X=X=X=X=X=X=X=X=X=X=X=X=X=X=X=X=X=X=X=X=Xo.  k.k.  [ oXoXoXoXoX&X=X=X=X=X=X=X=X=X=X=X=X=X=X=X=X=X=X=X=X=X=Xx   ",
"  f oXoXoXoXoX%X=X=X=X=X=X=X=X=X=X=X=X=X=X=X=X=X=X=X=X=X=Xo.  k.k.  [ oXoXoXoXoX&X=X=X=X=X=X=X=X=X=X=X=X=X=X=X=X=X=X=X=X=X=Xx   ",
"  f oXoXoXoXoX%X=X=X=X=X=X=X=X=X=X=X=X=X=X=X=X=X=X=X=X=X=Xo.  k.k.  [ oXoXoXoXoX&X=X=X=X=X=X=X=X=X=X=X=X=X=X=X=X=X=X=X=X=X=Xx   ",
"  f oXoXoXoXoX%X=X=X=X=X=X=X=X=X=X=X=X=X=X=X=X=X=X=X=X=X=Xo.  k.k.  [ oXoXoXoXoX&X=X=X=X=X=X=X=X=X=X=X=X=X=X=X=X=X=X=X=X=X=Xx   ",
"  f oXoXoXoXoX%X=X=X=X=X=X=X=X=X=X=X=X=X=X=X=X=X=X=X=X=X=Xo.  k.k.  [ oXoXoXoXoX&X=X=X=X=X=X=X=X=X=X=X=X=X=X=X=X=X=X=X=X=X=Xx   ",
"  f oXoXoXoXoX%X=X=X=X=X=X=X=X=X=X=X=X=X=X=X=X=X=X=X=X=X=Xo.  k.k.  [ oXoXoXoXoX&X=X=X=X=X=X=X=X=X=X=X=X=X=X=X=X=X=X=X=X=X=Xx   ",
"  f oXoXoXoXoX%X=X=X=X=X=X=X=X=X=X=X=X=X=X=X=X=X=X=X=X=X=Xo.  k.k.  [ oXoXoXoXoX&X=X=X=X=X=X=X=X=X=X=X=X=X=X=X=X=X=X=X=X=X=Xx   ",
"  f oXoXoXoXoX%X=X=X=X=X=X=X=X=X=X=X=X=X=X=X=X=X=X=X=X=X=Xo.  k.k.  [ oXoXoXoXoX&X=X=X=X=X=X=X=X=X=X=X=X=X=X=X=X=X=X=X=X=X=Xx   ",
"  f oXoXoXoXoX%X=X=X=X=X=X=X=X=X=X=X=X=X=X=X=X=X=X=X=X=X=Xo.  k.k.  [ oXoXoXoXoX&X=X=X=X=X=X=X=X=X=X=X=X=X=X=X=X=X=X=X=X=X=Xx   ",
"  f oXoXoXoXoX%X=X=X=X=X=X=X=X=X=X=X=X=X=X=X=X=X=X=X=X=X*X..  l.l.  ' XXoXoXoXoX&X=X=X=X=X=X=X=X=X=X=X=X=X=X=X=X=X=X=X=X=X=Xx   ",
"    f f f C {.#X@XH x x x x x x x x x x x x x x x x x u #   < P.P.<   . 5 a f f j x x x x x x x x x x x x x x x x x x x x x     ",
"-X        ; -X-X-X#                                       O -X-X-X-X$                                                         -X"
};
