/* XPM */
static char *result[] = {
/* columns rows colors chars-per-pixel */
"64 64 58 1 ",
"  c black",
". c #F86120",
"X c #E0591F",
"o c #120804",
"O c #160A05",
"+ c #E45A1F",
"@ c #EF5E20",
"# c #FF611D",
"$ c #E7591C",
"% c #170A05",
"& c #EB5B1D",
"* c #F65F1E",
"= c #170A04",
"- c #EB5A1C",
"; c #F65E1D",
": c #100905",
"> c #0E0805",
", c #010100",
"< c #010101",
"1 c #0F0805",
"2 c #1F0D06",
"3 c #1F0D05",
"4 c #020101",
"5 c #040201",
"6 c #1C0C05",
"7 c #1D0D05",
"8 c #030201",
"9 c #1B0C05",
"0 c #E75B1E",
"q c #D2551F",
"w c #DA571E",
"e c #1A0B05",
"r c #170B06",
"t c #CC511C",
"y c #F15D1D",
"u c #190C06",
"i c #E1571B",
"p c #D1541D",
"a c #DA551C",
"s c #CB501A",
"d c #100804",
"f c #110804",
"g c #100704",
"h c #150904",
"j c #D5531C",
"k c #D9551C",
"l c #E3591D",
"z c #150A04",
"x c #DE571D",
"c c #E95B1E",
"v c #030101",
"b c #180B06",
"n c #E1561B",
"m c #D5531B",
"M c #190B05",
"N c #C74D19",
"B c #1E0D06",
"V c #DF591F",
/* pixels */
"                                                                ",
"                                                                ",
"                                                                ",
"                                                                ",
"...........................Xo  O+..........................@    ",
"###########################$o  %&##########################*    ",
"###########################$o  %&##########################*    ",
"###########################$o  %&##########################*    ",
"###########################$o  %&##########################*    ",
"###########################$o  %&##########################*    ",
"###########################$o  %&##########################*    ",
"###########################$o  =-##########################;    ",
":::::::::::::::::::::::::::>,  <>::::::::::::::::::::::::::1    ",
"                                                                ",
"                                                                ",
"2222222222234  562222222222222222222222222278  89222222222222222",
"000000000000>  6q00000000000000000000000000we  rt000000000000000",
"############:  20##########################y6  ui###############",
"############:  20##########################y6  ui###############",
"############:  20##########################y6  ui###############",
"############:  20##########################y6  ui###############",
"############:  20##########################y6  ui###############",
"############:  20##########################y6  ui###############",
"############:  20##########################y6  ui###############",
"############:  20##########################y6  ui###############",
"############:  20##########################y6  ui###############",
"############:  20##########################y6  ui###############",
"$$$$$$$$$$$$>  6p$$$$$$$$$$$$$$$$$$$$$$$$$$ae  rs$$$$$$$$$$$$$$$",
"oooooooooooo,  4doooooooooooooooooooooooooof4  4gooooooooooooooo",
"                                                                ",
"                                                                ",
"%%%%%%%%%%%%%%%%%%%%%%%%%%%h4  4h%%%%%%%%%%%%%%%%%%%%%%%%%%O    ",
"&&&&&&&&&&&&&&&&&&&&&&&&&&&jf  hk&&&&&&&&&&&&&&&&&&&&&&&&&&l    ",
"###########################$o  %&##########################*    ",
"###########################$o  %&##########################*    ",
"###########################$o  %&##########################*    ",
"###########################$o  %&##########################*    ",
"###########################$o  %&##########################*    ",
"###########################$o  %&##########################*    ",
"###########################$o  %&##########################*    ",
"###########################$o  %&##########################*    ",
"###########################$o  %&##########################*    ",
"###########################$o  %&##########################*    ",
"yyyyyyyyyyyyyyyyyyyyyyyyyyyaf  zxyyyyyyyyyyyyyyyyyyyyyyyyyyc    ",
"666666666666666666666666666e4  ve666666666666666666666666669    ",
"                                                                ",
"                                                                ",
"uuuuuuuuuuuu4  8ruuuuuuuuuuuuuuuuuuuuuuuuuubv  4Ouuuuuuuuuuuuuuu",
"iiiiiiiiiiin>  9tiiiiiiiiiiiiiiiiiiiiiiiiiimM  ONiiiiiiiiiiiiiii",
"############:  20##########################y6  ui###############",
"############:  20##########################y6  ui###############",
"############:  20##########################y6  ui###############",
"############:  20##########################y6  ui###############",
"############:  20##########################y6  ui###############",
"############:  20##########################y6  ui###############",
"############:  20##########################y6  ui###############",
"############:  20##########################y6  ui###############",
"############:  20##########################y6  ui###############",
"############:  20##########################y6  ui###############",
"***********;1  BV**************************c9  bk***************",
"                                                                ",
"                                                                ",
"                                                                ",
"                                                                "
};
